UMAOpenSansRodinEX.sfdir
StartChar: four
Encoding: 52 52 23
Width: 1245
VWidth: 2150
GlyphClass: 1
Flags: W
LayerCount: 2
Fore
SplineSet
1210.65039062 307.650390625 m 1,0,-1
 1034.25 307.650390625 l 1,1,-1
 1034.25 0 l 1,2,-1
 670.950195312 0 l 1,3,-1
 670.950195312 307.650390625 l 1,4,-1
 36.75 307.650390625 l 1,5,-1
 36.75 573.299804688 l 1,6,-1
 693 1535.09960938 l 1,7,-1
 1034.25 1535.09960938 l 1,8,-1
 1034.25 589.049804688 l 1,9,-1
 1210.65039062 589.049804688 l 1,10,-1
 1210.65039062 307.650390625 l 1,0,-1
670.950195312 589.049804688 m 1,11,-1
 670.950195312 808.5 l 2,12,13
 670.950195312 838.950195312 670.950195312 838.950195312 672 882.525390625 c 128,-1,14
 673.049804688 926.099609375 673.049804688 926.099609375 675.150390625 969.674804688 c 128,-1,15
 677.25 1013.25 677.25 1013.25 679.349609375 1045.79980469 c 128,-1,16
 681.450195312 1078.34960938 681.450195312 1078.34960938 682.5 1087.79980469 c 1,17,-1
 672 1087.79980469 l 1,18,19
 652.049804688 1042.65039062 652.049804688 1042.65039062 632.625 1006.95019531 c 128,-1,20
 613.200195312 971.25 613.200195312 971.25 584.849609375 928.200195312 c 2,21,-1
 359.099609375 589.049804688 l 1,22,-1
 670.950195312 589.049804688 l 1,11,-1
EndSplineSet
Validated: 1
Substitution2: "'onum' Oldstyle Figures lookup 33 subtable" four.tosf
Substitution2: "'pnum' Proportional Numbers lookup 31 subtable" four.lf
Substitution2: "'frac' Diagonal Fractions lookup 24 subtable" four.numr
Substitution2: "'dnom' Denominators lookup 22 subtable" four.dnom
Substitution2: "'numr' Numerators lookup 21 subtable" four.numr
Substitution2: "'sups' Superscript lookup 20 subtable" uni2074
Substitution2: "'subs' Subscript lookup 19 subtable" uni2084
AlternateSubs2: "'aalt' Access All Alternates lookup 1 subtable" uni2074 four.dnom four.lf four.numr four.tosf uni2084
EndChar
StartChar: seven
Encoding: 55 55 26
Width: 1245
VWidth: 2150
GlyphClass: 1
Flags: W
LayerCount: 2
Fore
SplineSet
228.900390625 0 m 1,0,-1
 781.200195312 1227.45019531 l 1,1,-1
 70.349609375 1227.45019531 l 1,2,-1
 70.349609375 1535.09960938 l 1,3,-1
 1174.95019531 1535.09960938 l 1,4,-1
 1174.95019531 1311.45019531 l 1,5,-1
 614.25 0 l 1,6,-1
 228.900390625 0 l 1,0,-1
EndSplineSet
Validated: 1
Substitution2: "'onum' Oldstyle Figures lookup 33 subtable" seven.tosf
Substitution2: "'pnum' Proportional Numbers lookup 31 subtable" seven.lf
Substitution2: "'frac' Diagonal Fractions lookup 24 subtable" seven.numr
Substitution2: "'dnom' Denominators lookup 22 subtable" seven.dnom
Substitution2: "'numr' Numerators lookup 21 subtable" seven.numr
Substitution2: "'sups' Superscript lookup 20 subtable" uni2077
Substitution2: "'subs' Subscript lookup 19 subtable" uni2087
AlternateSubs2: "'aalt' Access All Alternates lookup 1 subtable" uni2077 seven.dnom seven.lf seven.numr seven.tosf uni2087
EndChar
StartChar: semicolon
Encoding: 59 59 30
Width: 625
VWidth: 2150
GlyphClass: 1
Flags: W
LayerCount: 2
Fore
SplineSet
494.549804688 282.450195312 m 1,0,-1
 510.299804688 258.299804688 l 1,1,2
 491.400390625 181.650390625 491.400390625 181.650390625 461.474609375 84.525390625 c 128,-1,3
 431.549804688 -12.599609375 431.549804688 -12.599609375 396.375 -110.775390625 c 128,-1,4
 361.200195312 -208.950195312 361.200195312 -208.950195312 325.5 -287.700195312 c 1,5,-1
 63 -287.700195312 l 1,6,7
 84 -196.349609375 84 -196.349609375 103.950195312 -95.025390625 c 128,-1,8
 123.900390625 6.2998046875 123.900390625 6.2998046875 141.224609375 103.950195312 c 128,-1,9
 158.549804688 201.599609375 158.549804688 201.599609375 168 282.450195312 c 1,10,-1
 494.549804688 282.450195312 l 1,0,-1
110.25 1011.15039062 m 0,11,12
 110.25 1115.09960938 110.25 1115.09960938 169.575195312 1157.625 c 128,-1,13
 228.900390625 1200.15039062 228.900390625 1200.15039062 312.900390625 1200.15039062 c 0,14,15
 393.75 1200.15039062 393.75 1200.15039062 453.599609375 1157.625 c 128,-1,16
 513.450195312 1115.09960938 513.450195312 1115.09960938 513.450195312 1011.15039062 c 0,17,18
 513.450195312 909.299804688 513.450195312 909.299804688 453.599609375 865.200195312 c 128,-1,19
 393.75 821.099609375 393.75 821.099609375 312.900390625 821.099609375 c 0,20,21
 228.900390625 821.099609375 228.900390625 821.099609375 169.575195312 865.200195312 c 128,-1,22
 110.25 909.299804688 110.25 909.299804688 110.25 1011.15039062 c 0,11,12
EndSplineSet
Validated: 1
EndChar
StartChar: equal
Encoding: 61 61 32
Width: 1245
VWidth: 2150
GlyphClass: 1
Flags: W
LayerCount: 2
Fore
SplineSet
94.5 851.549804688 m 1,0,-1
 94.5 1106.70019531 l 1,1,-1
 1149.75 1106.70019531 l 1,2,-1
 1149.75 851.549804688 l 1,3,-1
 94.5 851.549804688 l 1,0,-1
94.5 407.400390625 m 1,4,-1
 94.5 664.650390625 l 1,5,-1
 1149.75 664.650390625 l 1,6,-1
 1149.75 407.400390625 l 1,7,-1
 94.5 407.400390625 l 1,4,-1
EndSplineSet
Validated: 1
Substitution2: "'sups' Superscript lookup 20 subtable" uni207C
Substitution2: "'subs' Subscript lookup 19 subtable" uni208C
AlternateSubs2: "'aalt' Access All Alternates lookup 1 subtable" uni207C uni208C
EndChar
StartChar: C
Encoding: 67 67 38
Width: 1382
VWidth: 2150
GlyphClass: 2
Flags: W
AnchorPoint: "Anchor-2" 1339.8 1535.1 basechar 0
AnchorPoint: "Anchor-1" 805.35 0 basechar 0
AnchorPoint: "Anchor-0" 798 1535.1 basechar 0
LayerCount: 2
Fore
SplineSet
847.349609375 1251.59960938 m 0,0,1
 764.400390625 1251.59960938 764.400390625 1251.59960938 699.299804688 1218 c 128,-1,2
 634.200195312 1184.40039062 634.200195312 1184.40039062 589.575195312 1120.875 c 128,-1,3
 544.950195312 1057.34960938 544.950195312 1057.34960938 521.325195312 967.049804688 c 128,-1,4
 497.700195312 876.75 497.700195312 876.75 497.700195312 762.299804688 c 0,5,6
 497.700195312 609 497.700195312 609 536.549804688 501.900390625 c 128,-1,7
 575.400390625 394.799804688 575.400390625 394.799804688 655.200195312 339.674804688 c 128,-1,8
 735 284.549804688 735 284.549804688 858.900390625 284.549804688 c 0,9,10
 957.599609375 284.549804688 957.599609375 284.549804688 1052.09960938 309.224609375 c 128,-1,11
 1146.59960938 333.900390625 1146.59960938 333.900390625 1249.5 372.75 c 1,12,-1
 1249.5 60.900390625 l 1,13,14
 1147.65039062 17.849609375 1147.65039062 17.849609375 1045.27539062 -1.5751953125 c 128,-1,15
 942.900390625 -21 942.900390625 -21 821.099609375 -21 c 0,16,17
 577.5 -21 577.5 -21 421.575195312 77.7001953125 c 128,-1,18
 265.650390625 176.400390625 265.650390625 176.400390625 191.625 353.325195312 c 128,-1,19
 117.599609375 530.25 117.599609375 530.25 117.599609375 764.400390625 c 0,20,21
 117.599609375 938.700195312 117.599609375 938.700195312 165.375 1083.59960938 c 128,-1,22
 213.150390625 1228.5 213.150390625 1228.5 306.075195312 1335.07519531 c 128,-1,23
 399 1441.65039062 399 1441.65039062 536.025390625 1499.40039062 c 128,-1,24
 673.049804688 1557.15039062 673.049804688 1557.15039062 849.450195312 1557.15039062 c 0,25,26
 962.849609375 1557.15039062 962.849609375 1557.15039062 1082.02539062 1529.84960938 c 128,-1,27
 1201.20019531 1502.54980469 1201.20019531 1502.54980469 1312.5 1449 c 1,28,-1
 1195.95019531 1153.95019531 l 1,29,30
 1110.90039062 1193.84960938 1110.90039062 1193.84960938 1024.27539062 1222.72460938 c 128,-1,31
 937.650390625 1251.59960938 937.650390625 1251.59960938 847.349609375 1251.59960938 c 0,0,1
EndSplineSet
Validated: 1
EndChar
StartChar: E
Encoding: 69 69 40
Width: 1192
VWidth: 2150
GlyphClass: 2
Flags: W
AnchorPoint: "Anchor-2" 1149.75 1535.1 basechar 0
AnchorPoint: "Anchor-1" 643.65 0 basechar 0
AnchorPoint: "Anchor-0" 634.2 1535.1 basechar 0
LayerCount: 2
Fore
SplineSet
1077.29980469 0 m 1,0,-1
 179.549804688 0 l 1,1,-1
 179.549804688 1535.09960938 l 1,2,-1
 1077.29980469 1535.09960938 l 1,3,-1
 1077.29980469 1235.84960938 l 1,4,-1
 550.200195312 1235.84960938 l 1,5,-1
 550.200195312 946.049804688 l 1,6,-1
 1039.5 946.049804688 l 1,7,-1
 1039.5 646.799804688 l 1,8,-1
 550.200195312 646.799804688 l 1,9,-1
 550.200195312 303.450195312 l 1,10,-1
 1077.29980469 303.450195312 l 1,11,-1
 1077.29980469 0 l 1,0,-1
EndSplineSet
Validated: 1
EndChar
StartChar: G
Encoding: 71 71 42
Width: 1575
VWidth: 2150
GlyphClass: 2
Flags: W
AnchorPoint: "Anchor-2" 1531.95 1535.1 basechar 0
AnchorPoint: "Anchor-1" 828.45 0 basechar 0
AnchorPoint: "Anchor-0" 861 1535.1 basechar 0
LayerCount: 2
Fore
SplineSet
779.099609375 880.950195312 m 1,0,-1
 1415.40039062 880.950195312 l 1,1,-1
 1415.40039062 69.2998046875 l 1,2,3
 1295.70019531 28.349609375 1295.70019531 28.349609375 1153.95019531 3.6748046875 c 128,-1,4
 1012.20019531 -21 1012.20019531 -21 845.25 -21 c 0,5,6
 620.549804688 -21 620.549804688 -21 457.275390625 67.2001953125 c 128,-1,7
 294 155.400390625 294 155.400390625 205.799804688 331.799804688 c 128,-1,8
 117.599609375 508.200195312 117.599609375 508.200195312 117.599609375 770.700195312 c 0,9,10
 117.599609375 1012.20019531 117.599609375 1012.20019531 210 1188.59960938 c 128,-1,11
 302.400390625 1365 302.400390625 1365 481.950195312 1461.07519531 c 128,-1,12
 661.5 1557.15039062 661.5 1557.15039062 921.900390625 1557.15039062 c 0,13,14
 1054.20019531 1557.15039062 1054.20019531 1557.15039062 1178.09960938 1530.375 c 128,-1,15
 1302 1503.59960938 1302 1503.59960938 1398.59960938 1461.59960938 c 1,16,-1
 1278.90039062 1168.65039062 l 1,17,18
 1202.25 1207.5 1202.25 1207.5 1112.47460938 1229.54980469 c 128,-1,19
 1022.70019531 1251.59960938 1022.70019531 1251.59960938 921.900390625 1251.59960938 c 0,20,21
 782.25 1251.59960938 782.25 1251.59960938 688.275390625 1188.07519531 c 128,-1,22
 594.299804688 1124.54980469 594.299804688 1124.54980469 546.525390625 1014.29980469 c 128,-1,23
 498.75 904.049804688 498.75 904.049804688 498.75 762.299804688 c 0,24,25
 498.75 616.349609375 498.75 616.349609375 539.700195312 509.25 c 128,-1,26
 580.650390625 402.150390625 580.650390625 402.150390625 663.599609375 343.875 c 128,-1,27
 746.549804688 285.599609375 746.549804688 285.599609375 873.599609375 285.599609375 c 0,28,29
 926.099609375 285.599609375 926.099609375 285.599609375 976.5 291.375 c 128,-1,30
 1026.90039062 297.150390625 1026.90039062 297.150390625 1061.54980469 304.5 c 1,31,-1
 1061.54980469 584.849609375 l 1,32,-1
 779.099609375 584.849609375 l 1,33,-1
 779.099609375 880.950195312 l 1,0,-1
EndSplineSet
Validated: 1
EndChar
StartChar: H
Encoding: 72 72 43
Width: 1646
VWidth: 2150
GlyphClass: 2
Flags: W
AnchorPoint: "Anchor-3" 823.2 767.55 basechar 0
AnchorPoint: "Anchor-2" 1603.35 1535.1 basechar 0
AnchorPoint: "Anchor-1" 819 0 basechar 0
AnchorPoint: "Anchor-0" 823.2 1535.1 basechar 0
LayerCount: 2
Fore
SplineSet
1466.84960938 0 m 1,0,-1
 1096.20019531 0 l 1,1,-1
 1096.20019531 644.700195312 l 1,2,-1
 551.25 644.700195312 l 1,3,-1
 551.25 0 l 1,4,-1
 179.549804688 0 l 1,5,-1
 179.549804688 1535.09960938 l 1,6,-1
 551.25 1535.09960938 l 1,7,-1
 551.25 950.25 l 1,8,-1
 1096.20019531 950.25 l 1,9,-1
 1096.20019531 1535.09960938 l 1,10,-1
 1466.84960938 1535.09960938 l 1,11,-1
 1466.84960938 0 l 1,0,-1
EndSplineSet
Validated: 1
EndChar
StartChar: J
Encoding: 74 74 45
Width: 735
VWidth: 2150
GlyphClass: 2
Flags: W
AnchorPoint: "Anchor-2" 691.95 1535.1 basechar 0
AnchorPoint: "Anchor-1" 38.8496 -423.15 basechar 0
AnchorPoint: "Anchor-0" 367.5 1535.1 basechar 0
LayerCount: 2
Fore
SplineSet
38.849609375 -466.200195312 m 0,0,1
 -27.2998046875 -466.200195312 -27.2998046875 -466.200195312 -77.7001953125 -459.375 c 128,-1,2
 -128.099609375 -452.549804688 -128.099609375 -452.549804688 -164.849609375 -444.150390625 c 1,3,-1
 -164.849609375 -147 l 1,4,5
 -131.25 -154.349609375 -131.25 -154.349609375 -92.9248046875 -161.700195312 c 128,-1,6
 -54.599609375 -169.049804688 -54.599609375 -169.049804688 -11.5498046875 -169.049804688 c 0,7,8
 54.599609375 -169.049804688 54.599609375 -169.049804688 97.650390625 -142.799804688 c 128,-1,9
 140.700195312 -116.549804688 140.700195312 -116.549804688 162.224609375 -56.1748046875 c 128,-1,10
 183.75 4.2001953125 183.75 4.2001953125 183.75 106.049804688 c 2,11,-1
 183.75 1535.09960938 l 1,12,-1
 555.450195312 1535.09960938 l 1,13,-1
 555.450195312 124.950195312 l 2,14,15
 555.450195312 -89.25 555.450195312 -89.25 489.825195312 -219.450195312 c 128,-1,16
 424.200195312 -349.650390625 424.200195312 -349.650390625 308.174804688 -407.924804688 c 128,-1,17
 192.150390625 -466.200195312 192.150390625 -466.200195312 38.849609375 -466.200195312 c 0,0,1
EndSplineSet
Validated: 1
Substitution2: "'ss03' Style Set 3 lookup 37 subtable" J.salt
Substitution2: "'aalt' Access All Alternates lookup 0 subtable" J.salt
EndChar
StartChar: K
Encoding: 75 75 46
Width: 1453
VWidth: 2150
GlyphClass: 2
Flags: W
AnchorPoint: "Anchor-2" 1410.15 1535.1 basechar 0
AnchorPoint: "Anchor-1" 761.25 0 basechar 0
AnchorPoint: "Anchor-0" 767.55 1535.1 basechar 0
LayerCount: 2
Fore
SplineSet
1453.20019531 0 m 1,0,-1
 1034.25 0 l 1,1,-1
 681.450195312 617.400390625 l 1,2,-1
 551.25 531.299804688 l 1,3,-1
 551.25 0 l 1,4,-1
 179.549804688 0 l 1,5,-1
 179.549804688 1535.09960938 l 1,6,-1
 551.25 1535.09960938 l 1,7,-1
 551.25 850.5 l 1,8,9
 580.650390625 898.799804688 580.650390625 898.799804688 613.200195312 946.575195312 c 128,-1,10
 645.75 994.349609375 645.75 994.349609375 678.299804688 1039.5 c 2,11,-1
 1047.90039062 1535.09960938 l 1,12,-1
 1455.29980469 1535.09960938 l 1,13,-1
 945 851.549804688 l 1,14,-1
 1453.20019531 0 l 1,0,-1
EndSplineSet
Validated: 1
EndChar
StartChar: M
Encoding: 77 77 48
Width: 2053
VWidth: 2150
GlyphClass: 2
Flags: W
AnchorPoint: "Anchor-2" 2010.75 1535.1 basechar 0
AnchorPoint: "Anchor-1" 1017.45 0 basechar 0
AnchorPoint: "Anchor-0" 1030.05 1535.1 basechar 0
LayerCount: 2
Fore
SplineSet
838.950195312 0 m 1,0,-1
 497.700195312 1155 l 1,1,-1
 488.25 1155 l 1,2,3
 491.400390625 1111.95019531 491.400390625 1111.95019531 496.125 1032.15039062 c 128,-1,4
 500.849609375 952.349609375 500.849609375 952.349609375 505.049804688 861 c 128,-1,5
 509.25 769.650390625 509.25 769.650390625 509.25 690.900390625 c 2,6,-1
 509.25 0 l 1,7,-1
 179.549804688 0 l 1,8,-1
 179.549804688 1535.09960938 l 1,9,-1
 677.25 1535.09960938 l 1,10,-1
 1019.54980469 403.200195312 l 1,11,-1
 1026.90039062 403.200195312 l 1,12,-1
 1376.54980469 1535.09960938 l 1,13,-1
 1874.25 1535.09960938 l 1,14,-1
 1874.25 0 l 1,15,-1
 1531.95019531 0 l 1,16,-1
 1531.95019531 700.349609375 l 2,17,18
 1531.95019531 772.799804688 1531.95019531 772.799804688 1534.57519531 861.525390625 c 128,-1,19
 1537.20019531 950.25 1537.20019531 950.25 1541.40039062 1030.04980469 c 128,-1,20
 1545.59960938 1109.84960938 1545.59960938 1109.84960938 1547.70019531 1152.90039062 c 1,21,-1
 1538.25 1152.90039062 l 1,22,-1
 1185.45019531 0 l 1,23,-1
 838.950195312 0 l 1,0,-1
EndSplineSet
Validated: 1
EndChar
StartChar: P
Encoding: 80 80 51
Width: 1354
VWidth: 2150
GlyphClass: 2
Flags: W
AnchorPoint: "Anchor-2" 1311.45 1535.1 basechar 0
AnchorPoint: "Anchor-1" 677.25 0 basechar 0
AnchorPoint: "Anchor-0" 699.3 1535.1 basechar 0
LayerCount: 2
Fore
SplineSet
690.900390625 1535.09960938 m 2,0,1
 984.900390625 1535.09960938 984.900390625 1535.09960938 1126.125 1408.04980469 c 128,-1,2
 1267.34960938 1281 1267.34960938 1281 1267.34960938 1052.09960938 c 0,3,4
 1267.34960938 949.200195312 1267.34960938 949.200195312 1236.90039062 854.700195312 c 128,-1,5
 1206.45019531 760.200195312 1206.45019531 760.200195312 1138.20019531 686.700195312 c 128,-1,6
 1069.95019531 613.200195312 1069.95019531 613.200195312 957.075195312 570.674804688 c 128,-1,7
 844.200195312 528.150390625 844.200195312 528.150390625 678.299804688 528.150390625 c 2,8,-1
 550.200195312 528.150390625 l 1,9,-1
 550.200195312 0 l 1,10,-1
 179.549804688 0 l 1,11,-1
 179.549804688 1535.09960938 l 1,12,-1
 690.900390625 1535.09960938 l 2,0,1
677.25 1234.79980469 m 2,13,-1
 550.200195312 1234.79980469 l 1,14,-1
 550.200195312 830.549804688 l 1,15,-1
 644.700195312 830.549804688 l 2,16,17
 717.150390625 830.549804688 717.150390625 830.549804688 773.849609375 851.549804688 c 128,-1,18
 830.549804688 872.549804688 830.549804688 872.549804688 862.575195312 919.275390625 c 128,-1,19
 894.599609375 966 894.599609375 966 894.599609375 1040.54980469 c 0,20,21
 894.599609375 1134 894.599609375 1134 841.575195312 1184.40039062 c 128,-1,22
 788.549804688 1234.79980469 788.549804688 1234.79980469 677.25 1234.79980469 c 2,13,-1
EndSplineSet
Validated: 1
EndChar
StartChar: Q
Encoding: 81 81 52
Width: 1712
VWidth: 2150
GlyphClass: 2
Flags: W
AnchorPoint: "Anchor-2" 1669.5 1535.1 basechar 0
AnchorPoint: "Anchor-1" 856.8 -365.4 basechar 0
AnchorPoint: "Anchor-0" 856.8 1535.1 basechar 0
LayerCount: 2
Fore
SplineSet
1594.95019531 769.650390625 m 0,0,1
 1594.95019531 604.799804688 1594.95019531 604.799804688 1557.67480469 465.674804688 c 128,-1,2
 1520.40039062 326.549804688 1520.40039062 326.549804688 1441.65039062 222.599609375 c 128,-1,3
 1362.90039062 118.650390625 1362.90039062 118.650390625 1240.04980469 56.7001953125 c 1,4,-1
 1611.75 -365.400390625 l 1,5,-1
 1145.54980469 -365.400390625 l 1,6,-1
 875.700195312 -21 l 2,7,8
 871.5 -21 871.5 -21 865.724609375 -21 c 128,-1,9
 859.950195312 -21 859.950195312 -21 855.75 -21 c 0,10,11
 665.700195312 -21 665.700195312 -21 526.049804688 35.1748046875 c 128,-1,12
 386.400390625 91.349609375 386.400390625 91.349609375 296.099609375 196.349609375 c 128,-1,13
 205.799804688 301.349609375 205.799804688 301.349609375 161.700195312 447.299804688 c 128,-1,14
 117.599609375 593.25 117.599609375 593.25 117.599609375 771.75 c 0,15,16
 117.599609375 1011.15039062 117.599609375 1011.15039062 196.349609375 1188.07519531 c 128,-1,17
 275.099609375 1365 275.099609375 1365 439.424804688 1462.125 c 128,-1,18
 603.75 1559.25 603.75 1559.25 857.849609375 1559.25 c 0,19,20
 1114.04980469 1559.25 1114.04980469 1559.25 1276.79980469 1461.59960938 c 128,-1,21
 1439.54980469 1363.95019531 1439.54980469 1363.95019531 1517.25 1186.5 c 128,-1,22
 1594.95019531 1009.04980469 1594.95019531 1009.04980469 1594.95019531 769.650390625 c 0,0,1
506.099609375 769.650390625 m 0,23,24
 506.099609375 620.549804688 506.099609375 620.549804688 542.325195312 512.400390625 c 128,-1,25
 578.549804688 404.25 578.549804688 404.25 655.724609375 346.5 c 128,-1,26
 732.900390625 288.75 732.900390625 288.75 855.75 288.75 c 0,27,28
 982.799804688 288.75 982.799804688 288.75 1059.45019531 346.5 c 128,-1,29
 1136.09960938 404.25 1136.09960938 404.25 1170.75 512.400390625 c 128,-1,30
 1205.40039062 620.549804688 1205.40039062 620.549804688 1205.40039062 769.650390625 c 0,31,32
 1205.40039062 994.349609375 1205.40039062 994.349609375 1125.59960938 1124.02539062 c 128,-1,33
 1045.79980469 1253.70019531 1045.79980469 1253.70019531 857.849609375 1253.70019531 c 0,34,35
 732.900390625 1253.70019531 732.900390625 1253.70019531 655.200195312 1195.42480469 c 128,-1,36
 577.5 1137.15039062 577.5 1137.15039062 541.799804688 1028.47460938 c 128,-1,37
 506.099609375 919.799804688 506.099609375 919.799804688 506.099609375 769.650390625 c 0,23,24
EndSplineSet
Validated: 1
EndChar
StartChar: T
Encoding: 84 84 55
Width: 1257
VWidth: 2150
GlyphClass: 2
Flags: W
AnchorPoint: "Anchor-3" 630 767.55 basechar 0
AnchorPoint: "Anchor-2" 1214.85 1535.1 basechar 0
AnchorPoint: "Anchor-1" 630 0 basechar 0
AnchorPoint: "Anchor-0" 630 1535.1 basechar 0
LayerCount: 2
Fore
SplineSet
814.799804688 0 m 1,0,-1
 444.150390625 0 l 1,1,-1
 444.150390625 1230.59960938 l 1,2,-1
 48.2998046875 1230.59960938 l 1,3,-1
 48.2998046875 1535.09960938 l 1,4,-1
 1209.59960938 1535.09960938 l 1,5,-1
 1209.59960938 1230.59960938 l 1,6,-1
 814.799804688 1230.59960938 l 1,7,-1
 814.799804688 0 l 1,0,-1
EndSplineSet
Validated: 1
EndChar
StartChar: Y
Encoding: 89 89 60
Width: 1384
VWidth: 2150
GlyphClass: 2
Flags: W
AnchorPoint: "Anchor-2" 1341.9 1535.1 basechar 0
AnchorPoint: "Anchor-1" 693 0 basechar 0
AnchorPoint: "Anchor-0" 693 1535.1 basechar 0
LayerCount: 2
Fore
SplineSet
693 934.5 m 1,0,-1
 984.900390625 1535.09960938 l 1,1,-1
 1384.95019531 1535.09960938 l 1,2,-1
 877.799804688 598.5 l 1,3,-1
 877.799804688 0 l 1,4,-1
 507.150390625 0 l 1,5,-1
 507.150390625 586.950195312 l 1,6,-1
 0 1535.09960938 l 1,7,-1
 402.150390625 1535.09960938 l 1,8,-1
 693 934.5 l 1,0,-1
EndSplineSet
Validated: 1
EndChar
StartChar: Z
Encoding: 90 90 61
Width: 1279
VWidth: 2150
GlyphClass: 2
Flags: W
AnchorPoint: "Anchor-2" 1236.9 1535.1 basechar 0
AnchorPoint: "Anchor-1" 668.85 0 basechar 0
AnchorPoint: "Anchor-0" 656.25 1535.1 basechar 0
LayerCount: 2
Fore
SplineSet
1227.45019531 0 m 1,0,-1
 57.75 0 l 1,1,-1
 57.75 234.150390625 l 1,2,-1
 758.099609375 1233.75 l 1,3,-1
 75.599609375 1233.75 l 1,4,-1
 75.599609375 1535.09960938 l 1,5,-1
 1208.54980469 1535.09960938 l 1,6,-1
 1208.54980469 1303.04980469 l 1,7,-1
 509.25 302.400390625 l 1,8,-1
 1227.45019531 302.400390625 l 1,9,-1
 1227.45019531 0 l 1,0,-1
EndSplineSet
Validated: 1
EndChar
StartChar: bracketleft
Encoding: 91 91 62
Width: 704
VWidth: 2150
GlyphClass: 1
Flags: W
LayerCount: 2
Fore
SplineSet
653.099609375 -350.700195312 m 1,0,-1
 136.5 -350.700195312 l 1,1,-1
 136.5 1557.15039062 l 1,2,-1
 653.099609375 1557.15039062 l 1,3,-1
 653.099609375 1312.5 l 1,4,-1
 439.950195312 1312.5 l 1,5,-1
 439.950195312 -106.049804688 l 1,6,-1
 653.099609375 -106.049804688 l 1,7,-1
 653.099609375 -350.700195312 l 1,0,-1
EndSplineSet
Validated: 1
EndChar
StartChar: backslash
Encoding: 92 92 63
Width: 919
VWidth: 2150
GlyphClass: 1
Flags: W
LayerCount: 2
Fore
SplineSet
337.049804688 1546.65039062 m 1,0,-1
 909.299804688 -10.5 l 1,1,-1
 581.700195312 -10.5 l 1,2,-1
 9.4501953125 1546.65039062 l 1,3,-1
 337.049804688 1546.65039062 l 1,0,-1
EndSplineSet
Validated: 1
EndChar
StartChar: bracketright
Encoding: 93 93 64
Width: 704
VWidth: 2150
GlyphClass: 1
Flags: W
LayerCount: 2
Fore
SplineSet
51.4501953125 -106.049804688 m 1,0,-1
 264.599609375 -106.049804688 l 1,1,-1
 264.599609375 1312.5 l 1,2,-1
 51.4501953125 1312.5 l 1,3,-1
 51.4501953125 1557.15039062 l 1,4,-1
 568.049804688 1557.15039062 l 1,5,-1
 568.049804688 -350.700195312 l 1,6,-1
 51.4501953125 -350.700195312 l 1,7,-1
 51.4501953125 -106.049804688 l 1,0,-1
EndSplineSet
Validated: 1
EndChar
StartChar: underscore
Encoding: 95 95 66
Width: 979
VWidth: 2150
GlyphClass: 1
Flags: W
LayerCount: 2
Fore
SplineSet
983.849609375 -368.549804688 m 1,0,-1
 -4.2001953125 -368.549804688 l 1,1,-1
 -4.2001953125 -165.900390625 l 1,2,-1
 983.849609375 -165.900390625 l 1,3,-1
 983.849609375 -368.549804688 l 1,0,-1
EndSplineSet
Validated: 1
EndChar
StartChar: grave
Encoding: 96 96 67
Width: 838
VWidth: 2150
GlyphClass: 1
Flags: W
LayerCount: 2
Fore
SplineSet
491.400390625 1647.45019531 m 1,0,1
 526.049804688 1599.15039062 526.049804688 1599.15039062 573.825195312 1540.875 c 128,-1,2
 621.599609375 1482.59960938 621.599609375 1482.59960938 669.900390625 1427.47460938 c 128,-1,3
 718.200195312 1372.34960938 718.200195312 1372.34960938 752.849609375 1332.45019531 c 1,4,-1
 752.849609375 1303.04980469 l 1,5,-1
 510.299804688 1303.04980469 l 1,6,7
 467.25 1331.40039062 467.25 1331.40039062 409.5 1373.40039062 c 128,-1,8
 351.75 1415.40039062 351.75 1415.40039062 290.325195312 1462.125 c 128,-1,9
 228.900390625 1508.84960938 228.900390625 1508.84960938 174.825195312 1552.42480469 c 128,-1,10
 120.75 1596 120.75 1596 86.099609375 1625.40039062 c 1,11,-1
 86.099609375 1647.45019531 l 1,12,-1
 491.400390625 1647.45019531 l 1,0,1
EndSplineSet
Validated: 1
EndChar
StartChar: b
Encoding: 98 98 69
Width: 1372
VWidth: 2150
GlyphClass: 2
Flags: W
AnchorPoint: "Anchor-2" 1210.65 1633.8 basechar 0
AnchorPoint: "Anchor-1" 716.1 0 basechar 0
AnchorPoint: "Anchor-0" 702.45 1633.8 basechar 0
LayerCount: 2
Fore
SplineSet
520.799804688 1633.79980469 m 1,0,-1
 520.799804688 1258.95019531 l 2,1,2
 520.799804688 1194.90039062 520.799804688 1194.90039062 516.599609375 1133.47460938 c 128,-1,3
 512.400390625 1072.04980469 512.400390625 1072.04980469 507.150390625 1029 c 1,4,-1
 520.799804688 1029 l 1,5,6
 567 1101.45019531 567 1101.45019531 644.174804688 1152.375 c 128,-1,7
 721.349609375 1203.29980469 721.349609375 1203.29980469 845.25 1203.29980469 c 0,8,9
 1036.34960938 1203.29980469 1036.34960938 1203.29980469 1157.09960938 1047.375 c 128,-1,10
 1277.84960938 891.450195312 1277.84960938 891.450195312 1277.84960938 593.25 c 0,11,12
 1277.84960938 391.650390625 1277.84960938 391.650390625 1222.20019531 254.625 c 128,-1,13
 1166.54980469 117.599609375 1166.54980469 117.599609375 1066.27539062 48.2998046875 c 128,-1,14
 966 -21 966 -21 834.75 -21 c 0,15,16
 706.650390625 -21 706.650390625 -21 636.825195312 24.150390625 c 128,-1,17
 567 69.2998046875 567 69.2998046875 520.799804688 122.849609375 c 1,18,-1
 496.650390625 122.849609375 l 1,19,-1
 437.849609375 0 l 1,20,-1
 155.400390625 0 l 1,21,-1
 155.400390625 1633.79980469 l 1,22,-1
 520.799804688 1633.79980469 l 1,0,-1
718.200195312 914.549804688 m 0,23,24
 647.849609375 914.549804688 647.849609375 914.549804688 604.799804688 884.099609375 c 128,-1,25
 561.75 853.650390625 561.75 853.650390625 541.799804688 791.174804688 c 128,-1,26
 521.849609375 728.700195312 521.849609375 728.700195312 520.799804688 633.150390625 c 2,27,-1
 520.799804688 586.950195312 l 2,28,29
 520.799804688 432.599609375 520.799804688 432.599609375 564.375 353.325195312 c 128,-1,30
 607.950195312 274.049804688 607.950195312 274.049804688 722.400390625 274.049804688 c 0,31,32
 808.5 274.049804688 808.5 274.049804688 856.799804688 357 c 128,-1,33
 905.099609375 439.950195312 905.099609375 439.950195312 905.099609375 597.450195312 c 256,34,35
 905.099609375 754.950195312 905.099609375 754.950195312 856.799804688 834.75 c 128,-1,36
 808.5 914.549804688 808.5 914.549804688 718.200195312 914.549804688 c 0,23,24
EndSplineSet
Validated: 1
EndChar
StartChar: g
Encoding: 103 103 74
Width: 1258
VWidth: 2150
GlyphClass: 2
Flags: W
AnchorPoint: "Anchor-2" 1268.4 1182.3 basechar 0
AnchorPoint: "Anchor-1" 614.25 -516.6 basechar 0
AnchorPoint: "Anchor-0" 599.55 1182.3 basechar 0
LayerCount: 2
Fore
SplineSet
530.25 -516.599609375 m 0,0,1
 280.349609375 -516.599609375 280.349609375 -516.599609375 147 -431.549804688 c 128,-1,2
 13.650390625 -346.5 13.650390625 -346.5 13.650390625 -190.049804688 c 0,3,4
 13.650390625 -84 13.650390625 -84 79.7998046875 -13.650390625 c 128,-1,5
 145.950195312 56.7001953125 145.950195312 56.7001953125 276.150390625 87.150390625 c 1,6,7
 224.700195312 109.200195312 224.700195312 109.200195312 185.849609375 159.075195312 c 128,-1,8
 147 208.950195312 147 208.950195312 147 260.400390625 c 0,9,10
 147 322.349609375 147 322.349609375 181.650390625 365.924804688 c 128,-1,11
 216.299804688 409.5 216.299804688 409.5 301.349609375 459.900390625 c 1,12,13
 208.950195312 500.849609375 208.950195312 500.849609375 155.400390625 588.525390625 c 128,-1,14
 101.849609375 676.200195312 101.849609375 676.200195312 101.849609375 798 c 0,15,16
 101.849609375 927.150390625 101.849609375 927.150390625 159.599609375 1017.45019531 c 128,-1,17
 217.349609375 1107.75 217.349609375 1107.75 328.125 1155.52539062 c 128,-1,18
 438.900390625 1203.29980469 438.900390625 1203.29980469 598.5 1203.29980469 c 0,19,20
 625.799804688 1203.29980469 625.799804688 1203.29980469 669.900390625 1199.625 c 128,-1,21
 714 1195.95019531 714 1195.95019531 754.950195312 1190.70019531 c 128,-1,22
 795.900390625 1185.45019531 795.900390625 1185.45019531 814.799804688 1182.29980469 c 2,23,-1
 1227.45019531 1182.29980469 l 1,24,-1
 1227.45019531 1001.70019531 l 1,25,-1
 1054.20019531 948.150390625 l 1,26,27
 1075.20019531 913.5 1075.20019531 913.5 1085.70019531 873.599609375 c 128,-1,28
 1096.20019531 833.700195312 1096.20019531 833.700195312 1096.20019531 788.549804688 c 0,29,30
 1096.20019531 598.5 1096.20019531 598.5 962.849609375 492.450195312 c 128,-1,31
 829.5 386.400390625 829.5 386.400390625 578.549804688 386.400390625 c 0,32,33
 517.650390625 388.5 517.650390625 388.5 473.549804688 394.799804688 c 1,34,35
 457.799804688 379.049804688 457.799804688 379.049804688 449.400390625 361.724609375 c 128,-1,36
 441 344.400390625 441 344.400390625 441 327.599609375 c 0,37,38
 441 303.450195312 441 303.450195312 465.150390625 288.75 c 128,-1,39
 489.299804688 274.049804688 489.299804688 274.049804688 529.724609375 267.75 c 128,-1,40
 570.150390625 261.450195312 570.150390625 261.450195312 618.450195312 261.450195312 c 2,41,-1
 816.900390625 261.450195312 l 2,42,43
 1014.29980469 261.450195312 1014.29980469 261.450195312 1114.57519531 177.974609375 c 128,-1,44
 1214.84960938 94.5 1214.84960938 94.5 1214.84960938 -70.349609375 c 0,45,46
 1214.84960938 -282.450195312 1214.84960938 -282.450195312 1036.34960938 -399.525390625 c 128,-1,47
 857.849609375 -516.599609375 857.849609375 -516.599609375 530.25 -516.599609375 c 0,0,1
547.049804688 -283.5 m 0,48,49
 641.549804688 -283.5 641.549804688 -283.5 720.299804688 -266.174804688 c 128,-1,50
 799.049804688 -248.849609375 799.049804688 -248.849609375 846.825195312 -214.724609375 c 128,-1,51
 894.599609375 -180.599609375 894.599609375 -180.599609375 894.599609375 -129.150390625 c 0,52,53
 894.599609375 -88.2001953125 894.599609375 -88.2001953125 866.775390625 -66.150390625 c 128,-1,54
 838.950195312 -44.099609375 838.950195312 -44.099609375 788.549804688 -35.7001953125 c 128,-1,55
 738.150390625 -27.2998046875 738.150390625 -27.2998046875 670.950195312 -27.2998046875 c 2,56,-1
 508.200195312 -27.2998046875 l 2,57,58
 456.75 -27.2998046875 456.75 -27.2998046875 415.275390625 -44.099609375 c 128,-1,59
 373.799804688 -60.900390625 373.799804688 -60.900390625 349.650390625 -89.775390625 c 128,-1,60
 325.5 -118.650390625 325.5 -118.650390625 325.5 -156.450195312 c 0,61,62
 325.5 -215.25 325.5 -215.25 384.825195312 -249.375 c 128,-1,63
 444.150390625 -283.5 444.150390625 -283.5 547.049804688 -283.5 c 0,48,49
600.599609375 600.599609375 m 0,64,65
 675.150390625 600.599609375 675.150390625 600.599609375 711.900390625 651 c 128,-1,66
 748.650390625 701.400390625 748.650390625 701.400390625 748.650390625 793.799804688 c 0,67,68
 748.650390625 893.549804688 748.650390625 893.549804688 711.900390625 942.900390625 c 128,-1,69
 675.150390625 992.25 675.150390625 992.25 600.599609375 992.25 c 0,70,71
 523.950195312 992.25 523.950195312 992.25 486.150390625 942.900390625 c 128,-1,72
 448.349609375 893.549804688 448.349609375 893.549804688 448.349609375 794.849609375 c 0,73,74
 448.349609375 701.400390625 448.349609375 701.400390625 486.150390625 651 c 128,-1,75
 523.950195312 600.599609375 523.950195312 600.599609375 600.599609375 600.599609375 c 0,64,65
EndSplineSet
Validated: 1
Substitution2: "'ss02' Style Set 2 lookup 36 subtable" g.salt
Substitution2: "'aalt' Access All Alternates lookup 0 subtable" g.salt
EndChar
StartChar: h
Encoding: 104 104 75
Width: 1426
VWidth: 2150
GlyphClass: 2
Flags: W
AnchorPoint: "Anchor-3" 714 591.15 basechar 0
AnchorPoint: "Anchor-2" 1253.7 1633.8 basechar 0
AnchorPoint: "Anchor-1" 721.35 0 basechar 0
AnchorPoint: "Anchor-0" 343.35 1633.8 basechar 0
LayerCount: 2
Fore
SplineSet
520.799804688 1633.79980469 m 1,0,-1
 520.799804688 1351.34960938 l 2,1,2
 520.799804688 1242.15039062 520.799804688 1242.15039062 515.025390625 1157.625 c 128,-1,3
 509.25 1073.09960938 509.25 1073.09960938 505.049804688 1033.20019531 c 1,4,-1
 522.900390625 1033.20019531 l 1,5,6
 560.700195312 1095.15039062 560.700195312 1095.15039062 611.625 1132.42480469 c 128,-1,7
 662.549804688 1169.70019531 662.549804688 1169.70019531 723.974609375 1186.5 c 128,-1,8
 785.400390625 1203.29980469 785.400390625 1203.29980469 856.799804688 1203.29980469 c 0,9,10
 978.599609375 1203.29980469 978.599609375 1203.29980469 1073.625 1158.67480469 c 128,-1,11
 1168.65039062 1114.04980469 1168.65039062 1114.04980469 1223.25 1018.5 c 128,-1,12
 1277.84960938 922.950195312 1277.84960938 922.950195312 1277.84960938 769.650390625 c 2,13,-1
 1277.84960938 0 l 1,14,-1
 911.400390625 0 l 1,15,-1
 911.400390625 667.799804688 l 2,16,17
 911.400390625 789.599609375 911.400390625 789.599609375 870.974609375 852.075195312 c 128,-1,18
 830.549804688 914.549804688 830.549804688 914.549804688 745.5 914.549804688 c 256,19,20
 660.450195312 914.549804688 660.450195312 914.549804688 611.099609375 870.974609375 c 128,-1,21
 561.75 827.400390625 561.75 827.400390625 541.275390625 743.400390625 c 128,-1,22
 520.799804688 659.400390625 520.799804688 659.400390625 520.799804688 537.599609375 c 2,23,-1
 520.799804688 0 l 1,24,-1
 155.400390625 0 l 1,25,-1
 155.400390625 1633.79980469 l 1,26,-1
 520.799804688 1633.79980469 l 1,0,-1
EndSplineSet
Validated: 1
Substitution2: "'subs' Subscript lookup 19 subtable" uni2095
Substitution2: "'aalt' Access All Alternates lookup 0 subtable" uni2095
EndChar
StartChar: l
Encoding: 108 108 79
Width: 676
VWidth: 2150
GlyphClass: 2
Flags: W
AnchorPoint: "Anchor-3" 339.15 591.15 basechar 0
AnchorPoint: "Anchor-2" 565.95 1633.8 basechar 0
AnchorPoint: "Anchor-1" 339.15 0 basechar 0
AnchorPoint: "Anchor-0" 339.15 1633.8 basechar 0
LayerCount: 2
Fore
SplineSet
520.799804688 0 m 1,0,-1
 155.400390625 0 l 1,1,-1
 155.400390625 1633.79980469 l 1,2,-1
 520.799804688 1633.79980469 l 1,3,-1
 520.799804688 0 l 1,0,-1
EndSplineSet
Validated: 1
Substitution2: "'subs' Subscript lookup 19 subtable" uni2097
Substitution2: "'aalt' Access All Alternates lookup 0 subtable" uni2097
EndChar
StartChar: o
Encoding: 111 111 82
Width: 1351
VWidth: 2150
GlyphClass: 2
Flags: W
AnchorPoint: "Anchor-3" 676.2 591.15 basechar 0
AnchorPoint: "Anchor-2" 1308.3 1182.3 basechar 0
AnchorPoint: "Anchor-1" 674.1 0 basechar 0
AnchorPoint: "Anchor-0" 676.2 1182.3 basechar 0
LayerCount: 2
Fore
SplineSet
1256.84960938 593.25 m 0,0,1
 1256.84960938 445.200195312 1256.84960938 445.200195312 1216.42480469 330.75 c 128,-1,2
 1176 216.299804688 1176 216.299804688 1099.875 138.075195312 c 128,-1,3
 1023.75 59.849609375 1023.75 59.849609375 915.599609375 19.4248046875 c 128,-1,4
 807.450195312 -21 807.450195312 -21 672 -21 c 0,5,6
 546 -21 546 -21 440.474609375 19.4248046875 c 128,-1,7
 334.950195312 59.849609375 334.950195312 59.849609375 256.724609375 138.075195312 c 128,-1,8
 178.5 216.299804688 178.5 216.299804688 135.974609375 330.75 c 128,-1,9
 93.4501953125 445.200195312 93.4501953125 445.200195312 93.4501953125 593.25 c 0,10,11
 93.4501953125 789.599609375 93.4501953125 789.599609375 164.325195312 925.575195312 c 128,-1,12
 235.200195312 1061.54980469 235.200195312 1061.54980469 365.924804688 1132.42480469 c 128,-1,13
 496.650390625 1203.29980469 496.650390625 1203.29980469 678.299804688 1203.29980469 c 0,14,15
 846.299804688 1203.29980469 846.299804688 1203.29980469 977.025390625 1132.42480469 c 128,-1,16
 1107.75 1061.54980469 1107.75 1061.54980469 1182.29980469 925.575195312 c 128,-1,17
 1256.84960938 789.599609375 1256.84960938 789.599609375 1256.84960938 593.25 c 0,0,1
465.150390625 593.25 m 0,18,19
 465.150390625 485.099609375 465.150390625 485.099609375 486.674804688 410.549804688 c 128,-1,20
 508.200195312 336 508.200195312 336 554.924804688 298.200195312 c 128,-1,21
 601.650390625 260.400390625 601.650390625 260.400390625 676.200195312 260.400390625 c 256,22,23
 750.75 260.400390625 750.75 260.400390625 796.424804688 298.200195312 c 128,-1,24
 842.099609375 336 842.099609375 336 863.099609375 410.549804688 c 128,-1,25
 884.099609375 485.099609375 884.099609375 485.099609375 884.099609375 593.25 c 0,26,27
 884.099609375 702.450195312 884.099609375 702.450195312 863.099609375 775.424804688 c 128,-1,28
 842.099609375 848.400390625 842.099609375 848.400390625 795.900390625 885.150390625 c 128,-1,29
 749.700195312 921.900390625 749.700195312 921.900390625 674.099609375 921.900390625 c 0,30,31
 563.849609375 921.900390625 563.849609375 921.900390625 514.5 839.474609375 c 128,-1,32
 465.150390625 757.049804688 465.150390625 757.049804688 465.150390625 593.25 c 0,18,19
EndSplineSet
Validated: 1
Substitution2: "Single Substitution lookup 29 subtable" ordmasculine
Substitution2: "'aalt' Access All Alternates lookup 0 subtable" ordmasculine
EndChar
StartChar: s
Encoding: 115 115 86
Width: 1090
VWidth: 2150
GlyphClass: 2
Flags: W
AnchorPoint: "Anchor-2" 1025.85 1182.3 basechar 0
AnchorPoint: "Anchor-1" 537.6 0 basechar 0
AnchorPoint: "Anchor-0" 537.6 1182.3 basechar 0
LayerCount: 2
Fore
SplineSet
1006.95019531 357 m 0,0,1
 1006.95019531 240.450195312 1006.95019531 240.450195312 953.400390625 155.924804688 c 128,-1,2
 899.849609375 71.400390625 899.849609375 71.400390625 789.075195312 25.2001953125 c 128,-1,3
 678.299804688 -21 678.299804688 -21 505.049804688 -21 c 0,4,5
 380.099609375 -21 380.099609375 -21 286.125 -6.2998046875 c 128,-1,6
 192.150390625 8.400390625 192.150390625 8.400390625 95.5498046875 46.2001953125 c 1,7,-1
 95.5498046875 343.349609375 l 1,8,9
 199.5 296.099609375 199.5 296.099609375 312.900390625 270.900390625 c 128,-1,10
 426.299804688 245.700195312 426.299804688 245.700195312 500.849609375 245.700195312 c 0,11,12
 582.75 245.700195312 582.75 245.700195312 618.974609375 267.224609375 c 128,-1,13
 655.200195312 288.75 655.200195312 288.75 655.200195312 326.549804688 c 0,14,15
 655.200195312 353.849609375 655.200195312 353.849609375 636.299804688 374.849609375 c 128,-1,16
 617.400390625 395.849609375 617.400390625 395.849609375 562.799804688 423.150390625 c 128,-1,17
 508.200195312 450.450195312 508.200195312 450.450195312 401.099609375 494.549804688 c 0,18,19
 297.150390625 538.650390625 297.150390625 538.650390625 228.900390625 586.424804688 c 128,-1,20
 160.650390625 634.200195312 160.650390625 634.200195312 127.049804688 699.825195312 c 128,-1,21
 93.4501953125 765.450195312 93.4501953125 765.450195312 93.4501953125 864.150390625 c 0,22,23
 93.4501953125 1033.20019531 93.4501953125 1033.20019531 224.174804688 1118.25 c 128,-1,24
 354.900390625 1203.29980469 354.900390625 1203.29980469 571.200195312 1203.29980469 c 0,25,26
 684.599609375 1203.29980469 684.599609375 1203.29980469 786.450195312 1179.67480469 c 128,-1,27
 888.299804688 1156.04980469 888.299804688 1156.04980469 996.450195312 1106.70019531 c 1,28,-1
 891.450195312 858.900390625 l 1,29,30
 804.299804688 897.75 804.299804688 897.75 720.299804688 921.900390625 c 128,-1,31
 636.299804688 946.049804688 636.299804688 946.049804688 570.150390625 946.049804688 c 0,32,33
 510.299804688 946.049804688 510.299804688 946.049804688 479.325195312 930.299804688 c 128,-1,34
 448.349609375 914.549804688 448.349609375 914.549804688 448.349609375 883.049804688 c 0,35,36
 448.349609375 857.849609375 448.349609375 857.849609375 466.724609375 838.424804688 c 128,-1,37
 485.099609375 819 485.099609375 819 537.599609375 794.849609375 c 128,-1,38
 590.099609375 770.700195312 590.099609375 770.700195312 690.900390625 729.75 c 0,39,40
 792.75 687.75 792.75 687.75 863.099609375 641.549804688 c 128,-1,41
 933.450195312 595.349609375 933.450195312 595.349609375 970.200195312 528.674804688 c 128,-1,42
 1006.95019531 462 1006.95019531 462 1006.95019531 357 c 0,0,1
EndSplineSet
Validated: 1
Substitution2: "'subs' Subscript lookup 19 subtable" uni209B
Substitution2: "'aalt' Access All Alternates lookup 0 subtable" uni209B
EndChar
StartChar: u
Encoding: 117 117 88
Width: 1426
VWidth: 2150
GlyphClass: 2
Flags: W
AnchorPoint: "Anchor-2" 1333.5 1182.3 basechar 0
AnchorPoint: "Anchor-1" 696.15 0 basechar 0
AnchorPoint: "Anchor-0" 714 1182.3 basechar 0
LayerCount: 2
Fore
SplineSet
1272.59960938 1182.29980469 m 1,0,-1
 1272.59960938 0 l 1,1,-1
 994.349609375 0 l 1,2,-1
 947.099609375 149.099609375 l 1,3,-1
 927.150390625 149.099609375 l 1,4,5
 889.349609375 89.25 889.349609375 89.25 833.174804688 51.974609375 c 128,-1,6
 777 14.7001953125 777 14.7001953125 708.75 -3.150390625 c 128,-1,7
 640.5 -21 640.5 -21 567 -21 c 0,8,9
 445.200195312 -21 445.200195312 -21 351.75 24.150390625 c 128,-1,10
 258.299804688 69.2998046875 258.299804688 69.2998046875 204.75 164.849609375 c 128,-1,11
 151.200195312 260.400390625 151.200195312 260.400390625 151.200195312 411.599609375 c 2,12,-1
 151.200195312 1182.29980469 l 1,13,-1
 516.599609375 1182.29980469 l 1,14,-1
 516.599609375 514.5 l 2,15,16
 516.599609375 393.75 516.599609375 393.75 555.450195312 331.275390625 c 128,-1,17
 594.299804688 268.799804688 594.299804688 268.799804688 681.450195312 268.799804688 c 0,18,19
 769.650390625 268.799804688 769.650390625 268.799804688 818.474609375 312.375 c 128,-1,20
 867.299804688 355.950195312 867.299804688 355.950195312 887.25 439.950195312 c 128,-1,21
 907.200195312 523.950195312 907.200195312 523.950195312 907.200195312 645.75 c 2,22,-1
 907.200195312 1182.29980469 l 1,23,-1
 1272.59960938 1182.29980469 l 1,0,-1
EndSplineSet
Validated: 1
EndChar
StartChar: v
Encoding: 118 118 89
Width: 1268
VWidth: 2150
GlyphClass: 2
Flags: W
AnchorPoint: "Anchor-2" 1225.35 1182.3 basechar 0
AnchorPoint: "Anchor-1" 636.3 0 basechar 0
AnchorPoint: "Anchor-0" 628.95 1182.3 basechar 0
LayerCount: 2
Fore
SplineSet
450.450195312 0 m 1,0,-1
 0 1182.29980469 l 1,1,-1
 382.200195312 1182.29980469 l 1,2,-1
 596.400390625 495.599609375 l 2,3,4
 606.900390625 462 606.900390625 462 616.349609375 410.025390625 c 128,-1,5
 625.799804688 358.049804688 625.799804688 358.049804688 627.900390625 315 c 1,6,-1
 636.299804688 315 l 1,7,8
 637.349609375 361.200195312 637.349609375 361.200195312 647.325195312 408.974609375 c 128,-1,9
 657.299804688 456.75 657.299804688 456.75 668.849609375 494.549804688 c 2,10,-1
 887.25 1182.29980469 l 1,11,-1
 1268.40039062 1182.29980469 l 1,12,-1
 817.950195312 0 l 1,13,-1
 450.450195312 0 l 1,0,-1
EndSplineSet
Validated: 1
EndChar
StartChar: y
Encoding: 121 121 92
Width: 1267
VWidth: 2150
GlyphClass: 2
Flags: W
AnchorPoint: "Anchor-2" 1224.3 1182.3 basechar 0
AnchorPoint: "Anchor-1" 278.25 -516.6 basechar 0
AnchorPoint: "Anchor-0" 635.25 1182.3 basechar 0
LayerCount: 2
Fore
SplineSet
-1.0498046875 1182.29980469 m 1,0,-1
 390.599609375 1182.29980469 l 1,1,-1
 602.700195312 510.299804688 l 2,2,3
 610.049804688 487.200195312 610.049804688 487.200195312 615.825195312 460.424804688 c 128,-1,4
 621.599609375 433.650390625 621.599609375 433.650390625 625.799804688 404.25 c 128,-1,5
 630 374.849609375 630 374.849609375 632.099609375 344.400390625 c 1,6,-1
 639.450195312 344.400390625 l 1,7,8
 644.700195312 393.75 644.700195312 393.75 653.625 434.700195312 c 128,-1,9
 662.549804688 475.650390625 662.549804688 475.650390625 674.099609375 509.25 c 2,10,-1
 886.200195312 1182.29980469 l 1,11,-1
 1267.34960938 1182.29980469 l 1,12,-1
 784.349609375 -112.349609375 l 2,13,14
 733.950195312 -245.700195312 733.950195312 -245.700195312 662.025390625 -335.474609375 c 128,-1,15
 590.099609375 -425.25 590.099609375 -425.25 490.349609375 -470.924804688 c 128,-1,16
 390.599609375 -516.599609375 390.599609375 -516.599609375 256.200195312 -516.599609375 c 0,17,18
 200.549804688 -516.599609375 200.549804688 -516.599609375 160.125 -510.825195312 c 128,-1,19
 119.700195312 -505.049804688 119.700195312 -505.049804688 90.2998046875 -498.75 c 1,20,-1
 90.2998046875 -210 l 1,21,22
 113.400390625 -215.25 113.400390625 -215.25 147 -219.450195312 c 128,-1,23
 180.599609375 -223.650390625 180.599609375 -223.650390625 217.349609375 -223.650390625 c 0,24,25
 284.549804688 -223.650390625 284.549804688 -223.650390625 330.224609375 -195.825195312 c 128,-1,26
 375.900390625 -168 375.900390625 -168 405.825195312 -121.799804688 c 128,-1,27
 435.75 -75.599609375 435.75 -75.599609375 454.650390625 -21 c 2,28,-1
 466.200195312 12.599609375 l 1,29,-1
 -1.0498046875 1182.29980469 l 1,0,-1
EndSplineSet
Validated: 1
EndChar
StartChar: braceleft
Encoding: 123 123 94
Width: 889
VWidth: 2150
GlyphClass: 1
Flags: W
LayerCount: 2
Fore
SplineSet
811.650390625 -350.700195312 m 1,0,1
 610.049804688 -350.700195312 610.049804688 -350.700195312 501.900390625 -316.575195312 c 128,-1,2
 393.75 -282.450195312 393.75 -282.450195312 352.799804688 -210 c 128,-1,3
 311.849609375 -137.549804688 311.849609375 -137.549804688 311.849609375 -23.099609375 c 2,4,-1
 311.849609375 271.950195312 l 2,5,6
 311.849609375 339.150390625 311.849609375 339.150390625 277.724609375 379.049804688 c 128,-1,7
 243.599609375 418.950195312 243.599609375 418.950195312 184.275390625 437.325195312 c 128,-1,8
 124.950195312 455.700195312 124.950195312 455.700195312 48.2998046875 455.700195312 c 1,9,-1
 48.2998046875 739.200195312 l 1,10,11
 126 739.200195312 126 739.200195312 185.325195312 757.049804688 c 128,-1,12
 244.650390625 774.900390625 244.650390625 774.900390625 278.25 815.325195312 c 128,-1,13
 311.849609375 855.75 311.849609375 855.75 311.849609375 921.900390625 c 2,14,-1
 311.849609375 1222.20019531 l 2,15,16
 311.849609375 1334.54980469 311.849609375 1334.54980469 352.275390625 1406.47460938 c 128,-1,17
 392.700195312 1478.40039062 392.700195312 1478.40039062 500.325195312 1512.52539062 c 128,-1,18
 607.950195312 1546.65039062 607.950195312 1546.65039062 811.650390625 1546.65039062 c 1,19,-1
 811.650390625 1282.04980469 l 1,20,21
 762.299804688 1281 762.299804688 1281 718.724609375 1272.07519531 c 128,-1,22
 675.150390625 1263.15039062 675.150390625 1263.15039062 647.849609375 1235.84960938 c 128,-1,23
 620.549804688 1208.54980469 620.549804688 1208.54980469 620.549804688 1151.84960938 c 2,24,-1
 620.549804688 852.599609375 l 2,25,26
 620.549804688 738.150390625 620.549804688 738.150390625 555.974609375 679.875 c 128,-1,27
 491.400390625 621.599609375 491.400390625 621.599609375 371.700195312 603.75 c 1,28,-1
 371.700195312 591.150390625 l 1,29,30
 493.5 573.299804688 493.5 573.299804688 557.025390625 515.025390625 c 128,-1,31
 620.549804688 456.75 620.549804688 456.75 620.549804688 346.5 c 2,32,-1
 620.549804688 44.099609375 l 2,33,34
 620.549804688 -11.5498046875 620.549804688 -11.5498046875 647.849609375 -39.375 c 128,-1,35
 675.150390625 -67.2001953125 675.150390625 -67.2001953125 719.25 -75.599609375 c 128,-1,36
 763.349609375 -84 763.349609375 -84 811.650390625 -86.099609375 c 1,37,-1
 811.650390625 -350.700195312 l 1,0,1
EndSplineSet
Validated: 1
EndChar
StartChar: exclamdown
Encoding: 161 161 99
Width: 619
VWidth: 2150
GlyphClass: 1
Flags: W
LayerCount: 2
Fore
SplineSet
158.549804688 639.450195312 m 1,0,-1
 459.900390625 639.450195312 l 1,1,-1
 513.450195312 -368.549804688 l 1,2,-1
 105 -368.549804688 l 1,3,-1
 158.549804688 639.450195312 l 1,0,-1
513.450195312 1003.79980469 m 0,4,5
 513.450195312 898.799804688 513.450195312 898.799804688 453.599609375 855.75 c 128,-1,6
 393.75 812.700195312 393.75 812.700195312 309.75 812.700195312 c 0,7,8
 228.900390625 812.700195312 228.900390625 812.700195312 169.575195312 855.75 c 128,-1,9
 110.25 898.799804688 110.25 898.799804688 110.25 1003.79980469 c 0,10,11
 110.25 1104.59960938 110.25 1104.59960938 169.575195312 1148.70019531 c 128,-1,12
 228.900390625 1192.79980469 228.900390625 1192.79980469 309.75 1192.79980469 c 0,13,14
 393.75 1192.79980469 393.75 1192.79980469 453.599609375 1148.70019531 c 128,-1,15
 513.450195312 1104.59960938 513.450195312 1104.59960938 513.450195312 1003.79980469 c 0,4,5
EndSplineSet
Validated: 1
EndChar
StartChar: dieresis
Encoding: 168 168 106
Width: 1299
VWidth: 2150
GlyphClass: 1
Flags: W
LayerCount: 2
Fore
SplineSet
263.549804688 1479.45019531 m 0,0,1
 263.549804688 1560.29980469 263.549804688 1560.29980469 310.799804688 1597.04980469 c 128,-1,2
 358.049804688 1633.79980469 358.049804688 1633.79980469 426.299804688 1633.79980469 c 0,3,4
 492.450195312 1633.79980469 492.450195312 1633.79980469 541.275390625 1597.04980469 c 128,-1,5
 590.099609375 1560.29980469 590.099609375 1560.29980469 590.099609375 1479.45019531 c 0,6,7
 590.099609375 1402.79980469 590.099609375 1402.79980469 541.275390625 1365.52539062 c 128,-1,8
 492.450195312 1328.25 492.450195312 1328.25 426.299804688 1328.25 c 0,9,10
 358.049804688 1328.25 358.049804688 1328.25 310.799804688 1365.52539062 c 128,-1,11
 263.549804688 1402.79980469 263.549804688 1402.79980469 263.549804688 1479.45019531 c 0,0,1
726.599609375 1479.45019531 m 0,12,13
 726.599609375 1560.29980469 726.599609375 1560.29980469 773.849609375 1597.04980469 c 128,-1,14
 821.099609375 1633.79980469 821.099609375 1633.79980469 891.450195312 1633.79980469 c 0,15,16
 957.599609375 1633.79980469 957.599609375 1633.79980469 1006.95019531 1597.04980469 c 128,-1,17
 1056.29980469 1560.29980469 1056.29980469 1560.29980469 1056.29980469 1479.45019531 c 0,18,19
 1056.29980469 1402.79980469 1056.29980469 1402.79980469 1006.95019531 1365.52539062 c 128,-1,20
 957.599609375 1328.25 957.599609375 1328.25 891.450195312 1328.25 c 0,21,22
 821.099609375 1328.25 821.099609375 1328.25 773.849609375 1365.52539062 c 128,-1,23
 726.599609375 1402.79980469 726.599609375 1402.79980469 726.599609375 1479.45019531 c 0,12,13
EndSplineSet
Validated: 1
EndChar
StartChar: registered
Encoding: 174 174 112
Width: 1780
VWidth: 2150
GlyphClass: 1
Flags: W
LayerCount: 2
Fore
SplineSet
567 312.900390625 m 1,0,-1
 567 1247.40039062 l 1,1,-1
 856.799804688 1247.40039062 l 2,2,3
 1056.29980469 1247.40039062 1056.29980469 1247.40039062 1145.02539062 1173.375 c 128,-1,4
 1233.75 1099.34960938 1233.75 1099.34960938 1233.75 961.799804688 c 0,5,6
 1233.75 855.75 1233.75 855.75 1186.5 798 c 128,-1,7
 1139.25 740.25 1139.25 740.25 1075.20019531 711.900390625 c 1,8,-1
 1302 312.900390625 l 1,9,-1
 1058.40039062 312.900390625 l 1,10,-1
 879.900390625 661.5 l 1,11,-1
 794.849609375 661.5 l 1,12,-1
 794.849609375 312.900390625 l 1,13,-1
 567 312.900390625 l 1,0,-1
794.849609375 826.349609375 m 1,14,-1
 853.650390625 826.349609375 l 2,15,16
 926.099609375 826.349609375 926.099609375 826.349609375 964.950195312 858.900390625 c 128,-1,17
 1003.79980469 891.450195312 1003.79980469 891.450195312 1003.79980469 953.400390625 c 0,18,19
 1003.79980469 1020.59960938 1003.79980469 1020.59960938 967.049804688 1045.79980469 c 128,-1,20
 930.299804688 1071 930.299804688 1071 853.650390625 1071 c 2,21,-1
 794.849609375 1071 l 1,22,-1
 794.849609375 826.349609375 l 1,14,-1
890.400390625 -21 m 0,23,24
 719.25 -21 719.25 -21 574.875 37.275390625 c 128,-1,25
 430.5 95.5498046875 430.5 95.5498046875 323.924804688 201.599609375 c 128,-1,26
 217.349609375 307.650390625 217.349609375 307.650390625 159.075195312 452.025390625 c 128,-1,27
 100.799804688 596.400390625 100.799804688 596.400390625 100.799804688 767.549804688 c 0,28,29
 100.799804688 935.549804688 100.799804688 935.549804688 159.599609375 1079.40039062 c 128,-1,30
 218.400390625 1223.25 218.400390625 1223.25 325.5 1330.34960938 c 128,-1,31
 432.599609375 1437.45019531 432.599609375 1437.45019531 576.974609375 1497.29980469 c 128,-1,32
 721.349609375 1557.15039062 721.349609375 1557.15039062 890.400390625 1557.15039062 c 0,33,34
 1058.40039062 1557.15039062 1058.40039062 1557.15039062 1202.25 1498.875 c 128,-1,35
 1346.09960938 1440.59960938 1346.09960938 1440.59960938 1453.20019531 1334.02539062 c 128,-1,36
 1560.29980469 1227.45019531 1560.29980469 1227.45019531 1620.15039062 1083.59960938 c 128,-1,37
 1680 939.75 1680 939.75 1680 767.549804688 c 0,38,39
 1680 596.400390625 1680 596.400390625 1621.72460938 452.025390625 c 128,-1,40
 1563.45019531 307.650390625 1563.45019531 307.650390625 1456.875 201.599609375 c 128,-1,41
 1350.29980469 95.5498046875 1350.29980469 95.5498046875 1206.45019531 37.275390625 c 128,-1,42
 1062.59960938 -21 1062.59960938 -21 890.400390625 -21 c 0,23,24
890.400390625 133.349609375 m 0,43,44
 1022.70019531 133.349609375 1022.70019531 133.349609375 1135.04980469 180.075195312 c 128,-1,45
 1247.40039062 226.799804688 1247.40039062 226.799804688 1330.875 311.325195312 c 128,-1,46
 1414.34960938 395.849609375 1414.34960938 395.849609375 1461.07519531 511.875 c 128,-1,47
 1507.79980469 627.900390625 1507.79980469 627.900390625 1507.79980469 767.549804688 c 0,48,49
 1507.79980469 903 1507.79980469 903 1461.59960938 1019.02539062 c 128,-1,50
 1415.40039062 1135.04980469 1415.40039062 1135.04980469 1332.45019531 1221.15039062 c 128,-1,51
 1249.5 1307.25 1249.5 1307.25 1137.15039062 1355.54980469 c 128,-1,52
 1024.79980469 1403.84960938 1024.79980469 1403.84960938 890.400390625 1403.84960938 c 0,53,54
 754.950195312 1403.84960938 754.950195312 1403.84960938 641.549804688 1357.125 c 128,-1,55
 528.150390625 1310.40039062 528.150390625 1310.40039062 444.674804688 1225.34960938 c 128,-1,56
 361.200195312 1140.29980469 361.200195312 1140.29980469 315 1023.75 c 128,-1,57
 268.799804688 907.200195312 268.799804688 907.200195312 268.799804688 767.549804688 c 256,58,59
 268.799804688 627.900390625 268.799804688 627.900390625 314.474609375 511.875 c 128,-1,60
 360.150390625 395.849609375 360.150390625 395.849609375 443.099609375 311.325195312 c 128,-1,61
 526.049804688 226.799804688 526.049804688 226.799804688 639.974609375 180.075195312 c 128,-1,62
 753.900390625 133.349609375 753.900390625 133.349609375 890.400390625 133.349609375 c 0,43,44
EndSplineSet
Validated: 1
EndChar
StartChar: uni00B2
Encoding: 178 178 116
Width: 836
VWidth: 2150
GlyphClass: 1
Flags: W
LayerCount: 2
Fore
SplineSet
762.299804688 894.599609375 m 1,0,-1
 69.2998046875 894.599609375 l 1,1,-1
 69.2998046875 1092 l 1,2,-1
 299.25 1318.79980469 l 2,3,4
 362.25 1379.70019531 362.25 1379.70019531 396.900390625 1421.17480469 c 128,-1,5
 431.549804688 1462.65039062 431.549804688 1462.65039062 446.25 1493.625 c 128,-1,6
 460.950195312 1524.59960938 460.950195312 1524.59960938 460.950195312 1554 c 0,7,8
 460.950195312 1588.65039062 460.950195312 1588.65039062 439.424804688 1606.5 c 128,-1,9
 417.900390625 1624.34960938 417.900390625 1624.34960938 381.150390625 1624.34960938 c 0,10,11
 342.299804688 1624.34960938 342.299804688 1624.34960938 298.200195312 1604.92480469 c 128,-1,12
 254.099609375 1585.5 254.099609375 1585.5 196.349609375 1531.95019531 c 1,13,-1
 56.7001953125 1698.90039062 l 1,14,15
 127.049804688 1761.90039062 127.049804688 1761.90039062 214.200195312 1799.70019531 c 128,-1,16
 301.349609375 1837.5 301.349609375 1837.5 428.400390625 1837.5 c 0,17,18
 575.400390625 1837.5 575.400390625 1837.5 657.299804688 1769.77539062 c 128,-1,19
 739.200195312 1702.04980469 739.200195312 1702.04980469 739.200195312 1581.29980469 c 0,20,21
 739.200195312 1507.79980469 739.200195312 1507.79980469 707.700195312 1445.84960938 c 128,-1,22
 676.200195312 1383.90039062 676.200195312 1383.90039062 619.5 1324.57519531 c 128,-1,23
 562.799804688 1265.25 562.799804688 1265.25 485.099609375 1197 c 2,24,-1
 395.849609375 1118.25 l 1,25,-1
 762.299804688 1118.25 l 1,26,-1
 762.299804688 894.599609375 l 1,0,-1
EndSplineSet
Validated: 1
EndChar
StartChar: paragraph
Encoding: 182 182 120
Width: 1395
VWidth: 2150
GlyphClass: 1
Flags: W
LayerCount: 2
Fore
SplineSet
1235.84960938 -273 m 1,0,-1
 1051.04980469 -273 l 1,1,-1
 1051.04980469 1409.09960938 l 1,2,-1
 880.950195312 1409.09960938 l 1,3,-1
 880.950195312 -273 l 1,4,-1
 696.150390625 -273 l 1,5,-1
 696.150390625 586.950195312 l 1,6,7
 663.599609375 577.5 663.599609375 577.5 631.575195312 572.775390625 c 128,-1,8
 599.549804688 568.049804688 599.549804688 568.049804688 553.349609375 568.049804688 c 0,9,10
 421.049804688 568.049804688 421.049804688 568.049804688 321.825195312 617.924804688 c 128,-1,11
 222.599609375 667.799804688 222.599609375 667.799804688 168 782.775390625 c 128,-1,12
 113.400390625 897.75 113.400390625 897.75 113.400390625 1094.09960938 c 0,13,14
 113.400390625 1299.90039062 113.400390625 1299.90039062 172.724609375 1417.5 c 128,-1,15
 232.049804688 1535.09960938 232.049804688 1535.09960938 338.625 1584.45019531 c 128,-1,16
 445.200195312 1633.79980469 445.200195312 1633.79980469 585.900390625 1633.79980469 c 2,17,-1
 1235.84960938 1633.79980469 l 1,18,-1
 1235.84960938 -273 l 1,0,-1
EndSplineSet
Validated: 1
EndChar
StartChar: guillemotright
Encoding: 187 187 125
Width: 1394
VWidth: 2150
GlyphClass: 1
Flags: W
LayerCount: 2
Fore
SplineSet
1312.5 581.700195312 m 1,0,-1
 914.549804688 91.349609375 l 1,1,-1
 649.950195312 231 l 1,2,-1
 939.75 596.400390625 l 1,3,-1
 649.950195312 961.799804688 l 1,4,-1
 914.549804688 1102.5 l 1,5,-1
 1312.5 610.049804688 l 1,6,-1
 1312.5 581.700195312 l 1,0,-1
744.450195312 581.700195312 m 1,7,-1
 346.5 91.349609375 l 1,8,-1
 82.9501953125 231 l 1,9,-1
 371.700195312 596.400390625 l 1,10,-1
 82.9501953125 961.799804688 l 1,11,-1
 346.5 1102.5 l 1,12,-1
 744.450195312 610.049804688 l 1,13,-1
 744.450195312 581.700195312 l 1,7,-1
EndSplineSet
Validated: 1
EndChar
StartChar: Eth
Encoding: 208 208 146
Width: 1585
VWidth: 2150
GlyphClass: 2
Flags: W
AnchorPoint: "Anchor-1" 792.75 0 basechar 0
AnchorPoint: "Anchor-0" 792.75 1535.1 basechar 0
LayerCount: 2
Fore
SplineSet
686.700195312 1535.09960938 m 2,0,1
 931.349609375 1535.09960938 931.349609375 1535.09960938 1106.17480469 1450.04980469 c 128,-1,2
 1281 1365 1281 1365 1374.45019531 1199.09960938 c 128,-1,3
 1467.90039062 1033.20019531 1467.90039062 1033.20019531 1467.90039062 791.700195312 c 0,4,5
 1467.90039062 528.150390625 1467.90039062 528.150390625 1368.67480469 352.275390625 c 128,-1,6
 1269.45019531 176.400390625 1269.45019531 176.400390625 1084.65039062 88.2001953125 c 128,-1,7
 899.849609375 0 899.849609375 0 645.75 0 c 2,8,-1
 179.549804688 0 l 1,9,-1
 179.549804688 609 l 1,10,-1
 40.9501953125 609 l 1,11,-1
 40.9501953125 910.349609375 l 1,12,-1
 179.549804688 910.349609375 l 1,13,-1
 179.549804688 1535.09960938 l 1,14,-1
 686.700195312 1535.09960938 l 2,0,1
696.150390625 1234.79980469 m 2,15,-1
 550.200195312 1234.79980469 l 1,16,-1
 550.200195312 910.349609375 l 1,17,-1
 785.400390625 910.349609375 l 1,18,-1
 785.400390625 609 l 1,19,-1
 550.200195312 609 l 1,20,-1
 550.200195312 304.5 l 1,21,-1
 664.650390625 304.5 l 2,22,23
 876.75 304.5 876.75 304.5 980.174804688 423.150390625 c 128,-1,24
 1083.59960938 541.799804688 1083.59960938 541.799804688 1083.59960938 780.150390625 c 0,25,26
 1083.59960938 934.5 1083.59960938 934.5 1039.5 1035.29980469 c 128,-1,27
 995.400390625 1136.09960938 995.400390625 1136.09960938 909.299804688 1185.45019531 c 128,-1,28
 823.200195312 1234.79980469 823.200195312 1234.79980469 696.150390625 1234.79980469 c 2,15,-1
EndSplineSet
Validated: 1
EndChar
StartChar: multiply
Encoding: 215 215 153
Width: 1245
VWidth: 2150
GlyphClass: 1
Flags: W
LayerCount: 2
Fore
SplineSet
921.900390625 1237.95019531 m 1,0,-1
 1101.45019531 1063.65039062 l 1,1,-1
 796.950195312 759.150390625 l 1,2,-1
 1097.25 457.799804688 l 1,3,-1
 921.900390625 280.349609375 l 1,4,-1
 617.400390625 580.650390625 l 1,5,-1
 318.150390625 282.450195312 l 1,6,-1
 143.849609375 460.950195312 l 1,7,-1
 438.900390625 759.150390625 l 1,8,-1
 141.75 1058.40039062 l 1,9,-1
 318.150390625 1237.95019531 l 1,10,-1
 617.400390625 940.799804688 l 1,11,-1
 921.900390625 1237.95019531 l 1,0,-1
EndSplineSet
Validated: 1
EndChar
StartChar: Oslash
Encoding: 216 216 154
Width: 1712
VWidth: 2150
GlyphClass: 2
Flags: W
AnchorPoint: "Anchor-1" 856.8 0 basechar 0
AnchorPoint: "Anchor-0" 864.15 1535.1 basechar 0
LayerCount: 2
Fore
SplineSet
1594.95019531 769.650390625 m 0,0,1
 1594.95019531 592.200195312 1594.95019531 592.200195312 1551.375 446.775390625 c 128,-1,2
 1507.79980469 301.349609375 1507.79980469 301.349609375 1418.02539062 196.349609375 c 128,-1,3
 1328.25 91.349609375 1328.25 91.349609375 1188.59960938 35.1748046875 c 128,-1,4
 1048.95019531 -21 1048.95019531 -21 855.75 -21 c 0,5,6
 758.099609375 -21 758.099609375 -21 673.575195312 -6.8251953125 c 128,-1,7
 589.049804688 7.349609375 589.049804688 7.349609375 518.700195312 35.7001953125 c 1,8,-1
 427.349609375 -103.950195312 l 1,9,-1
 240.450195312 17.849609375 l 1,10,-1
 331.799804688 155.400390625 l 1,11,12
 221.549804688 260.400390625 221.549804688 260.400390625 169.575195312 416.849609375 c 128,-1,13
 117.599609375 573.299804688 117.599609375 573.299804688 117.599609375 771.75 c 0,14,15
 117.599609375 1011.15039062 117.599609375 1011.15039062 196.349609375 1188.07519531 c 128,-1,16
 275.099609375 1365 275.099609375 1365 439.424804688 1462.125 c 128,-1,17
 603.75 1559.25 603.75 1559.25 857.849609375 1559.25 c 0,18,19
 961.799804688 1559.25 961.799804688 1559.25 1051.04980469 1542.45019531 c 128,-1,20
 1140.29980469 1525.65039062 1140.29980469 1525.65039062 1211.70019531 1494.15039062 c 1,21,-1
 1295.70019531 1621.20019531 l 1,22,-1
 1479.45019531 1506.75 l 1,23,-1
 1390.20019531 1372.34960938 l 1,24,25
 1495.20019531 1269.45019531 1495.20019531 1269.45019531 1545.07519531 1115.625 c 128,-1,26
 1594.95019531 961.799804688 1594.95019531 961.799804688 1594.95019531 769.650390625 c 0,0,1
1205.40039062 769.650390625 m 0,27,28
 1205.40039062 849.450195312 1205.40039062 849.450195312 1196.47460938 916.650390625 c 128,-1,29
 1187.54980469 983.849609375 1187.54980469 983.849609375 1169.70019531 1036.34960938 c 1,30,-1
 700.349609375 317.099609375 l 1,31,32
 732.900390625 303.450195312 732.900390625 303.450195312 771.75 296.099609375 c 128,-1,33
 810.599609375 288.75 810.599609375 288.75 855.75 288.75 c 0,34,35
 982.799804688 288.75 982.799804688 288.75 1059.45019531 346.5 c 128,-1,36
 1136.09960938 404.25 1136.09960938 404.25 1170.75 512.400390625 c 128,-1,37
 1205.40039062 620.549804688 1205.40039062 620.549804688 1205.40039062 769.650390625 c 0,27,28
506.099609375 769.650390625 m 0,38,39
 506.099609375 685.650390625 506.099609375 685.650390625 516.599609375 613.200195312 c 128,-1,40
 527.099609375 540.75 527.099609375 540.75 551.25 483 c 1,41,-1
 1027.95019531 1215.90039062 l 1,42,43
 992.25 1232.70019531 992.25 1232.70019531 949.724609375 1243.20019531 c 128,-1,44
 907.200195312 1253.70019531 907.200195312 1253.70019531 857.849609375 1253.70019531 c 0,45,46
 732.900390625 1253.70019531 732.900390625 1253.70019531 655.200195312 1195.42480469 c 128,-1,47
 577.5 1137.15039062 577.5 1137.15039062 541.799804688 1028.47460938 c 128,-1,48
 506.099609375 919.799804688 506.099609375 919.799804688 506.099609375 769.650390625 c 0,38,39
EndSplineSet
Validated: 1
EndChar
StartChar: ae
Encoding: 230 230 168
Width: 1991
VWidth: 2150
GlyphClass: 2
Flags: W
AnchorPoint: "Anchor-1" 996.45 0 basechar 0
AnchorPoint: "Anchor-0" 1018.5 1182.3 basechar 0
LayerCount: 2
Fore
SplineSet
1391.25 1203.29980469 m 0,0,1
 1541.40039062 1203.29980469 1541.40039062 1203.29980469 1655.84960938 1141.875 c 128,-1,2
 1770.29980469 1080.45019531 1770.29980469 1080.45019531 1835.40039062 960.75 c 128,-1,3
 1900.5 841.049804688 1900.5 841.049804688 1900.5 663.599609375 c 2,4,-1
 1900.5 495.599609375 l 1,5,-1
 1155 495.599609375 l 1,6,7
 1160.25 384.299804688 1160.25 384.299804688 1232.17480469 314.474609375 c 128,-1,8
 1304.09960938 244.650390625 1304.09960938 244.650390625 1438.5 244.650390625 c 0,9,10
 1531.95019531 244.650390625 1531.95019531 244.650390625 1630.65039062 265.650390625 c 128,-1,11
 1729.34960938 286.650390625 1729.34960938 286.650390625 1829.09960938 336 c 1,12,-1
 1829.09960938 64.0498046875 l 1,13,14
 1741.95019531 19.9501953125 1741.95019531 19.9501953125 1644.82519531 -0.525390625 c 128,-1,15
 1547.70019531 -21 1547.70019531 -21 1401.75 -21 c 0,16,17
 1309.34960938 -21 1309.34960938 -21 1225.34960938 1.5751953125 c 128,-1,18
 1141.34960938 24.150390625 1141.34960938 24.150390625 1071 70.349609375 c 128,-1,19
 1000.65039062 116.549804688 1000.65039062 116.549804688 948.150390625 186.900390625 c 1,20,21
 880.950195312 112.349609375 880.950195312 112.349609375 816.375 66.150390625 c 128,-1,22
 751.799804688 19.9501953125 751.799804688 19.9501953125 668.849609375 -0.525390625 c 128,-1,23
 585.900390625 -21 585.900390625 -21 459.900390625 -21 c 0,24,25
 360.150390625 -21 360.150390625 -21 274.575195312 19.9501953125 c 128,-1,26
 189 60.900390625 189 60.900390625 136.5 145.424804688 c 128,-1,27
 84 229.950195312 84 229.950195312 84 360.150390625 c 0,28,29
 84 489.299804688 84 489.299804688 144.900390625 570.150390625 c 128,-1,30
 205.799804688 651 205.799804688 651 321.299804688 691.424804688 c 128,-1,31
 436.799804688 731.849609375 436.799804688 731.849609375 598.5 738.150390625 c 2,32,-1
 794.849609375 744.450195312 l 1,33,-1
 794.849609375 798 l 2,34,35
 794.849609375 876.75 794.849609375 876.75 750.224609375 908.775390625 c 128,-1,36
 705.599609375 940.799804688 705.599609375 940.799804688 636.299804688 940.799804688 c 0,37,38
 559.650390625 940.799804688 559.650390625 940.799804688 476.700195312 918.75 c 128,-1,39
 393.75 896.700195312 393.75 896.700195312 311.849609375 858.900390625 c 1,40,-1
 202.650390625 1099.34960938 l 1,41,42
 299.25 1149.75 299.25 1149.75 417.900390625 1177.04980469 c 128,-1,43
 536.549804688 1204.34960938 536.549804688 1204.34960938 662.549804688 1204.34960938 c 0,44,45
 772.799804688 1204.34960938 772.799804688 1204.34960938 862.049804688 1174.95019531 c 128,-1,46
 951.299804688 1145.54980469 951.299804688 1145.54980469 1018.5 1086.75 c 1,47,48
 1089.90039062 1146.59960938 1089.90039062 1146.59960938 1178.625 1174.95019531 c 128,-1,49
 1267.34960938 1203.29980469 1267.34960938 1203.29980469 1391.25 1203.29980469 c 0,0,1
795.900390625 537.599609375 m 1,50,-1
 693 533.400390625 l 2,51,52
 559.650390625 530.25 559.650390625 530.25 508.724609375 484.049804688 c 128,-1,53
 457.799804688 437.849609375 457.799804688 437.849609375 457.799804688 361.200195312 c 0,54,55
 457.799804688 296.099609375 457.799804688 296.099609375 494.549804688 268.799804688 c 128,-1,56
 531.299804688 241.5 531.299804688 241.5 591.150390625 241.5 c 0,57,58
 647.849609375 241.5 647.849609375 241.5 694.575195312 265.650390625 c 128,-1,59
 741.299804688 289.799804688 741.299804688 289.799804688 768.599609375 335.474609375 c 128,-1,60
 795.900390625 381.150390625 795.900390625 381.150390625 795.900390625 443.099609375 c 2,61,-1
 795.900390625 537.599609375 l 1,50,-1
1376.54980469 950.25 m 0,62,63
 1285.20019531 950.25 1285.20019531 950.25 1227.97460938 899.325195312 c 128,-1,64
 1170.75 848.400390625 1170.75 848.400390625 1161.29980469 731.849609375 c 1,65,-1
 1565.54980469 731.849609375 l 1,66,67
 1564.5 792.75 1564.5 792.75 1542.97460938 842.099609375 c 128,-1,68
 1521.45019531 891.450195312 1521.45019531 891.450195312 1479.45019531 920.849609375 c 128,-1,69
 1437.45019531 950.25 1437.45019531 950.25 1376.54980469 950.25 c 0,62,63
EndSplineSet
Validated: 1
EndChar
StartChar: eogonek
Encoding: 281 281 219
Width: 1299
VWidth: 2150
GlyphClass: 2
Flags: W
AnchorPoint: "Anchor-1" 676.2 -516.6 basechar 0
AnchorPoint: "Anchor-0" 651 1182.3 basechar 0
LayerCount: 2
Fore
SplineSet
925.049804688 -216.299804688 m 0,0,1
 925.049804688 -259.349609375 925.049804688 -259.349609375 949.724609375 -280.349609375 c 128,-1,2
 974.400390625 -301.349609375 974.400390625 -301.349609375 1011.15039062 -301.349609375 c 0,3,4
 1043.70019531 -301.349609375 1043.70019531 -301.349609375 1076.25 -295.049804688 c 128,-1,5
 1108.79980469 -288.75 1108.79980469 -288.75 1129.79980469 -280.349609375 c 1,6,-1
 1129.79980469 -490.349609375 l 1,7,8
 1095.15039062 -499.799804688 1095.15039062 -499.799804688 1053.67480469 -508.200195312 c 128,-1,9
 1012.20019531 -516.599609375 1012.20019531 -516.599609375 957.599609375 -516.599609375 c 0,10,11
 835.799804688 -516.599609375 835.799804688 -516.599609375 758.625 -449.924804688 c 128,-1,12
 681.450195312 -383.25 681.450195312 -383.25 681.450195312 -274.049804688 c 0,13,14
 681.450195312 -218.400390625 681.450195312 -218.400390625 707.700195312 -164.325195312 c 128,-1,15
 733.950195312 -110.25 733.950195312 -110.25 787.5 -57.75 c 128,-1,16
 841.049804688 -5.25 841.049804688 -5.25 921.900390625 45.150390625 c 1,17,-1
 1137.15039062 64.0498046875 l 1,18,19
 1050 -10.5 1050 -10.5 1004.32519531 -60.900390625 c 128,-1,20
 958.650390625 -111.299804688 958.650390625 -111.299804688 941.849609375 -147 c 128,-1,21
 925.049804688 -182.700195312 925.049804688 -182.700195312 925.049804688 -216.299804688 c 0,0,1
664.650390625 1203.29980469 m 0,22,23
 832.650390625 1203.29980469 832.650390625 1203.29980469 954.450195312 1141.875 c 128,-1,24
 1076.25 1080.45019531 1076.25 1080.45019531 1142.40039062 960.75 c 128,-1,25
 1208.54980469 841.049804688 1208.54980469 841.049804688 1208.54980469 664.650390625 c 2,26,-1
 1208.54980469 495.599609375 l 1,27,-1
 463.049804688 495.599609375 l 1,28,29
 468.299804688 381.150390625 468.299804688 381.150390625 538.650390625 312.900390625 c 128,-1,30
 609 244.650390625 609 244.650390625 740.25 244.650390625 c 0,31,32
 851.549804688 244.650390625 851.549804688 244.650390625 945 267.224609375 c 128,-1,33
 1038.45019531 289.799804688 1038.45019531 289.799804688 1137.15039062 336 c 1,34,-1
 1137.15039062 64.0498046875 l 1,35,36
 1050 19.9501953125 1050 19.9501953125 951.825195312 -0.525390625 c 128,-1,37
 853.650390625 -21 853.650390625 -21 707.700195312 -21 c 0,38,39
 530.25 -21 530.25 -21 391.125 43.5751953125 c 128,-1,40
 252 108.150390625 252 108.150390625 172.724609375 242.025390625 c 128,-1,41
 93.4501953125 375.900390625 93.4501953125 375.900390625 93.4501953125 582.75 c 0,42,43
 93.4501953125 792.75 93.4501953125 792.75 165.375 930.299804688 c 128,-1,44
 237.299804688 1067.84960938 237.299804688 1067.84960938 365.924804688 1135.57519531 c 128,-1,45
 494.549804688 1203.29980469 494.549804688 1203.29980469 664.650390625 1203.29980469 c 0,22,23
673.049804688 950.25 m 0,46,47
 590.099609375 950.25 590.099609375 950.25 534.974609375 897.224609375 c 128,-1,48
 479.849609375 844.200195312 479.849609375 844.200195312 471.450195312 731.849609375 c 1,49,-1
 872.549804688 731.849609375 l 1,50,51
 871.5 793.799804688 871.5 793.799804688 848.924804688 843.150390625 c 128,-1,52
 826.349609375 892.5 826.349609375 892.5 782.775390625 921.375 c 128,-1,53
 739.200195312 950.25 739.200195312 950.25 673.049804688 950.25 c 0,46,47
EndSplineSet
Validated: 5
Substitution2: "'locl' Localized Forms in Latin lookup 8 subtable" eogonek.loclNAV
Ligature2: "'ccmp' Glyph Composition/Decomposition lookup 5 subtable" e uni0328
Substitution2: "'aalt' Access All Alternates lookup 0 subtable" eogonek.loclNAV
EndChar
StartChar: lslash
Encoding: 322 322 259
Width: 777
VWidth: 2150
GlyphClass: 2
Flags: W
AnchorPoint: "Anchor-1" 389.55 0 basechar 0
AnchorPoint: "Anchor-0" 389.55 1633.8 basechar 0
LayerCount: 2
Fore
SplineSet
206.849609375 0 m 1,0,-1
 206.849609375 462 l 1,1,-1
 103.950195312 404.25 l 1,2,-1
 -29.400390625 638.400390625 l 1,3,-1
 206.849609375 775.950195312 l 1,4,-1
 206.849609375 1633.79980469 l 1,5,-1
 572.25 1633.79980469 l 1,6,-1
 572.25 998.549804688 l 1,7,-1
 668.849609375 1057.34960938 l 1,8,-1
 806.400390625 824.25 l 1,9,-1
 572.25 684.599609375 l 1,10,-1
 572.25 0 l 1,11,-1
 206.849609375 0 l 1,0,-1
EndSplineSet
Validated: 1
EndChar
StartChar: Eng
Encoding: 330 330 267
Width: 1771
VWidth: 2150
GlyphClass: 2
Flags: W
AnchorPoint: "Anchor-1" 886.2 -481.95 basechar 0
AnchorPoint: "Anchor-0" 886.2 1535.1 basechar 0
LayerCount: 2
Fore
SplineSet
1073.09960938 -481.950195312 m 0,0,1
 1001.70019531 -481.950195312 1001.70019531 -481.950195312 946.049804688 -475.125 c 128,-1,2
 890.400390625 -468.299804688 890.400390625 -468.299804688 852.599609375 -459.900390625 c 1,3,-1
 852.599609375 -172.200195312 l 1,4,5
 892.5 -178.5 892.5 -178.5 935.549804688 -185.849609375 c 128,-1,6
 978.599609375 -193.200195312 978.599609375 -193.200195312 1030.04980469 -193.200195312 c 0,7,8
 1111.95019531 -193.200195312 1111.95019531 -193.200195312 1164.45019531 -172.200195312 c 128,-1,9
 1216.95019531 -151.200195312 1216.95019531 -151.200195312 1244.25 -107.625 c 128,-1,10
 1271.54980469 -64.0498046875 1271.54980469 -64.0498046875 1275.75 2.099609375 c 1,11,-1
 498.75 1121.40039062 l 1,12,-1
 489.299804688 1121.40039062 l 1,13,14
 494.549804688 1071 494.549804688 1071 498.75 993.825195312 c 128,-1,15
 502.950195312 916.650390625 502.950195312 916.650390625 506.099609375 834.224609375 c 128,-1,16
 509.25 751.799804688 509.25 751.799804688 509.25 683.549804688 c 2,17,-1
 509.25 0 l 1,18,-1
 179.549804688 0 l 1,19,-1
 179.549804688 1535.09960938 l 1,20,-1
 634.200195312 1535.09960938 l 1,21,-1
 1268.40039062 637.349609375 l 1,22,-1
 1276.79980469 637.349609375 l 1,23,24
 1273.65039062 688.799804688 1273.65039062 688.799804688 1269.97460938 766.5 c 128,-1,25
 1266.29980469 844.200195312 1266.29980469 844.200195312 1263.15039062 926.625 c 128,-1,26
 1260 1009.04980469 1260 1009.04980469 1260 1071 c 2,27,-1
 1260 1535.09960938 l 1,28,-1
 1591.79980469 1535.09960938 l 1,29,-1
 1591.79980469 -4.2001953125 l 2,30,31
 1591.79980469 -163.799804688 1591.79980469 -163.799804688 1526.17480469 -270.375 c 128,-1,32
 1460.54980469 -376.950195312 1460.54980469 -376.950195312 1343.47460938 -429.450195312 c 128,-1,33
 1226.40039062 -481.950195312 1226.40039062 -481.950195312 1073.09960938 -481.950195312 c 0,0,1
EndSplineSet
Validated: 1
AlternateSubs2: "'aalt' Access All Alternates lookup 1 subtable" Eng.alt1 Eng.alt2 Eng.alt3
EndChar
StartChar: eng
Encoding: 331 331 268
Width: 1426
VWidth: 2150
GlyphClass: 2
Flags: W
AnchorPoint: "Anchor-2" 1336.65 1182.3 basechar 0
AnchorPoint: "Anchor-1" 714 -516.6 basechar 0
AnchorPoint: "Anchor-0" 714 1182.3 basechar 0
LayerCount: 2
Fore
SplineSet
870.450195312 -516.599609375 m 0,0,1
 822.150390625 -516.599609375 822.150390625 -516.599609375 762.299804688 -508.724609375 c 128,-1,2
 702.450195312 -500.849609375 702.450195312 -500.849609375 663.599609375 -490.349609375 c 1,3,-1
 663.599609375 -203.700195312 l 1,4,5
 698.25 -214.200195312 698.25 -214.200195312 725.549804688 -218.924804688 c 128,-1,6
 752.849609375 -223.650390625 752.849609375 -223.650390625 787.5 -223.650390625 c 0,7,8
 836.849609375 -223.650390625 836.849609375 -223.650390625 874.125 -187.950195312 c 128,-1,9
 911.400390625 -152.25 911.400390625 -152.25 911.400390625 -45.150390625 c 2,10,-1
 911.400390625 699.299804688 l 2,11,12
 911.400390625 805.349609375 911.400390625 805.349609375 868.875 859.950195312 c 128,-1,13
 826.349609375 914.549804688 826.349609375 914.549804688 745.5 914.549804688 c 0,14,15
 658.349609375 914.549804688 658.349609375 914.549804688 609 870.974609375 c 128,-1,16
 559.650390625 827.400390625 559.650390625 827.400390625 540.224609375 742.875 c 128,-1,17
 520.799804688 658.349609375 520.799804688 658.349609375 520.799804688 536.549804688 c 2,18,-1
 520.799804688 0 l 1,19,-1
 155.400390625 0 l 1,20,-1
 155.400390625 1182.29980469 l 1,21,-1
 432.599609375 1182.29980469 l 1,22,-1
 479.849609375 1033.20019531 l 1,23,-1
 502.950195312 1033.20019531 l 1,24,25
 540.75 1094.09960938 540.75 1094.09960938 596.924804688 1131.375 c 128,-1,26
 653.099609375 1168.65039062 653.099609375 1168.65039062 721.875 1185.97460938 c 128,-1,27
 790.650390625 1203.29980469 790.650390625 1203.29980469 862.049804688 1203.29980469 c 0,28,29
 982.799804688 1203.29980469 982.799804688 1203.29980469 1076.25 1158.15039062 c 128,-1,30
 1169.70019531 1113 1169.70019531 1113 1223.77539062 1017.45019531 c 128,-1,31
 1277.84960938 921.900390625 1277.84960938 921.900390625 1277.84960938 769.650390625 c 2,32,-1
 1277.84960938 -111.299804688 l 2,33,34
 1277.84960938 -218.400390625 1277.84960938 -218.400390625 1237.95019531 -310.799804688 c 128,-1,35
 1198.04980469 -403.200195312 1198.04980469 -403.200195312 1108.79980469 -459.900390625 c 128,-1,36
 1019.54980469 -516.599609375 1019.54980469 -516.599609375 870.450195312 -516.599609375 c 0,0,1
EndSplineSet
Validated: 1
EndChar
StartChar: oe
Encoding: 339 339 276
Width: 2105
VWidth: 2150
GlyphClass: 2
Flags: W
AnchorPoint: "Anchor-1" 1053.15 0 basechar 0
AnchorPoint: "Anchor-0" 1053.15 1182.3 basechar 0
LayerCount: 2
Fore
SplineSet
1485.75 1203.29980469 m 0,0,1
 1644.29980469 1203.29980469 1644.29980469 1203.29980469 1762.95019531 1141.875 c 128,-1,2
 1881.59960938 1080.45019531 1881.59960938 1080.45019531 1947.75 960.75 c 128,-1,3
 2013.90039062 841.049804688 2013.90039062 841.049804688 2013.90039062 663.599609375 c 2,4,-1
 2013.90039062 495.599609375 l 1,5,-1
 1256.84960938 495.599609375 l 1,6,7
 1263.15039062 383.25 1263.15039062 383.25 1336.65039062 313.950195312 c 128,-1,8
 1410.15039062 244.650390625 1410.15039062 244.650390625 1545.59960938 244.650390625 c 0,9,10
 1645.34960938 244.650390625 1645.34960938 244.650390625 1743 265.650390625 c 128,-1,11
 1840.65039062 286.650390625 1840.65039062 286.650390625 1942.5 336 c 1,12,-1
 1942.5 64.0498046875 l 1,13,14
 1855.34960938 19.9501953125 1855.34960938 19.9501953125 1757.17480469 -0.525390625 c 128,-1,15
 1659 -21 1659 -21 1512 -21 c 0,16,17
 1387.04980469 -21 1387.04980469 -21 1278.90039062 16.7998046875 c 128,-1,18
 1170.75 54.599609375 1170.75 54.599609375 1090.95019531 132.299804688 c 1,19,20
 1015.34960938 56.7001953125 1015.34960938 56.7001953125 909.299804688 17.849609375 c 128,-1,21
 803.25 -21 803.25 -21 674.099609375 -21 c 0,22,23
 505.049804688 -21 505.049804688 -21 373.799804688 50.400390625 c 128,-1,24
 242.549804688 121.799804688 242.549804688 121.799804688 168 259.349609375 c 128,-1,25
 93.4501953125 396.900390625 93.4501953125 396.900390625 93.4501953125 593.25 c 256,26,27
 93.4501953125 789.599609375 93.4501953125 789.599609375 163.275390625 925.575195312 c 128,-1,28
 233.099609375 1061.54980469 233.099609375 1061.54980469 363.299804688 1132.42480469 c 128,-1,29
 493.5 1203.29980469 493.5 1203.29980469 676.200195312 1203.29980469 c 0,30,31
 793.799804688 1203.29980469 793.799804688 1203.29980469 896.700195312 1166.02539062 c 128,-1,32
 999.599609375 1128.75 999.599609375 1128.75 1074.15039062 1055.25 c 1,33,34
 1125.59960938 1103.54980469 1125.59960938 1103.54980469 1187.54980469 1136.625 c 128,-1,35
 1249.5 1169.70019531 1249.5 1169.70019531 1323.52539062 1186.5 c 128,-1,36
 1397.54980469 1203.29980469 1397.54980469 1203.29980469 1485.75 1203.29980469 c 0,0,1
674.099609375 921.900390625 m 0,37,38
 563.849609375 921.900390625 563.849609375 921.900390625 515.025390625 839.474609375 c 128,-1,39
 466.200195312 757.049804688 466.200195312 757.049804688 466.200195312 593.25 c 0,40,41
 466.200195312 485.099609375 466.200195312 485.099609375 487.724609375 410.549804688 c 128,-1,42
 509.25 336 509.25 336 555.450195312 298.200195312 c 128,-1,43
 601.650390625 260.400390625 601.650390625 260.400390625 676.200195312 260.400390625 c 256,44,45
 750.75 260.400390625 750.75 260.400390625 796.424804688 298.200195312 c 128,-1,46
 842.099609375 336 842.099609375 336 863.099609375 410.549804688 c 128,-1,47
 884.099609375 485.099609375 884.099609375 485.099609375 884.099609375 593.25 c 0,48,49
 884.099609375 702.450195312 884.099609375 702.450195312 863.099609375 775.424804688 c 128,-1,50
 842.099609375 848.400390625 842.099609375 848.400390625 795.900390625 885.150390625 c 128,-1,51
 749.700195312 921.900390625 749.700195312 921.900390625 674.099609375 921.900390625 c 0,37,38
1476.29980469 950.25 m 0,52,53
 1389.15039062 950.25 1389.15039062 950.25 1331.40039062 899.325195312 c 128,-1,54
 1273.65039062 848.400390625 1273.65039062 848.400390625 1265.25 731.849609375 c 1,55,-1
 1680 731.849609375 l 1,56,57
 1678.95019531 792.75 1678.95019531 792.75 1655.84960938 842.099609375 c 128,-1,58
 1632.75 891.450195312 1632.75 891.450195312 1588.125 920.849609375 c 128,-1,59
 1543.5 950.25 1543.5 950.25 1476.29980469 950.25 c 0,52,53
EndSplineSet
Validated: 1
EndChar
StartChar: Tbar
Encoding: 358 358 295
Width: 1257
VWidth: 2150
GlyphClass: 2
Flags: W
AnchorPoint: "Anchor-1" 630 0 basechar 0
AnchorPoint: "Anchor-0" 630 1535.1 basechar 0
LayerCount: 2
Fore
SplineSet
444.150390625 0 m 1,0,-1
 444.150390625 600.599609375 l 1,1,-1
 205.799804688 600.599609375 l 1,2,-1
 205.799804688 904.049804688 l 1,3,-1
 444.150390625 904.049804688 l 1,4,-1
 444.150390625 1230.59960938 l 1,5,-1
 48.2998046875 1230.59960938 l 1,6,-1
 48.2998046875 1535.09960938 l 1,7,-1
 1209.59960938 1535.09960938 l 1,8,-1
 1209.59960938 1230.59960938 l 1,9,-1
 814.799804688 1230.59960938 l 1,10,-1
 814.799804688 904.049804688 l 1,11,-1
 1055.25 904.049804688 l 1,12,-1
 1055.25 600.599609375 l 1,13,-1
 814.799804688 600.599609375 l 1,14,-1
 814.799804688 0 l 1,15,-1
 444.150390625 0 l 1,0,-1
EndSplineSet
Validated: 1
EndChar
StartChar: Uogonek
Encoding: 370 370 307
Width: 1626
VWidth: 2150
GlyphClass: 2
Flags: W
AnchorPoint: "Anchor-1" 809.55 -516.6 basechar 0
AnchorPoint: "Anchor-0" 813.75 1535.1 basechar 0
LayerCount: 2
Fore
SplineSet
1079.40039062 -201.599609375 m 0,0,1
 1079.40039062 -256.200195312 1079.40039062 -256.200195312 1103.54980469 -278.775390625 c 128,-1,2
 1127.70019531 -301.349609375 1127.70019531 -301.349609375 1164.45019531 -301.349609375 c 0,3,4
 1194.90039062 -301.349609375 1194.90039062 -301.349609375 1229.02539062 -295.049804688 c 128,-1,5
 1263.15039062 -288.75 1263.15039062 -288.75 1285.20019531 -280.349609375 c 1,6,-1
 1285.20019531 -490.349609375 l 1,7,8
 1250.54980469 -499.799804688 1250.54980469 -499.799804688 1209.07519531 -508.200195312 c 128,-1,9
 1167.59960938 -516.599609375 1167.59960938 -516.599609375 1111.95019531 -516.599609375 c 0,10,11
 990.150390625 -516.599609375 990.150390625 -516.599609375 912.974609375 -447.825195312 c 128,-1,12
 835.799804688 -379.049804688 835.799804688 -379.049804688 835.799804688 -257.25 c 0,13,14
 835.799804688 -193.200195312 835.799804688 -193.200195312 862.575195312 -130.200195312 c 128,-1,15
 889.349609375 -67.2001953125 889.349609375 -67.2001953125 942.900390625 -6.2998046875 c 128,-1,16
 996.450195312 54.599609375 996.450195312 54.599609375 1076.25 110.25 c 1,17,-1
 1294.65039062 151.200195312 l 1,18,19
 1224.29980469 78.75 1224.29980469 78.75 1176 18.375 c 128,-1,20
 1127.70019531 -42 1127.70019531 -42 1103.54980469 -95.025390625 c 128,-1,21
 1079.40039062 -148.049804688 1079.40039062 -148.049804688 1079.40039062 -201.599609375 c 0,0,1
1457.40039062 1535.09960938 m 1,22,-1
 1457.40039062 576.450195312 l 2,23,24
 1457.40039062 401.099609375 1457.40039062 401.099609375 1385.47460938 266.174804688 c 128,-1,25
 1313.54980469 131.25 1313.54980469 131.25 1169.70019531 55.125 c 128,-1,26
 1025.84960938 -21 1025.84960938 -21 807.450195312 -21 c 0,27,28
 496.650390625 -21 496.650390625 -21 333.375 138.075195312 c 128,-1,29
 170.099609375 297.150390625 170.099609375 297.150390625 170.099609375 574.349609375 c 2,30,-1
 170.099609375 1535.09960938 l 1,31,-1
 540.75 1535.09960938 l 1,32,-1
 540.75 615.299804688 l 2,33,34
 540.75 438.900390625 540.75 438.900390625 610.049804688 363.825195312 c 128,-1,35
 679.349609375 288.75 679.349609375 288.75 814.799804688 288.75 c 0,36,37
 911.400390625 288.75 911.400390625 288.75 971.25 322.875 c 128,-1,38
 1031.09960938 357 1031.09960938 357 1059.45019531 429.974609375 c 128,-1,39
 1087.79980469 502.950195312 1087.79980469 502.950195312 1087.79980469 617.400390625 c 2,40,-1
 1087.79980469 1535.09960938 l 1,41,-1
 1457.40039062 1535.09960938 l 1,22,-1
EndSplineSet
Validated: 5
Substitution2: "'locl' Localized Forms in Latin lookup 8 subtable" Uogonek.loclNAV
Ligature2: "'ccmp' Glyph Composition/Decomposition lookup 5 subtable" U uni0328
Substitution2: "'aalt' Access All Alternates lookup 0 subtable" Uogonek.loclNAV
EndChar
StartChar: florin
Encoding: 402 402 321
Width: 1211
VWidth: 2150
GlyphClass: 2
Flags: W
AnchorPoint: "Anchor-1" 605.85 -516.6 basechar 0
AnchorPoint: "Anchor-0" 748.65 1601.25 basechar 0
LayerCount: 2
Fore
SplineSet
805.349609375 1601.25 m 0,0,1
 898.799804688 1601.25 898.799804688 1601.25 977.549804688 1585.5 c 128,-1,2
 1056.29980469 1569.75 1056.29980469 1569.75 1114.04980469 1548.75 c 1,3,-1
 1036.34960938 1295.70019531 l 1,4,5
 1001.70019531 1307.25 1001.70019531 1307.25 965.474609375 1315.65039062 c 128,-1,6
 929.25 1324.04980469 929.25 1324.04980469 887.25 1324.04980469 c 0,7,8
 828.450195312 1324.04980469 828.450195312 1324.04980469 802.724609375 1286.25 c 128,-1,9
 777 1248.45019531 777 1248.45019531 777 1177.04980469 c 2,10,-1
 777 1138.20019531 l 1,11,-1
 1031.09960938 1138.20019531 l 1,12,-1
 1031.09960938 864.150390625 l 1,13,-1
 777 864.150390625 l 1,14,-1
 777 -107.099609375 l 2,15,16
 777 -227.849609375 777 -227.849609375 735 -320.25 c 128,-1,17
 693 -412.650390625 693 -412.650390625 606.375 -464.625 c 128,-1,18
 519.75 -516.599609375 519.75 -516.599609375 386.400390625 -516.599609375 c 0,19,20
 332.849609375 -516.599609375 332.849609375 -516.599609375 273.525390625 -508.200195312 c 128,-1,21
 214.200195312 -499.799804688 214.200195312 -499.799804688 176.400390625 -488.25 c 1,22,-1
 176.400390625 -203.700195312 l 1,23,24
 208.950195312 -214.200195312 208.950195312 -214.200195312 235.200195312 -218.924804688 c 128,-1,25
 261.450195312 -223.650390625 261.450195312 -223.650390625 297.150390625 -223.650390625 c 0,26,27
 348.599609375 -223.650390625 348.599609375 -223.650390625 380.099609375 -186.375 c 128,-1,28
 411.599609375 -149.099609375 411.599609375 -149.099609375 411.599609375 -58.7998046875 c 2,29,-1
 411.599609375 864.150390625 l 1,30,-1
 245.700195312 864.150390625 l 1,31,-1
 245.700195312 1041.59960938 l 1,32,-1
 415.799804688 1135.04980469 l 1,33,-1
 415.799804688 1198.04980469 l 2,34,35
 415.799804688 1349.25 415.799804688 1349.25 460.424804688 1437.45019531 c 128,-1,36
 505.049804688 1525.65039062 505.049804688 1525.65039062 592.200195312 1563.45019531 c 128,-1,37
 679.349609375 1601.25 679.349609375 1601.25 805.349609375 1601.25 c 0,0,1
EndSplineSet
Validated: 1
Substitution2: "'ss04' Style Set 4 lookup 38 subtable" florin.ss03
EndChar
StartChar: uhorn
Encoding: 432 432 599
Width: 1688
VWidth: 2150
GlyphClass: 2
Flags: W
AnchorPoint: "Anchor-1" 694.05 0 basechar 0
AnchorPoint: "Anchor-0" 711.9 1182.3 basechar 0
LayerCount: 2
Fore
SplineSet
1760.84960938 1356.59960938 m 1,0,-1
 1776.59960938 1333.5 l 1,1,2
 1758.75 1242.15039062 1758.75 1242.15039062 1728.82519531 1160.77539062 c 128,-1,3
 1698.90039062 1079.40039062 1698.90039062 1079.40039062 1644.82519531 1013.77539062 c 128,-1,4
 1590.75 948.150390625 1590.75 948.150390625 1500.97460938 902.474609375 c 128,-1,5
 1411.20019531 856.799804688 1411.20019531 856.799804688 1272.59960938 835.799804688 c 1,6,-1
 1272.59960938 0 l 1,7,-1
 994.349609375 0 l 1,8,-1
 947.099609375 149.099609375 l 1,9,-1
 924 149.099609375 l 1,10,11
 886.200195312 89.25 886.200195312 89.25 829.5 51.974609375 c 128,-1,12
 772.799804688 14.7001953125 772.799804688 14.7001953125 705.075195312 -3.150390625 c 128,-1,13
 637.349609375 -21 637.349609375 -21 565.950195312 -21 c 0,14,15
 445.200195312 -21 445.200195312 -21 351.224609375 24.150390625 c 128,-1,16
 257.25 69.2998046875 257.25 69.2998046875 204.224609375 164.849609375 c 128,-1,17
 151.200195312 260.400390625 151.200195312 260.400390625 151.200195312 411.599609375 c 2,18,-1
 151.200195312 1182.29980469 l 1,19,-1
 516.599609375 1182.29980469 l 1,20,-1
 516.599609375 514.5 l 2,21,22
 516.599609375 393.75 516.599609375 393.75 555.450195312 331.275390625 c 128,-1,23
 594.299804688 268.799804688 594.299804688 268.799804688 681.450195312 268.799804688 c 0,24,25
 813.75 268.799804688 813.75 268.799804688 859.950195312 365.924804688 c 128,-1,26
 906.150390625 463.049804688 906.150390625 463.049804688 906.150390625 645.75 c 2,27,-1
 906.150390625 1182.29980469 l 1,28,-1
 1272.59960938 1182.29980469 l 1,29,-1
 1272.59960938 1050 l 1,30,31
 1317.75 1069.95019531 1317.75 1069.95019531 1347.15039062 1114.57519531 c 128,-1,32
 1376.54980469 1159.20019531 1376.54980469 1159.20019531 1390.72460938 1222.20019531 c 128,-1,33
 1404.90039062 1285.20019531 1404.90039062 1285.20019531 1404.90039062 1356.59960938 c 1,34,-1
 1760.84960938 1356.59960938 l 1,0,-1
EndSplineSet
Validated: 1
EndChar
StartChar: uni01CE
Encoding: 462 462 1141
Width: 1241
GlyphClass: 1
Flags: W
LayerCount: 2
Fore
SplineSet
442 -29 m 0,0,1
 336 -29 336 -29 258 19.5 c 128,-1,2
 180 68 180 68 138 148.5 c 128,-1,3
 96 229 96 229 96 326 c 0,4,5
 96 510 96 510 249.5 613.5 c 128,-1,6
 403 717 403 717 743 754 c 1,7,8
 739 801 739 801 720.5 834.5 c 128,-1,9
 702 868 702 868 664.5 885.5 c 128,-1,10
 627 903 627 903 567 903 c 0,11,12
 497 903 497 903 423.5 876.5 c 128,-1,13
 350 850 350 850 262 801 c 1,14,-1
 135 1040 l 1,15,16
 213 1087 213 1087 294 1121 c 128,-1,17
 375 1155 375 1155 461 1174.5 c 128,-1,18
 547 1194 547 1194 637 1194 c 0,19,20
 789 1194 789 1194 893 1136.5 c 128,-1,21
 997 1079 997 1079 1052.5 961.5 c 128,-1,22
 1108 844 1108 844 1108 662 c 2,23,-1
 1108 0 l 1,24,-1
 811 0 l 1,25,-1
 786 117 l 1,26,-1
 776 117 l 1,27,28
 704 54 704 54 621 12.5 c 128,-1,29
 538 -29 538 -29 442 -29 c 0,0,1
567 254 m 0,30,31
 622 254 622 254 663.5 278.5 c 128,-1,32
 705 303 705 303 743 346 c 1,33,-1
 743 532 l 1,34,35
 630 518 630 518 564 491.5 c 128,-1,36
 498 465 498 465 470 430 c 128,-1,37
 442 395 442 395 442 354 c 0,38,39
 442 303 442 303 476 278.5 c 128,-1,40
 510 254 510 254 567 254 c 0,30,31
465 1354 m 1,41,-1
 213 1657 l 1,42,-1
 352 1786 l 1,43,-1
 647 1577 l 1,44,-1
 655 1577 l 1,45,-1
 952 1786 l 1,46,-1
 1087 1657 l 1,47,-1
 836 1354 l 1,48,-1
 465 1354 l 1,41,-1
EndSplineSet
Validated: 1
EndChar
StartChar: uni01CF
Encoding: 463 463 1142
Width: 716
GlyphClass: 1
Flags: W
LayerCount: 2
Fore
SplineSet
176 0 m 1,0,-1
 176 1526 l 1,1,-1
 543 1526 l 1,2,-1
 543 0 l 1,3,-1
 176 0 l 1,0,-1
164 1642 m 1,4,-1
 -41 1903 l 1,5,-1
 115 1997 l 1,6,-1
 358 1804 l 1,7,-1
 367 1804 l 1,8,-1
 610 1997 l 1,9,-1
 768 1903 l 1,10,-1
 561 1642 l 1,11,-1
 164 1642 l 1,4,-1
EndSplineSet
Validated: 1
EndChar
StartChar: uni01D0
Encoding: 464 464 1143
Width: 657
GlyphClass: 1
Flags: W
LayerCount: 2
Fore
SplineSet
147 0 m 1,0,-1
 147 1165 l 1,1,-1
 512 1165 l 1,2,-1
 512 0 l 1,3,-1
 147 0 l 1,0,-1
141 1354 m 1,4,-1
 -109 1657 l 1,5,-1
 29 1786 l 1,6,-1
 324 1577 l 1,7,-1
 334 1577 l 1,8,-1
 629 1786 l 1,9,-1
 766 1657 l 1,10,-1
 516 1354 l 1,11,-1
 141 1354 l 1,4,-1
EndSplineSet
Validated: 1
EndChar
StartChar: uni01D1
Encoding: 465 465 1144
Width: 1609
GlyphClass: 1
Flags: W
LayerCount: 2
Fore
SplineSet
805 -29 m 0,0,1
 598 -29 598 -29 440.5 66.5 c 128,-1,2
 283 162 283 162 194.5 341 c 128,-1,3
 106 520 106 520 106 770 c 256,4,5
 106 1020 106 1020 194.5 1195 c 128,-1,6
 283 1370 283 1370 440.5 1461 c 128,-1,7
 598 1552 598 1552 805 1552 c 0,8,9
 1014 1552 1014 1552 1170.5 1460 c 128,-1,10
 1327 1368 1327 1368 1415 1194 c 128,-1,11
 1503 1020 1503 1020 1503 770 c 256,12,13
 1503 520 1503 520 1415 341 c 128,-1,14
 1327 162 1327 162 1170.5 66.5 c 128,-1,15
 1014 -29 1014 -29 805 -29 c 0,0,1
805 287 m 256,16,17
 905 287 905 287 978 346.5 c 128,-1,18
 1051 406 1051 406 1090.5 514.5 c 128,-1,19
 1130 623 1130 623 1130 770 c 256,20,21
 1130 917 1130 917 1090.5 1022.5 c 128,-1,22
 1051 1128 1051 1128 978 1183.5 c 128,-1,23
 905 1239 905 1239 805 1239 c 256,24,25
 705 1239 705 1239 632 1183.5 c 128,-1,26
 559 1128 559 1128 520 1023 c 128,-1,27
 481 918 481 918 481 770 c 256,28,29
 481 623 481 623 520 514.5 c 128,-1,30
 559 406 559 406 632 346.5 c 128,-1,31
 705 287 705 287 805 287 c 256,16,17
606 1642 m 1,32,-1
 399 1903 l 1,33,-1
 557 1997 l 1,34,-1
 801 1804 l 1,35,-1
 809 1804 l 1,36,-1
 1053 1997 l 1,37,-1
 1210 1903 l 1,38,-1
 1004 1642 l 1,39,-1
 606 1642 l 1,32,-1
EndSplineSet
Validated: 1
EndChar
StartChar: uni01D2
Encoding: 466 466 1145
Width: 1304
GlyphClass: 1
Flags: W
LayerCount: 2
Fore
SplineSet
653 -29 m 256,0,1
 506 -29 506 -29 375 44 c 128,-1,2
 244 117 244 117 163 254 c 128,-1,3
 82 391 82 391 82 584 c 256,4,5
 82 777 82 777 163 913 c 128,-1,6
 244 1049 244 1049 375 1121.5 c 128,-1,7
 506 1194 506 1194 653 1194 c 0,8,9
 764 1194 764 1194 866.5 1153 c 128,-1,10
 969 1112 969 1112 1048.5 1033 c 128,-1,11
 1128 954 1128 954 1175.5 841.5 c 128,-1,12
 1223 729 1223 729 1223 584 c 0,13,14
 1223 391 1223 391 1142 254 c 128,-1,15
 1061 117 1061 117 930.5 44 c 128,-1,16
 800 -29 800 -29 653 -29 c 256,0,1
653 266 m 256,17,18
 721 266 721 266 765 305 c 128,-1,19
 809 344 809 344 829.5 415.5 c 128,-1,20
 850 487 850 487 850 584 c 256,21,22
 850 680 850 680 829.5 750.5 c 128,-1,23
 809 821 809 821 765 860 c 128,-1,24
 721 899 721 899 653 899 c 256,25,26
 585 899 585 899 541.5 860 c 128,-1,27
 498 821 498 821 476.5 750.5 c 128,-1,28
 455 680 455 680 455 584 c 256,29,30
 455 488 455 488 476.5 416 c 128,-1,31
 498 344 498 344 541.5 305 c 128,-1,32
 585 266 585 266 653 266 c 256,17,18
467 1354 m 1,33,-1
 215 1657 l 1,34,-1
 352 1786 l 1,35,-1
 647 1577 l 1,36,-1
 657 1577 l 1,37,-1
 954 1786 l 1,38,-1
 1090 1657 l 1,39,-1
 838 1354 l 1,40,-1
 467 1354 l 1,33,-1
EndSplineSet
Validated: 1
EndChar
StartChar: uni01D4
Encoding: 468 468 1147
Width: 1339
GlyphClass: 1
Flags: W
LayerCount: 2
Fore
SplineSet
500 -29 m 0,0,1
 307 -29 307 -29 221 99 c 128,-1,2
 135 227 135 227 135 444 c 2,3,-1
 135 1165 l 1,4,-1
 500 1165 l 1,5,-1
 500 489 l 2,6,7
 500 370 500 370 532.5 326.5 c 128,-1,8
 565 283 565 283 635 283 c 0,9,10
 696 283 696 283 740 310.5 c 128,-1,11
 784 338 784 338 829 401 c 1,12,-1
 829 1165 l 1,13,-1
 1194 1165 l 1,14,-1
 1194 0 l 1,15,-1
 897 0 l 1,16,-1
 870 160 l 1,17,-1
 862 160 l 1,18,19
 790 74 790 74 704.5 22.5 c 128,-1,20
 619 -29 619 -29 500 -29 c 0,0,1
485 1354 m 1,21,-1
 233 1657 l 1,22,-1
 371 1786 l 1,23,-1
 666 1577 l 1,24,-1
 676 1577 l 1,25,-1
 971 1786 l 1,26,-1
 1110 1657 l 1,27,-1
 858 1354 l 1,28,-1
 485 1354 l 1,21,-1
EndSplineSet
Validated: 1
EndChar
StartChar: uni01D9
Encoding: 473 473 1152
Width: 1562
GlyphClass: 1
Flags: W
LayerCount: 2
Fore
SplineSet
786 -29 m 0,0,1
 632 -29 632 -29 516.5 15 c 128,-1,2
 401 59 401 59 323.5 150.5 c 128,-1,3
 246 242 246 242 207 383 c 128,-1,4
 168 524 168 524 168 717 c 2,5,-1
 168 1526 l 1,6,-1
 532 1526 l 1,7,-1
 532 678 l 2,8,9
 532 535 532 535 561 448.5 c 128,-1,10
 590 362 590 362 646 324.5 c 128,-1,11
 702 287 702 287 786 287 c 256,12,13
 870 287 870 287 927.5 324.5 c 128,-1,14
 985 362 985 362 1014.5 448.5 c 128,-1,15
 1044 535 1044 535 1044 678 c 2,16,-1
 1044 1526 l 1,17,-1
 1397 1526 l 1,18,-1
 1397 717 l 2,19,20
 1397 524 1397 524 1359 383 c 128,-1,21
 1321 242 1321 242 1244 150.5 c 128,-1,22
 1167 59 1167 59 1052.5 15 c 128,-1,23
 938 -29 938 -29 786 -29 c 0,0,1
623 2005 m 1,24,-1
 414 2247 l 1,25,-1
 557 2343 l 1,26,-1
 776 2171 l 1,27,-1
 786 2171 l 1,28,-1
 1006 2343 l 1,29,-1
 1149 2247 l 1,30,-1
 940 2005 l 1,31,-1
 623 2005 l 1,24,-1
518 1634 m 256,32,33
 452 1634 452 1634 410.5 1678 c 128,-1,34
 369 1722 369 1722 369 1784 c 0,35,36
 369 1850 369 1850 411 1892.5 c 128,-1,37
 453 1935 453 1935 518 1935 c 256,38,39
 584 1935 584 1935 627 1892 c 128,-1,40
 670 1849 670 1849 670 1784 c 0,41,42
 670 1723 670 1723 627 1678.5 c 128,-1,43
 584 1634 584 1634 518 1634 c 256,32,33
1044 1634 m 256,44,45
 978 1634 978 1634 935.5 1678 c 128,-1,46
 893 1722 893 1722 893 1784 c 0,47,48
 893 1850 893 1850 936 1892.5 c 128,-1,49
 979 1935 979 1935 1044 1935 c 256,50,51
 1110 1935 1110 1935 1152 1892 c 128,-1,52
 1194 1849 1194 1849 1194 1784 c 0,53,54
 1194 1723 1194 1723 1152 1678.5 c 128,-1,55
 1110 1634 1110 1634 1044 1634 c 256,44,45
EndSplineSet
Validated: 1
EndChar
StartChar: uni01DA
Encoding: 474 474 1153
Width: 1339
GlyphClass: 1
Flags: W
LayerCount: 2
Fore
SplineSet
500 -29 m 0,0,1
 307 -29 307 -29 221 99 c 128,-1,2
 135 227 135 227 135 444 c 2,3,-1
 135 1165 l 1,4,-1
 500 1165 l 1,5,-1
 500 489 l 2,6,7
 500 370 500 370 532.5 326.5 c 128,-1,8
 565 283 565 283 635 283 c 0,9,10
 696 283 696 283 740 310.5 c 128,-1,11
 784 338 784 338 829 401 c 1,12,-1
 829 1165 l 1,13,-1
 1194 1165 l 1,14,-1
 1194 0 l 1,15,-1
 897 0 l 1,16,-1
 870 160 l 1,17,-1
 862 160 l 1,18,19
 790 74 790 74 704.5 22.5 c 128,-1,20
 619 -29 619 -29 500 -29 c 0,0,1
526 1735 m 1,21,-1
 315 1948 l 1,22,-1
 430 2056 l 1,23,-1
 666 1907 l 1,24,-1
 676 1907 l 1,25,-1
 911 2056 l 1,26,-1
 1028 1948 l 1,27,-1
 817 1735 l 1,28,-1
 526 1735 l 1,21,-1
412 1333 m 256,29,30
 346 1333 346 1333 304 1375 c 128,-1,31
 262 1417 262 1417 262 1481 c 0,32,33
 262 1547 262 1547 304 1588.5 c 128,-1,34
 346 1630 346 1630 412 1630 c 256,35,36
 478 1630 478 1630 520.5 1588 c 128,-1,37
 563 1546 563 1546 563 1481 c 0,38,39
 563 1418 563 1418 520.5 1375.5 c 128,-1,40
 478 1333 478 1333 412 1333 c 256,29,30
932 1333 m 256,41,42
 866 1333 866 1333 823 1375 c 128,-1,43
 780 1417 780 1417 780 1481 c 0,44,45
 780 1547 780 1547 823 1588.5 c 128,-1,46
 866 1630 866 1630 932 1630 c 256,47,48
 998 1630 998 1630 1039.5 1588 c 128,-1,49
 1081 1546 1081 1546 1081 1481 c 0,50,51
 1081 1418 1081 1418 1039.5 1375.5 c 128,-1,52
 998 1333 998 1333 932 1333 c 256,41,42
EndSplineSet
Validated: 1
EndChar
StartChar: uni01DC
Encoding: 476 476 1155
Width: 1339
GlyphClass: 1
Flags: W
LayerCount: 2
Fore
SplineSet
500 -29 m 0,0,1
 307 -29 307 -29 221 99 c 128,-1,2
 135 227 135 227 135 444 c 2,3,-1
 135 1165 l 1,4,-1
 500 1165 l 1,5,-1
 500 489 l 2,6,7
 500 370 500 370 532.5 326.5 c 128,-1,8
 565 283 565 283 635 283 c 0,9,10
 696 283 696 283 740 310.5 c 128,-1,11
 784 338 784 338 829 401 c 1,12,-1
 829 1165 l 1,13,-1
 1194 1165 l 1,14,-1
 1194 0 l 1,15,-1
 897 0 l 1,16,-1
 870 160 l 1,17,-1
 862 160 l 1,18,19
 790 74 790 74 704.5 22.5 c 128,-1,20
 619 -29 619 -29 500 -29 c 0,0,1
412 1333 m 256,21,22
 346 1333 346 1333 304 1375 c 128,-1,23
 262 1417 262 1417 262 1481 c 0,24,25
 262 1547 262 1547 304 1588.5 c 128,-1,26
 346 1630 346 1630 412 1630 c 256,27,28
 478 1630 478 1630 520.5 1588 c 128,-1,29
 563 1546 563 1546 563 1481 c 0,30,31
 563 1418 563 1418 520.5 1375.5 c 128,-1,32
 478 1333 478 1333 412 1333 c 256,21,22
651 1671 m 1,33,-1
 414 1952 l 1,34,-1
 608 2077 l 1,35,-1
 788 1759 l 1,36,-1
 651 1671 l 1,33,-1
932 1333 m 256,37,38
 866 1333 866 1333 823 1375 c 128,-1,39
 780 1417 780 1417 780 1481 c 0,40,41
 780 1547 780 1547 823 1588.5 c 128,-1,42
 866 1630 866 1630 932 1630 c 256,43,44
 998 1630 998 1630 1039.5 1588 c 128,-1,45
 1081 1546 1081 1546 1081 1481 c 0,46,47
 1081 1418 1081 1418 1039.5 1375.5 c 128,-1,48
 998 1333 998 1333 932 1333 c 256,37,38
EndSplineSet
Validated: 1
EndChar
StartChar: uni01F8
Encoding: 504 504 1156
Width: 1564
GlyphClass: 1
Flags: W
LayerCount: 2
Fore
SplineSet
176 0 m 1,0,-1
 176 1526 l 1,1,-1
 549 1526 l 1,2,-1
 928 795 l 1,3,-1
 1077 457 l 1,4,-1
 1087 457 l 1,5,6
 1073 578 1073 578 1055.5 730.5 c 128,-1,7
 1038 883 1038 883 1038 1020 c 2,8,-1
 1038 1526 l 1,9,-1
 1386 1526 l 1,10,-1
 1386 0 l 1,11,-1
 1014 0 l 1,12,-1
 637 735 l 1,13,-1
 487 1069 l 1,14,-1
 477 1069 l 1,15,16
 489 942 489 942 506.5 793.5 c 128,-1,17
 524 645 524 645 524 506 c 2,18,-1
 524 0 l 1,19,-1
 176 0 l 1,0,-1
815 1589 m 1,20,-1
 377 1868 l 1,21,-1
 567 2103 l 1,22,-1
 979 1772 l 1,23,-1
 815 1589 l 1,20,-1
EndSplineSet
Validated: 1
EndChar
StartChar: uni01F9
Encoding: 505 505 1157
Width: 1347
GlyphClass: 1
Flags: W
LayerCount: 2
Fore
SplineSet
147 0 m 1,0,-1
 147 1165 l 1,1,-1
 444 1165 l 1,2,-1
 471 1020 l 1,3,-1
 477 1020 l 1,4,5
 549 1092 549 1092 640 1143 c 128,-1,6
 731 1194 731 1194 850 1194 c 0,7,8
 1040 1194 1040 1194 1126 1067 c 128,-1,9
 1212 940 1212 940 1212 721 c 2,10,-1
 1212 0 l 1,11,-1
 848 0 l 1,12,-1
 848 676 l 2,13,14
 848 797 848 797 815 840 c 128,-1,15
 782 883 782 883 713 883 c 0,16,17
 652 883 652 883 608.5 856 c 128,-1,18
 565 829 565 829 512 778 c 1,19,-1
 512 0 l 1,20,-1
 147 0 l 1,0,-1
707 1341 m 1,21,-1
 276 1710 l 1,22,-1
 522 1952 l 1,23,-1
 887 1518 l 1,24,-1
 707 1341 l 1,21,-1
EndSplineSet
Validated: 1
EndChar
StartChar: uni0251
Encoding: 593 593 1158
Width: 1349
GlyphClass: 1
Flags: W
LayerCount: 2
Fore
SplineSet
565 -29 m 0,0,1
 420 -29 420 -29 312.5 45 c 128,-1,2
 205 119 205 119 146.5 256 c 128,-1,3
 88 393 88 393 88 584 c 256,4,5
 88 774 88 774 158.5 910.5 c 128,-1,6
 229 1047 229 1047 342 1120.5 c 128,-1,7
 455 1194 455 1194 580 1194 c 0,8,9
 666 1194 666 1194 738.5 1160 c 128,-1,10
 811 1126 811 1126 879 1051 c 1,11,-1
 887 1051 l 1,12,-1
 915 1165 l 1,13,-1
 1202 1165 l 1,14,-1
 1202 367 l 2,15,16
 1202 310 1202 310 1217.5 288 c 128,-1,17
 1233 266 1233 266 1257 266 c 0,18,19
 1265 266 1265 266 1270.5 267 c 128,-1,20
 1276 268 1276 268 1288 270 c 1,21,-1
 1331 2 l 1,22,23
 1300 -8 1300 -8 1261.5 -18.5 c 128,-1,24
 1223 -29 1223 -29 1169 -29 c 0,25,26
 1063 -29 1063 -29 994.5 11 c 128,-1,27
 926 51 926 51 891 125 c 1,28,-1
 883 125 l 1,29,30
 826 66 826 66 743.5 18.5 c 128,-1,31
 661 -29 661 -29 565 -29 c 0,0,1
662 270 m 0,32,33
 715 270 715 270 757 290.5 c 128,-1,34
 799 311 799 311 838 369 c 1,35,-1
 838 827 l 1,36,37
 797 866 797 866 749.5 881.5 c 128,-1,38
 702 897 702 897 655 897 c 0,39,40
 606 897 606 897 562 864 c 128,-1,41
 518 831 518 831 490.5 763.5 c 128,-1,42
 463 696 463 696 463 588 c 0,43,44
 463 477 463 477 486.5 406.5 c 128,-1,45
 510 336 510 336 555.5 303 c 128,-1,46
 601 270 601 270 662 270 c 0,32,33
EndSplineSet
Validated: 1
EndChar
StartChar: uni02BB
Encoding: 699 699 1167
Width: 718
GlyphClass: 1
Flags: W
LayerCount: 2
Fore
SplineSet
358 766 m 0,0,1
 245 766 245 766 186 850 c 128,-1,2
 127 934 127 934 127 1085 c 0,3,4
 127 1255 127 1255 213 1383 c 128,-1,5
 299 1511 299 1511 473 1597 c 1,6,-1
 551 1438 l 1,7,8
 442 1387 442 1387 389 1315 c 128,-1,9
 336 1243 336 1243 336 1139 c 2,10,-1
 342 930 l 1,11,-1
 225 1092 l 1,12,13
 254 1115 254 1115 288 1130 c 128,-1,14
 322 1145 322 1145 358 1145 c 0,15,16
 436 1145 436 1145 490.5 1097 c 128,-1,17
 545 1049 545 1049 545 965 c 0,18,19
 545 875 545 875 492.5 820.5 c 128,-1,20
 440 766 440 766 358 766 c 0,0,1
EndSplineSet
Validated: 5
Substitution2: "NotoSansJP-Black-'locl' Localized Forms lookup 15 subtable" uni02BB.aalt.aalt
Substitution2: "NotoSansJP-Black-'fwid' Full Widths lookup 6 subtable" uni02BB.aalt
Substitution2: "NotoSansJP-Black-'aalt' Access All Alternates lookup 0 subtable" uni02BB.aalt
EndChar
StartChar: uni02CB
Encoding: 715 715 1161
Width: 1228
GlyphClass: 1
Flags: W
LayerCount: 2
Fore
SplineSet
1063 1073 m 1,0,-1
 438 1755 l 1,1,-1
 188 1520 l 1,2,-1
 872 881 l 1,3,-1
 1063 1073 l 1,0,-1
EndSplineSet
Validated: 9
Substitution2: "NotoSansJP-Black-'vrt2' Vertical Rotation & Alternates lookup 16 subtable" gravecomb
Substitution2: "NotoSansJP-Black-'ruby' Ruby Notational Forms lookup 9 subtable" gravecomb
Substitution2: "NotoSansJP-Black-'aalt' Access All Alternates lookup 0 subtable" gravecomb
EndChar
StartChar: breve
Encoding: 728 728 333
Width: 1010
VWidth: 2150
GlyphClass: 1
Flags: W
LayerCount: 2
Fore
SplineSet
924 1675.79980469 m 1,0,1
 916.650390625 1565.54980469 916.650390625 1565.54980469 863.625 1481.54980469 c 128,-1,2
 810.599609375 1397.54980469 810.599609375 1397.54980469 718.200195312 1350.29980469 c 128,-1,3
 625.799804688 1303.04980469 625.799804688 1303.04980469 500.849609375 1303.04980469 c 0,4,5
 306.599609375 1303.04980469 306.599609375 1303.04980469 200.549804688 1403.84960938 c 128,-1,6
 94.5 1504.65039062 94.5 1504.65039062 86.099609375 1675.79980469 c 1,7,-1
 286.650390625 1675.79980469 l 1,8,9
 297.150390625 1615.95019531 297.150390625 1615.95019531 324.974609375 1587.07519531 c 128,-1,10
 352.799804688 1558.20019531 352.799804688 1558.20019531 397.424804688 1549.79980469 c 128,-1,11
 442.049804688 1541.40039062 442.049804688 1541.40039062 501.900390625 1541.40039062 c 0,12,13
 550.200195312 1541.40039062 550.200195312 1541.40039062 595.875 1551.375 c 128,-1,14
 641.549804688 1561.34960938 641.549804688 1561.34960938 674.099609375 1590.75 c 128,-1,15
 706.650390625 1620.15039062 706.650390625 1620.15039062 717.150390625 1675.79980469 c 1,16,-1
 924 1675.79980469 l 1,0,1
EndSplineSet
Validated: 1
EndChar
StartChar: ring
Encoding: 730 730 335
Width: 717
VWidth: 2150
GlyphClass: 1
Flags: W
LayerCount: 2
Fore
SplineSet
354.900390625 1299.90039062 m 0,0,1
 235.200195312 1299.90039062 235.200195312 1299.90039062 160.650390625 1368.67480469 c 128,-1,2
 86.099609375 1437.45019531 86.099609375 1437.45019531 86.099609375 1557.15039062 c 0,3,4
 86.099609375 1677.90039062 86.099609375 1677.90039062 160.650390625 1746.67480469 c 128,-1,5
 235.200195312 1815.45019531 235.200195312 1815.45019531 354.900390625 1815.45019531 c 0,6,7
 470.400390625 1815.45019531 470.400390625 1815.45019531 550.724609375 1746.67480469 c 128,-1,8
 631.049804688 1677.90039062 631.049804688 1677.90039062 631.049804688 1559.25 c 0,9,10
 631.049804688 1438.5 631.049804688 1438.5 551.25 1369.20019531 c 128,-1,11
 471.450195312 1299.90039062 471.450195312 1299.90039062 354.900390625 1299.90039062 c 0,0,1
354.900390625 1462.65039062 m 0,12,13
 394.799804688 1462.65039062 394.799804688 1462.65039062 422.099609375 1488.375 c 128,-1,14
 449.400390625 1514.09960938 449.400390625 1514.09960938 449.400390625 1557.15039062 c 256,15,16
 449.400390625 1600.20019531 449.400390625 1600.20019531 422.099609375 1625.92480469 c 128,-1,17
 394.799804688 1651.65039062 394.799804688 1651.65039062 354.900390625 1651.65039062 c 256,18,19
 315 1651.65039062 315 1651.65039062 287.700195312 1625.92480469 c 128,-1,20
 260.400390625 1600.20019531 260.400390625 1600.20019531 260.400390625 1557.15039062 c 256,21,22
 260.400390625 1514.09960938 260.400390625 1514.09960938 284.549804688 1488.375 c 128,-1,23
 308.700195312 1462.65039062 308.700195312 1462.65039062 354.900390625 1462.65039062 c 0,12,13
EndSplineSet
Validated: 1
EndChar
StartChar: hungarumlaut
Encoding: 733 733 338
Width: 1188
VWidth: 2150
GlyphClass: 1
Flags: W
LayerCount: 2
Fore
SplineSet
1102.5 1647.45019531 m 1,0,-1
 1102.5 1625.40039062 l 1,1,2
 1085.70019531 1597.04980469 1085.70019531 1597.04980469 1041.07519531 1555.04980469 c 128,-1,3
 996.450195312 1513.04980469 996.450195312 1513.04980469 939.75 1465.79980469 c 128,-1,4
 883.049804688 1418.54980469 883.049804688 1418.54980469 826.875 1375.5 c 128,-1,5
 770.700195312 1332.45019531 770.700195312 1332.45019531 729.75 1303.04980469 c 1,6,-1
 537.599609375 1303.04980469 l 1,7,-1
 537.599609375 1332.45019531 l 1,8,9
 568.049804688 1373.40039062 568.049804688 1373.40039062 607.424804688 1429.04980469 c 128,-1,10
 646.799804688 1484.70019531 646.799804688 1484.70019531 685.125 1541.92480469 c 128,-1,11
 723.450195312 1599.15039062 723.450195312 1599.15039062 748.650390625 1647.45019531 c 1,12,-1
 1102.5 1647.45019531 l 1,0,-1
649.950195312 1647.45019531 m 1,13,-1
 649.950195312 1625.40039062 l 1,14,15
 633.150390625 1597.04980469 633.150390625 1597.04980469 588.525390625 1555.04980469 c 128,-1,16
 543.900390625 1513.04980469 543.900390625 1513.04980469 487.200195312 1465.79980469 c 128,-1,17
 430.5 1418.54980469 430.5 1418.54980469 374.325195312 1375.5 c 128,-1,18
 318.150390625 1332.45019531 318.150390625 1332.45019531 278.25 1303.04980469 c 1,19,-1
 86.099609375 1303.04980469 l 1,20,-1
 86.099609375 1332.45019531 l 1,21,22
 116.549804688 1373.40039062 116.549804688 1373.40039062 155.400390625 1429.04980469 c 128,-1,23
 194.25 1484.70019531 194.25 1484.70019531 232.575195312 1541.92480469 c 128,-1,24
 270.900390625 1599.15039062 270.900390625 1599.15039062 297.150390625 1647.45019531 c 1,25,-1
 649.950195312 1647.45019531 l 1,13,-1
EndSplineSet
Validated: 1
EndChar
StartChar: tonos
Encoding: 900 900 339
Width: 1202
VWidth: 2150
GlyphClass: 4
Flags: W
AnchorPoint: "Anchor-8" 596.4 1182.3 mark 0
AnchorPoint: "Anchor-5" 596.4 1182.3 mark 0
AnchorPoint: "Anchor-0" 596.4 1182.3 mark 0
LayerCount: 2
Fore
SplineSet
466.200195312 1303.04980469 m 1,0,-1
 466.200195312 1336.65039062 l 1,1,2
 477.75 1374.45019531 477.75 1374.45019531 489.825195312 1421.70019531 c 128,-1,3
 501.900390625 1468.95019531 501.900390625 1468.95019531 512.924804688 1520.40039062 c 128,-1,4
 523.950195312 1571.84960938 523.950195312 1571.84960938 533.400390625 1621.20019531 c 128,-1,5
 542.849609375 1670.54980469 542.849609375 1670.54980469 548.099609375 1710.45019531 c 1,6,-1
 877.799804688 1710.45019531 l 1,7,-1
 877.799804688 1684.20019531 l 1,8,9
 852.599609375 1626.45019531 852.599609375 1626.45019531 821.625 1564.5 c 128,-1,10
 790.650390625 1502.54980469 790.650390625 1502.54980469 754.950195312 1437.45019531 c 128,-1,11
 719.25 1372.34960938 719.25 1372.34960938 677.25 1303.04980469 c 1,12,-1
 466.200195312 1303.04980469 l 1,0,-1
EndSplineSet
Validated: 1
EndChar
StartChar: dieresistonos
Encoding: 901 901 340
Width: 1228
VWidth: 2150
GlyphClass: 4
Flags: W
AnchorPoint: "Anchor-8" 612.15 1182.3 mark 0
AnchorPoint: "Anchor-5" 612.15 1182.3 mark 0
AnchorPoint: "Anchor-0" 612.15 1182.3 mark 0
LayerCount: 2
Fore
SplineSet
857.849609375 1801.79980469 m 1,0,-1
 857.849609375 1780.79980469 l 1,1,2
 837.900390625 1733.54980469 837.900390625 1733.54980469 808.5 1680.52539062 c 128,-1,3
 779.099609375 1627.5 779.099609375 1627.5 743.924804688 1571.84960938 c 128,-1,4
 708.75 1516.20019531 708.75 1516.20019531 668.849609375 1458.45019531 c 1,5,-1
 507.150390625 1458.45019531 l 1,6,-1
 507.150390625 1486.79980469 l 1,7,8
 516.599609375 1528.79980469 516.599609375 1528.79980469 527.625 1584.97460938 c 128,-1,9
 538.650390625 1641.15039062 538.650390625 1641.15039062 547.575195312 1698.90039062 c 128,-1,10
 556.5 1756.65039062 556.5 1756.65039062 559.650390625 1801.79980469 c 1,11,-1
 857.849609375 1801.79980469 l 1,0,-1
315 1633.79980469 m 0,12,13
 381.150390625 1633.79980469 381.150390625 1633.79980469 423.674804688 1597.04980469 c 128,-1,14
 466.200195312 1560.29980469 466.200195312 1560.29980469 466.200195312 1479.45019531 c 0,15,16
 466.200195312 1402.79980469 466.200195312 1402.79980469 423.674804688 1365.52539062 c 128,-1,17
 381.150390625 1328.25 381.150390625 1328.25 315 1328.25 c 0,18,19
 246.75 1328.25 246.75 1328.25 206.849609375 1365.52539062 c 128,-1,20
 166.950195312 1402.79980469 166.950195312 1402.79980469 166.950195312 1479.45019531 c 0,21,22
 166.950195312 1560.29980469 166.950195312 1560.29980469 206.849609375 1597.04980469 c 128,-1,23
 246.75 1633.79980469 246.75 1633.79980469 315 1633.79980469 c 0,12,13
928.200195312 1633.79980469 m 0,24,25
 995.400390625 1633.79980469 995.400390625 1633.79980469 1036.875 1597.04980469 c 128,-1,26
 1078.34960938 1560.29980469 1078.34960938 1560.29980469 1078.34960938 1479.45019531 c 0,27,28
 1078.34960938 1402.79980469 1078.34960938 1402.79980469 1036.875 1365.52539062 c 128,-1,29
 995.400390625 1328.25 995.400390625 1328.25 928.200195312 1328.25 c 0,30,31
 857.849609375 1328.25 857.849609375 1328.25 817.424804688 1365.52539062 c 128,-1,32
 777 1402.79980469 777 1402.79980469 777 1479.45019531 c 0,33,34
 777 1560.29980469 777 1560.29980469 817.424804688 1597.04980469 c 128,-1,35
 857.849609375 1633.79980469 857.849609375 1633.79980469 928.200195312 1633.79980469 c 0,24,25
EndSplineSet
Validated: 1
EndChar
StartChar: Gamma
Encoding: 915 915 352
Width: 1225
VWidth: 2150
GlyphClass: 2
Flags: W
AnchorPoint: "Anchor-1" 613.2 0 basechar 0
AnchorPoint: "Anchor-0" 703.5 1535.1 basechar 0
LayerCount: 2
Fore
SplineSet
1177.04980469 1535.09960938 m 1,0,-1
 1177.04980469 1233.75 l 1,1,-1
 551.25 1233.75 l 1,2,-1
 551.25 0 l 1,3,-1
 179.549804688 0 l 1,4,-1
 179.549804688 1535.09960938 l 1,5,-1
 1177.04980469 1535.09960938 l 1,0,-1
EndSplineSet
Validated: 1
EndChar
StartChar: uni0394
Encoding: 916 916 353
Width: 1466
VWidth: 2150
GlyphClass: 2
Flags: W
AnchorPoint: "Anchor-1" 733.95 0 basechar 0
AnchorPoint: "Anchor-0" 733.95 1535.1 basechar 0
LayerCount: 2
Fore
SplineSet
949.200195312 1544.54980469 m 1,0,-1
 1419.59960938 208.950195312 l 1,1,-1
 1419.59960938 0 l 1,2,-1
 47.25 0 l 1,3,-1
 47.25 211.049804688 l 1,4,-1
 520.799804688 1544.54980469 l 1,5,-1
 949.200195312 1544.54980469 l 1,0,-1
1027.95019531 305.549804688 m 1,6,-1
 777 1073.09960938 l 2,7,8
 770.700195312 1090.95019531 770.700195312 1090.95019531 761.25 1124.54980469 c 128,-1,9
 751.799804688 1158.15039062 751.799804688 1158.15039062 743.924804688 1192.79980469 c 128,-1,10
 736.049804688 1227.45019531 736.049804688 1227.45019531 733.950195312 1247.40039062 c 1,11,12
 730.799804688 1227.45019531 730.799804688 1227.45019531 722.924804688 1192.27539062 c 128,-1,13
 715.049804688 1157.09960938 715.049804688 1157.09960938 706.125 1123.5 c 128,-1,14
 697.200195312 1089.90039062 697.200195312 1089.90039062 691.950195312 1072.04980469 c 2,15,-1
 439.950195312 305.549804688 l 1,16,-1
 1027.95019531 305.549804688 l 1,6,-1
EndSplineSet
Validated: 1
EndChar
StartChar: Xi
Encoding: 926 926 363
Width: 1231
VWidth: 2150
GlyphClass: 2
Flags: W
AnchorPoint: "Anchor-1" 616.35 0 basechar 0
AnchorPoint: "Anchor-0" 616.35 1535.1 basechar 0
LayerCount: 2
Fore
SplineSet
85.0498046875 0 m 1,0,-1
 85.0498046875 303.450195312 l 1,1,-1
 1146.59960938 303.450195312 l 1,2,-1
 1146.59960938 0 l 1,3,-1
 85.0498046875 0 l 1,0,-1
214.200195312 646.799804688 m 1,4,-1
 214.200195312 946.049804688 l 1,5,-1
 1017.45019531 946.049804688 l 1,6,-1
 1017.45019531 646.799804688 l 1,7,-1
 214.200195312 646.799804688 l 1,4,-1
128.099609375 1235.84960938 m 1,8,-1
 128.099609375 1535.09960938 l 1,9,-1
 1103.54980469 1535.09960938 l 1,10,-1
 1103.54980469 1235.84960938 l 1,11,-1
 128.099609375 1235.84960938 l 1,8,-1
EndSplineSet
Validated: 1
EndChar
StartChar: Pi
Encoding: 928 928 365
Width: 1596
VWidth: 2150
GlyphClass: 2
Flags: W
AnchorPoint: "Anchor-1" 799.05 0 basechar 0
AnchorPoint: "Anchor-0" 799.05 1535.1 basechar 0
LayerCount: 2
Fore
SplineSet
179.549804688 0 m 1,0,-1
 179.549804688 1535.09960938 l 1,1,-1
 1416.45019531 1535.09960938 l 1,2,-1
 1416.45019531 0 l 1,3,-1
 1044.75 0 l 1,4,-1
 1044.75 1230.59960938 l 1,5,-1
 551.25 1230.59960938 l 1,6,-1
 551.25 0 l 1,7,-1
 179.549804688 0 l 1,0,-1
EndSplineSet
Validated: 1
EndChar
StartChar: Phi
Encoding: 934 934 370
Width: 1885
VWidth: 2150
GlyphClass: 2
Flags: W
AnchorPoint: "Anchor-1" 942.9 0 basechar 0
AnchorPoint: "Anchor-0" 942.9 1535.1 basechar 0
LayerCount: 2
Fore
SplineSet
1116.15039062 1557.15039062 m 1,0,-1
 1116.15039062 1368.15039062 l 1,1,2
 1362.90039062 1365 1362.90039062 1365 1512.52539062 1284.67480469 c 128,-1,3
 1662.15039062 1204.34960938 1662.15039062 1204.34960938 1729.875 1074.67480469 c 128,-1,4
 1797.59960938 945 1797.59960938 945 1797.59960938 794.849609375 c 0,5,6
 1797.59960938 688.799804688 1797.59960938 688.799804688 1762.42480469 586.424804688 c 128,-1,7
 1727.25 484.049804688 1727.25 484.049804688 1647.97460938 401.099609375 c 128,-1,8
 1568.70019531 318.150390625 1568.70019531 318.150390625 1437.97460938 267.75 c 128,-1,9
 1307.25 217.349609375 1307.25 217.349609375 1116.15039062 215.25 c 1,10,-1
 1116.15039062 -21 l 1,11,-1
 769.650390625 -21 l 1,12,-1
 769.650390625 215.25 l 1,13,14
 576.450195312 217.349609375 576.450195312 217.349609375 445.200195312 266.700195312 c 128,-1,15
 313.950195312 316.049804688 313.950195312 316.049804688 235.724609375 398.474609375 c 128,-1,16
 157.5 480.900390625 157.5 480.900390625 122.849609375 584.325195312 c 128,-1,17
 88.2001953125 687.75 88.2001953125 687.75 88.2001953125 795.900390625 c 0,18,19
 88.2001953125 906.150390625 88.2001953125 906.150390625 123.900390625 1007.47460938 c 128,-1,20
 159.599609375 1108.79980469 159.599609375 1108.79980469 238.875 1189.65039062 c 128,-1,21
 318.150390625 1270.5 318.150390625 1270.5 448.875 1318.27539062 c 128,-1,22
 579.599609375 1366.04980469 579.599609375 1366.04980469 769.650390625 1368.15039062 c 1,23,-1
 769.650390625 1557.15039062 l 1,24,-1
 1116.15039062 1557.15039062 l 1,0,-1
769.650390625 1082.54980469 m 1,25,26
 644.700195312 1079.40039062 644.700195312 1079.40039062 573.299804688 1040.54980469 c 128,-1,27
 501.900390625 1001.70019531 501.900390625 1001.70019531 472.5 938.174804688 c 128,-1,28
 443.099609375 874.650390625 443.099609375 874.650390625 443.099609375 796.950195312 c 0,29,30
 443.099609375 710.849609375 443.099609375 710.849609375 473.025390625 644.700195312 c 128,-1,31
 502.950195312 578.549804688 502.950195312 578.549804688 574.875 539.700195312 c 128,-1,32
 646.799804688 500.849609375 646.799804688 500.849609375 769.650390625 497.700195312 c 1,33,-1
 769.650390625 1082.54980469 l 1,25,26
1116.15039062 1082.54980469 m 1,34,-1
 1116.15039062 497.700195312 l 1,35,36
 1239 500.849609375 1239 500.849609375 1310.40039062 539.700195312 c 128,-1,37
 1381.79980469 578.549804688 1381.79980469 578.549804688 1412.25 644.700195312 c 128,-1,38
 1442.70019531 710.849609375 1442.70019531 710.849609375 1442.70019531 796.950195312 c 0,39,40
 1442.70019531 875.700195312 1442.70019531 875.700195312 1412.77539062 939.224609375 c 128,-1,41
 1382.84960938 1002.75 1382.84960938 1002.75 1311.45019531 1041.07519531 c 128,-1,42
 1240.04980469 1079.40039062 1240.04980469 1079.40039062 1116.15039062 1082.54980469 c 1,34,-1
EndSplineSet
Validated: 1
EndChar
StartChar: uni03A9
Encoding: 937 937 373
Width: 1701
VWidth: 2150
GlyphClass: 2
Flags: W
AnchorPoint: "Anchor-4" 43.0498 1535.1 basechar 0
AnchorPoint: "Anchor-1" 850.5 0 basechar 0
AnchorPoint: "Anchor-0" 850.5 1535.1 basechar 0
LayerCount: 2
Fore
SplineSet
850.5 1253.70019531 m 0,0,1
 745.5 1253.70019531 745.5 1253.70019531 664.125 1208.02539062 c 128,-1,2
 582.75 1162.34960938 582.75 1162.34960938 537.075195312 1071 c 128,-1,3
 491.400390625 979.650390625 491.400390625 979.650390625 491.400390625 842.099609375 c 0,4,5
 491.400390625 725.549804688 491.400390625 725.549804688 515.025390625 632.099609375 c 128,-1,6
 538.650390625 538.650390625 538.650390625 538.650390625 593.775390625 466.200195312 c 128,-1,7
 648.900390625 393.75 648.900390625 393.75 743.400390625 338.099609375 c 1,8,-1
 743.400390625 0 l 1,9,-1
 54.599609375 0 l 1,10,-1
 54.599609375 306.599609375 l 1,11,-1
 445.200195312 306.599609375 l 1,12,13
 339.150390625 365.400390625 339.150390625 365.400390625 264.075195312 458.325195312 c 128,-1,14
 189 551.25 189 551.25 150.150390625 667.799804688 c 128,-1,15
 111.299804688 784.349609375 111.299804688 784.349609375 111.299804688 911.400390625 c 0,16,17
 111.299804688 1111.95019531 111.299804688 1111.95019531 202.650390625 1256.84960938 c 128,-1,18
 294 1401.75 294 1401.75 459.900390625 1480.5 c 128,-1,19
 625.799804688 1559.25 625.799804688 1559.25 850.5 1559.25 c 0,20,21
 1074.15039062 1559.25 1074.15039062 1559.25 1240.57519531 1480.5 c 128,-1,22
 1407 1401.75 1407 1401.75 1498.875 1256.32519531 c 128,-1,23
 1590.75 1110.90039062 1590.75 1110.90039062 1590.75 911.400390625 c 0,24,25
 1590.75 782.25 1590.75 782.25 1551.90039062 667.275390625 c 128,-1,26
 1513.04980469 552.299804688 1513.04980469 552.299804688 1436.92480469 460.424804688 c 128,-1,27
 1360.79980469 368.549804688 1360.79980469 368.549804688 1249.5 306.599609375 c 1,28,-1
 1646.40039062 306.599609375 l 1,29,-1
 1646.40039062 0 l 1,30,-1
 952.349609375 0 l 1,31,-1
 952.349609375 338.099609375 l 1,32,33
 1050 393.75 1050 393.75 1106.17480469 467.25 c 128,-1,34
 1162.34960938 540.75 1162.34960938 540.75 1185.97460938 635.25 c 128,-1,35
 1209.59960938 729.75 1209.59960938 729.75 1209.59960938 845.25 c 0,36,37
 1209.59960938 981.75 1209.59960938 981.75 1163.92480469 1072.57519531 c 128,-1,38
 1118.25 1163.40039062 1118.25 1163.40039062 1037.40039062 1208.54980469 c 128,-1,39
 956.549804688 1253.70019531 956.549804688 1253.70019531 850.5 1253.70019531 c 0,0,1
EndSplineSet
Validated: 1
EndChar
StartChar: beta
Encoding: 946 946 382
Width: 1446
VWidth: 2150
GlyphClass: 2
Flags: W
AnchorPoint: "Anchor-2" 1275.75 1645.35 basechar 0
AnchorPoint: "Anchor-1" 918.75 0 basechar 0
AnchorPoint: "Anchor-0" 732.9 1645.35 basechar 0
LayerCount: 2
Fore
SplineSet
732.900390625 1645.34960938 m 0,0,1
 890.400390625 1645.34960938 890.400390625 1645.34960938 1013.25 1599.67480469 c 128,-1,2
 1136.09960938 1554 1136.09960938 1554 1206.45019531 1462.125 c 128,-1,3
 1276.79980469 1370.25 1276.79980469 1370.25 1276.79980469 1231.65039062 c 0,4,5
 1276.79980469 1076.25 1276.79980469 1076.25 1198.04980469 985.950195312 c 128,-1,6
 1119.29980469 895.650390625 1119.29980469 895.650390625 975.450195312 871.5 c 1,7,-1
 975.450195312 864.150390625 l 1,8,9
 1153.95019531 842.099609375 1153.95019531 842.099609375 1260 748.650390625 c 128,-1,10
 1366.04980469 655.200195312 1366.04980469 655.200195312 1366.04980469 459.900390625 c 0,11,12
 1366.04980469 308.700195312 1366.04980469 308.700195312 1302 201.075195312 c 128,-1,13
 1237.95019531 93.4501953125 1237.95019531 93.4501953125 1123.5 36.224609375 c 128,-1,14
 1009.04980469 -21 1009.04980469 -21 856.799804688 -21 c 0,15,16
 760.200195312 -21 760.200195312 -21 672.525390625 -4.724609375 c 128,-1,17
 584.849609375 11.5498046875 584.849609375 11.5498046875 520.799804688 43.0498046875 c 1,18,-1
 520.799804688 -516.599609375 l 1,19,-1
 155.400390625 -516.599609375 l 1,20,-1
 155.400390625 1150.79980469 l 2,21,22
 155.400390625 1324.04980469 155.400390625 1324.04980469 232.049804688 1433.25 c 128,-1,23
 308.700195312 1542.45019531 308.700195312 1542.45019531 439.424804688 1593.90039062 c 128,-1,24
 570.150390625 1645.34960938 570.150390625 1645.34960938 732.900390625 1645.34960938 c 0,0,1
722.400390625 1368.15039062 m 0,25,26
 667.799804688 1368.15039062 667.799804688 1368.15039062 621.599609375 1346.625 c 128,-1,27
 575.400390625 1325.09960938 575.400390625 1325.09960938 548.099609375 1271.02539062 c 128,-1,28
 520.799804688 1216.95019531 520.799804688 1216.95019531 520.799804688 1117.20019531 c 2,29,-1
 520.799804688 332.849609375 l 1,30,31
 561.75 305.549804688 561.75 305.549804688 628.424804688 286.650390625 c 128,-1,32
 695.099609375 267.75 695.099609375 267.75 750.75 267.75 c 0,33,34
 868.349609375 267.75 868.349609375 267.75 930.299804688 326.025390625 c 128,-1,35
 992.25 384.299804688 992.25 384.299804688 992.25 493.5 c 0,36,37
 992.25 573.299804688 992.25 573.299804688 957.075195312 618.450195312 c 128,-1,38
 921.900390625 663.599609375 921.900390625 663.599609375 866.25 683.025390625 c 128,-1,39
 810.599609375 702.450195312 810.599609375 702.450195312 747.599609375 702.450195312 c 2,40,-1
 680.400390625 702.450195312 l 1,41,-1
 680.400390625 981.75 l 1,42,-1
 727.650390625 981.75 l 2,43,44
 822.150390625 981.75 822.150390625 981.75 867.299804688 1038.45019531 c 128,-1,45
 912.450195312 1095.15039062 912.450195312 1095.15039062 912.450195312 1182.29980469 c 0,46,47
 912.450195312 1273.65039062 912.450195312 1273.65039062 859.950195312 1320.90039062 c 128,-1,48
 807.450195312 1368.15039062 807.450195312 1368.15039062 722.400390625 1368.15039062 c 0,25,26
EndSplineSet
Validated: 1
Substitution2: "'locl' Localized Forms in Latin lookup 16 subtable" uniA7B5
Substitution2: "'locl' Localized Forms in Latin lookup 15 subtable" uniA7B5
Substitution2: "'aalt' Access All Alternates lookup 0 subtable" uniA7B5
EndChar
StartChar: gamma
Encoding: 947 947 383
Width: 1258
VWidth: 2150
GlyphClass: 2
Flags: W
AnchorPoint: "Anchor-2" 1237.95 1182.3 basechar 0
AnchorPoint: "Anchor-1" 630 -516.6 basechar 0
AnchorPoint: "Anchor-0" 630 1182.3 basechar 0
LayerCount: 2
Fore
SplineSet
1262.09960938 1182.29980469 m 1,0,-1
 826.349609375 16.7998046875 l 2,1,2
 792.75 -69.2998046875 792.75 -69.2998046875 769.650390625 -165.375 c 128,-1,3
 746.549804688 -261.450195312 746.549804688 -261.450195312 734.474609375 -352.799804688 c 128,-1,4
 722.400390625 -444.150390625 722.400390625 -444.150390625 722.400390625 -516.599609375 c 1,5,-1
 337.049804688 -516.599609375 l 1,6,7
 337.049804688 -456.75 337.049804688 -456.75 350.700195312 -366.450195312 c 128,-1,8
 364.349609375 -276.150390625 364.349609375 -276.150390625 387.974609375 -175.875 c 128,-1,9
 411.599609375 -75.599609375 411.599609375 -75.599609375 439.950195312 12.599609375 c 1,10,-1
 0 1182.29980469 l 1,11,-1
 381.150390625 1182.29980469 l 1,12,-1
 528.150390625 730.799804688 l 2,13,14
 547.049804688 672 547.049804688 672 567.525390625 599.025390625 c 128,-1,15
 588 526.049804688 588 526.049804688 604.275390625 456.75 c 128,-1,16
 620.549804688 387.450195312 620.549804688 387.450195312 626.849609375 339.150390625 c 1,17,-1
 634.200195312 339.150390625 l 1,18,19
 638.400390625 371.700195312 638.400390625 371.700195312 651.525390625 429.974609375 c 128,-1,20
 664.650390625 488.25 664.650390625 488.25 684.599609375 562.275390625 c 128,-1,21
 704.549804688 636.299804688 704.549804688 636.299804688 730.799804688 712.950195312 c 2,22,-1
 882 1182.29980469 l 1,23,-1
 1262.09960938 1182.29980469 l 1,0,-1
EndSplineSet
Validated: 1
EndChar
StartChar: epsilon
Encoding: 949 949 385
Width: 1192
VWidth: 2150
GlyphClass: 2
Flags: W
AnchorPoint: "Anchor-1" 596.4 0 basechar 0
AnchorPoint: "Anchor-0" 667.8 1182.3 basechar 0
LayerCount: 2
Fore
SplineSet
883.049804688 737.099609375 m 1,0,-1
 883.049804688 492.450195312 l 1,1,-1
 717.150390625 492.450195312 l 2,2,3
 610.049804688 492.450195312 610.049804688 492.450195312 549.150390625 478.799804688 c 128,-1,4
 488.25 465.150390625 488.25 465.150390625 463.049804688 438.375 c 128,-1,5
 437.849609375 411.599609375 437.849609375 411.599609375 437.849609375 371.700195312 c 0,6,7
 437.849609375 342.299804688 437.849609375 342.299804688 458.849609375 315.525390625 c 128,-1,8
 479.849609375 288.75 479.849609375 288.75 533.924804688 271.950195312 c 128,-1,9
 588 255.150390625 588 255.150390625 687.75 255.150390625 c 0,10,11
 820.049804688 255.150390625 820.049804688 255.150390625 930.299804688 284.025390625 c 128,-1,12
 1040.54980469 312.900390625 1040.54980469 312.900390625 1114.04980469 346.5 c 1,13,-1
 1114.04980469 60.900390625 l 1,14,15
 1029 23.099609375 1029 23.099609375 916.125 1.0498046875 c 128,-1,16
 803.25 -21 803.25 -21 645.75 -21 c 0,17,18
 339.150390625 -21 339.150390625 -21 206.849609375 72.4501953125 c 128,-1,19
 74.5498046875 165.900390625 74.5498046875 165.900390625 74.5498046875 331.799804688 c 0,20,21
 74.5498046875 447.299804688 74.5498046875 447.299804688 149.625 518.700195312 c 128,-1,22
 224.700195312 590.099609375 224.700195312 590.099609375 360.150390625 612.150390625 c 1,23,-1
 360.150390625 622.650390625 l 1,24,25
 256.200195312 648.900390625 256.200195312 648.900390625 198.450195312 718.200195312 c 128,-1,26
 140.700195312 787.5 140.700195312 787.5 140.700195312 888.299804688 c 0,27,28
 140.700195312 1003.79980469 140.700195312 1003.79980469 211.049804688 1072.57519531 c 128,-1,29
 281.400390625 1141.34960938 281.400390625 1141.34960938 399.525390625 1172.32519531 c 128,-1,30
 517.650390625 1203.29980469 517.650390625 1203.29980469 660.450195312 1203.29980469 c 0,31,32
 788.549804688 1203.29980469 788.549804688 1203.29980469 903 1180.20019531 c 128,-1,33
 1017.45019531 1157.09960938 1017.45019531 1157.09960938 1115.09960938 1114.04980469 c 1,34,-1
 1008 859.950195312 l 1,35,36
 928.200195312 893.549804688 928.200195312 893.549804688 849.450195312 916.125 c 128,-1,37
 770.700195312 938.700195312 770.700195312 938.700195312 673.049804688 938.700195312 c 0,38,39
 573.299804688 938.700195312 573.299804688 938.700195312 525.525390625 915.075195312 c 128,-1,40
 477.75 891.450195312 477.75 891.450195312 477.75 844.200195312 c 0,41,42
 477.75 787.5 477.75 787.5 538.650390625 762.299804688 c 128,-1,43
 599.549804688 737.099609375 599.549804688 737.099609375 738.150390625 737.099609375 c 2,44,-1
 883.049804688 737.099609375 l 1,0,-1
EndSplineSet
Validated: 1
EndChar
StartChar: theta
Encoding: 952 952 388
Width: 1355
VWidth: 2150
GlyphClass: 2
Flags: W
AnchorPoint: "Anchor-2" 1183.35 1651.65 basechar 0
AnchorPoint: "Anchor-1" 677.25 0 basechar 0
AnchorPoint: "Anchor-0" 677.25 1651.65 basechar 0
LayerCount: 2
Fore
SplineSet
1262.09960938 815.849609375 m 0,0,1
 1262.09960938 554.400390625 1262.09960938 554.400390625 1203.29980469 366.974609375 c 128,-1,2
 1144.5 179.549804688 1144.5 179.549804688 1015.875 79.275390625 c 128,-1,3
 887.25 -21 887.25 -21 675.150390625 -21 c 0,4,5
 381.150390625 -21 381.150390625 -21 237.299804688 201.075195312 c 128,-1,6
 93.4501953125 423.150390625 93.4501953125 423.150390625 93.4501953125 815.849609375 c 0,7,8
 93.4501953125 1078.34960938 93.4501953125 1078.34960938 151.200195312 1265.77539062 c 128,-1,9
 208.950195312 1453.20019531 208.950195312 1453.20019531 337.049804688 1552.42480469 c 128,-1,10
 465.150390625 1651.65039062 465.150390625 1651.65039062 675.150390625 1651.65039062 c 0,11,12
 969.150390625 1651.65039062 969.150390625 1651.65039062 1115.625 1432.72460938 c 128,-1,13
 1262.09960938 1213.79980469 1262.09960938 1213.79980469 1262.09960938 815.849609375 c 0,0,1
675.150390625 239.400390625 m 256,14,15
 782.25 239.400390625 782.25 239.400390625 833.174804688 351.224609375 c 128,-1,16
 884.099609375 463.049804688 884.099609375 463.049804688 888.299804688 686.700195312 c 1,17,-1
 465.150390625 686.700195312 l 1,18,19
 468.299804688 466.200195312 468.299804688 466.200195312 518.174804688 352.799804688 c 128,-1,20
 568.049804688 239.400390625 568.049804688 239.400390625 675.150390625 239.400390625 c 256,14,15
678.299804688 1392.29980469 m 0,21,22
 573.299804688 1392.29980469 573.299804688 1392.29980469 524.474609375 1282.04980469 c 128,-1,23
 475.650390625 1171.79980469 475.650390625 1171.79980469 469.349609375 949.200195312 c 1,24,-1
 889.349609375 949.200195312 l 1,25,26
 882 1171.79980469 882 1171.79980469 832.125 1282.04980469 c 128,-1,27
 782.25 1392.29980469 782.25 1392.29980469 678.299804688 1392.29980469 c 0,21,22
EndSplineSet
Validated: 1
EndChar
StartChar: rho
Encoding: 961 961 397
Width: 1363
VWidth: 2150
GlyphClass: 2
Flags: W
AnchorPoint: "Anchor-1" 682.5 -516.6 basechar 0
AnchorPoint: "Anchor-0" 682.5 1182.3 basechar 0
LayerCount: 2
Fore
SplineSet
1270.5 590.099609375 m 256,0,1
 1270.5 395.849609375 1270.5 395.849609375 1212.22460938 259.349609375 c 128,-1,2
 1153.95019531 122.849609375 1153.95019531 122.849609375 1046.84960938 50.9248046875 c 128,-1,3
 939.75 -21 939.75 -21 792.75 -21 c 0,4,5
 711.900390625 -21 711.900390625 -21 635.25 0 c 128,-1,6
 558.599609375 21 558.599609375 21 501.900390625 54.599609375 c 1,7,-1
 478.799804688 54.599609375 l 1,8,9
 486.150390625 5.25 486.150390625 5.25 492.450195312 -76.125 c 128,-1,10
 498.75 -157.5 498.75 -157.5 498.75 -225.75 c 2,11,-1
 498.75 -516.599609375 l 1,12,-1
 132.299804688 -516.599609375 l 1,13,-1
 132.299804688 588 l 2,14,15
 132.299804688 781.200195312 132.299804688 781.200195312 199.5 918.75 c 128,-1,16
 266.700195312 1056.29980469 266.700195312 1056.29980469 394.799804688 1129.79980469 c 128,-1,17
 522.900390625 1203.29980469 522.900390625 1203.29980469 707.700195312 1203.29980469 c 0,18,19
 869.400390625 1203.29980469 869.400390625 1203.29980469 996.450195312 1130.84960938 c 128,-1,20
 1123.5 1058.40039062 1123.5 1058.40039062 1197 921.375 c 128,-1,21
 1270.5 784.349609375 1270.5 784.349609375 1270.5 590.099609375 c 256,0,1
701.400390625 921.900390625 m 0,22,23
 600.599609375 921.900390625 600.599609375 921.900390625 549.674804688 849.974609375 c 128,-1,24
 498.75 778.049804688 498.75 778.049804688 498.75 623.700195312 c 2,25,-1
 498.75 351.75 l 1,26,27
 537.599609375 309.75 537.599609375 309.75 592.724609375 288.224609375 c 128,-1,28
 647.849609375 266.700195312 647.849609375 266.700195312 702.450195312 266.700195312 c 0,29,30
 805.349609375 266.700195312 805.349609375 266.700195312 851.025390625 340.724609375 c 128,-1,31
 896.700195312 414.75 896.700195312 414.75 896.700195312 590.099609375 c 0,32,33
 896.700195312 766.5 896.700195312 766.5 850.5 844.200195312 c 128,-1,34
 804.299804688 921.900390625 804.299804688 921.900390625 701.400390625 921.900390625 c 0,22,23
EndSplineSet
Validated: 1
EndChar
StartChar: uni03C2
Encoding: 962 962 398
Width: 1108
VWidth: 2150
GlyphClass: 2
Flags: W
AnchorPoint: "Anchor-1" 555.45 -390.6 basechar 0
AnchorPoint: "Anchor-0" 555.45 1182.3 basechar 0
LayerCount: 2
Fore
SplineSet
693 1203.29980469 m 0,0,1
 792.75 1203.29980469 792.75 1203.29980469 893.549804688 1180.20019531 c 128,-1,2
 994.349609375 1157.09960938 994.349609375 1157.09960938 1088.84960938 1111.95019531 c 1,3,-1
 983.849609375 840 l 1,4,5
 903 872.549804688 903 872.549804688 825.825195312 893.025390625 c 128,-1,6
 748.650390625 913.5 748.650390625 913.5 688.799804688 913.5 c 0,7,8
 571.200195312 913.5 571.200195312 913.5 518.174804688 820.049804688 c 128,-1,9
 465.150390625 726.599609375 465.150390625 726.599609375 465.150390625 553.349609375 c 0,10,11
 465.150390625 468.299804688 465.150390625 468.299804688 494.549804688 416.325195312 c 128,-1,12
 523.950195312 364.349609375 523.950195312 364.349609375 588.525390625 333.900390625 c 128,-1,13
 653.099609375 303.450195312 653.099609375 303.450195312 760.200195312 280.349609375 c 0,14,15
 885.150390625 254.099609375 885.150390625 254.099609375 956.549804688 210 c 128,-1,16
 1027.95019531 165.900390625 1027.95019531 165.900390625 1057.875 107.625 c 128,-1,17
 1087.79980469 49.349609375 1087.79980469 49.349609375 1087.79980469 -21 c 0,18,19
 1087.79980469 -118.650390625 1087.79980469 -118.650390625 1044.75 -213.674804688 c 128,-1,20
 1001.70019531 -308.700195312 1001.70019531 -308.700195312 941.849609375 -390.599609375 c 1,21,-1
 571.200195312 -390.599609375 l 1,22,23
 617.400390625 -332.849609375 617.400390625 -332.849609375 653.099609375 -274.575195312 c 128,-1,24
 688.799804688 -216.299804688 688.799804688 -216.299804688 708.75 -166.950195312 c 128,-1,25
 728.700195312 -117.599609375 728.700195312 -117.599609375 728.700195312 -89.25 c 0,26,27
 728.700195312 -64.0498046875 728.700195312 -64.0498046875 712.950195312 -45.6748046875 c 128,-1,28
 697.200195312 -27.2998046875 697.200195312 -27.2998046875 650.474609375 -8.9248046875 c 128,-1,29
 603.75 9.4501953125 603.75 9.4501953125 510.299804688 29.400390625 c 256,30,31
 416.849609375 49.349609375 416.849609375 49.349609375 339.674804688 87.150390625 c 128,-1,32
 262.5 124.950195312 262.5 124.950195312 207.900390625 186.375 c 128,-1,33
 153.299804688 247.799804688 153.299804688 247.799804688 123.375 337.575195312 c 128,-1,34
 93.4501953125 427.349609375 93.4501953125 427.349609375 93.4501953125 552.299804688 c 0,35,36
 93.4501953125 783.299804688 93.4501953125 783.299804688 165.900390625 926.625 c 128,-1,37
 238.349609375 1069.95019531 238.349609375 1069.95019531 373.275390625 1136.625 c 128,-1,38
 508.200195312 1203.29980469 508.200195312 1203.29980469 693 1203.29980469 c 0,0,1
EndSplineSet
Validated: 1
EndChar
StartChar: uni03D2
Encoding: 978 978 589
Width: 1400
VWidth: 2150
GlyphClass: 2
Flags: W
AnchorPoint: "Anchor-0" 700.35 1535.1 basechar 0
LayerCount: 2
Fore
SplineSet
691.950195312 938.700195312 m 1,0,1
 724.5 1009.04980469 724.5 1009.04980469 754.950195312 1073.625 c 128,-1,2
 785.400390625 1138.20019531 785.400390625 1138.20019531 815.325195312 1195.95019531 c 128,-1,3
 845.25 1253.70019531 845.25 1253.70019531 874.650390625 1305.15039062 c 128,-1,4
 904.049804688 1356.59960938 904.049804688 1356.59960938 933.450195312 1401.75 c 0,5,6
 968.099609375 1454.25 968.099609375 1454.25 1007.47460938 1486.79980469 c 128,-1,7
 1046.84960938 1519.34960938 1046.84960938 1519.34960938 1097.77539062 1534.04980469 c 128,-1,8
 1148.70019531 1548.75 1148.70019531 1548.75 1216.95019531 1548.75 c 0,9,10
 1261.04980469 1548.75 1261.04980469 1548.75 1307.77539062 1540.875 c 128,-1,11
 1354.5 1533 1354.5 1533 1395.45019531 1516.20019531 c 1,12,-1
 1395.45019531 1245.29980469 l 1,13,14
 1386 1248.45019531 1386 1248.45019531 1363.95019531 1253.70019531 c 128,-1,15
 1341.90039062 1258.95019531 1341.90039062 1258.95019531 1319.84960938 1258.95019531 c 0,16,17
 1286.25 1258.95019531 1286.25 1258.95019531 1256.84960938 1242.67480469 c 128,-1,18
 1227.45019531 1226.40039062 1227.45019531 1226.40039062 1189.65039062 1173.90039062 c 0,19,20
 1161.29980469 1136.09960938 1161.29980469 1136.09960938 1122.97460938 1075.20019531 c 128,-1,21
 1084.65039062 1014.29980469 1084.65039062 1014.29980469 1042.65039062 936.075195312 c 128,-1,22
 1000.65039062 857.849609375 1000.65039062 857.849609375 959.174804688 769.125 c 128,-1,23
 917.700195312 680.400390625 917.700195312 680.400390625 882 586.950195312 c 1,24,-1
 882 0 l 1,25,-1
 511.349609375 0 l 1,26,-1
 511.349609375 586.950195312 l 1,27,-1
 0 1535.09960938 l 1,28,-1
 402.150390625 1535.09960938 l 1,29,-1
 691.950195312 938.700195312 l 1,0,1
EndSplineSet
Validated: 1
EndChar
StartChar: uni03D6
Encoding: 982 982 590
Width: 2218
VWidth: 2150
GlyphClass: 1
Flags: W
LayerCount: 2
Fore
SplineSet
2159.84960938 1182.29980469 m 1,0,-1
 2159.84960938 909.299804688 l 1,1,-1
 1897.34960938 909.299804688 l 1,2,3
 1914.15039062 851.549804688 1914.15039062 851.549804688 1927.79980469 790.650390625 c 128,-1,4
 1941.45019531 729.75 1941.45019531 729.75 1949.32519531 668.325195312 c 128,-1,5
 1957.20019531 606.900390625 1957.20019531 606.900390625 1957.20019531 544.950195312 c 0,6,7
 1957.20019531 369.599609375 1957.20019531 369.599609375 1902.07519531 243.075195312 c 128,-1,8
 1846.95019531 116.549804688 1846.95019531 116.549804688 1737.22460938 47.775390625 c 128,-1,9
 1627.5 -21 1627.5 -21 1461.59960938 -21 c 0,10,11
 1318.79980469 -21 1318.79980469 -21 1237.95019531 42.525390625 c 128,-1,12
 1157.09960938 106.049804688 1157.09960938 106.049804688 1116.15039062 210 c 1,13,-1
 1104.59960938 210 l 1,14,15
 1062.59960938 106.049804688 1062.59960938 106.049804688 982.275390625 42.525390625 c 128,-1,16
 901.950195312 -21 901.950195312 -21 758.099609375 -21 c 0,17,18
 510.299804688 -21 510.299804688 -21 386.924804688 130.724609375 c 128,-1,19
 263.549804688 282.450195312 263.549804688 282.450195312 263.549804688 544.950195312 c 0,20,21
 263.549804688 606.900390625 263.549804688 606.900390625 270.900390625 668.325195312 c 128,-1,22
 278.25 729.75 278.25 729.75 291.900390625 790.650390625 c 128,-1,23
 305.549804688 851.549804688 305.549804688 851.549804688 323.400390625 909.299804688 c 1,24,-1
 58.7998046875 909.299804688 l 1,25,-1
 58.7998046875 1062.59960938 l 1,26,-1
 253.049804688 1182.29980469 l 1,27,-1
 2159.84960938 1182.29980469 l 1,0,-1
1548.75 909.299804688 m 1,28,-1
 669.900390625 909.299804688 l 1,29,30
 652.049804688 855.75 652.049804688 855.75 638.924804688 795.375 c 128,-1,31
 625.799804688 735 625.799804688 735 618.450195312 673.575195312 c 128,-1,32
 611.099609375 612.150390625 611.099609375 612.150390625 611.099609375 555.450195312 c 0,33,34
 611.099609375 397.950195312 611.099609375 397.950195312 652.049804688 330.224609375 c 128,-1,35
 693 262.5 693 262.5 788.549804688 262.5 c 0,36,37
 883.049804688 262.5 883.049804688 262.5 910.875 334.950195312 c 128,-1,38
 938.700195312 407.400390625 938.700195312 407.400390625 938.700195312 534.450195312 c 2,39,-1
 938.700195312 665.700195312 l 1,40,-1
 1282.04980469 665.700195312 l 1,41,-1
 1282.04980469 534.450195312 l 2,42,43
 1282.04980469 452.549804688 1282.04980469 452.549804688 1292.02539062 391.125 c 128,-1,44
 1302 329.700195312 1302 329.700195312 1334.54980469 296.099609375 c 128,-1,45
 1367.09960938 262.5 1367.09960938 262.5 1431.15039062 262.5 c 0,46,47
 1524.59960938 262.5 1524.59960938 262.5 1567.125 329.174804688 c 128,-1,48
 1609.65039062 395.849609375 1609.65039062 395.849609375 1609.65039062 549.150390625 c 0,49,50
 1609.65039062 605.849609375 1609.65039062 605.849609375 1601.77539062 664.650390625 c 128,-1,51
 1593.90039062 723.450195312 1593.90039062 723.450195312 1580.77539062 785.400390625 c 128,-1,52
 1567.65039062 847.349609375 1567.65039062 847.349609375 1548.75 909.299804688 c 1,28,-1
EndSplineSet
Validated: 1
EndChar
StartChar: uni0402
Encoding: 1026 1026 412
Width: 1756
VWidth: 2150
GlyphClass: 2
Flags: W
AnchorPoint: "Anchor-1" 878.85 0 basechar 0
AnchorPoint: "Anchor-0" 878.85 1535.1 basechar 0
LayerCount: 2
Fore
SplineSet
1207.5 -19.9501953125 m 0,0,1
 1153.95019531 -19.9501953125 1153.95019531 -19.9501953125 1098.82519531 -11.5498046875 c 128,-1,2
 1043.70019531 -3.150390625 1043.70019531 -3.150390625 999.599609375 14.7001953125 c 1,3,-1
 999.599609375 309.75 l 1,4,5
 1039.5 292.950195312 1039.5 292.950195312 1082.54980469 281.924804688 c 128,-1,6
 1125.59960938 270.900390625 1125.59960938 270.900390625 1160.25 270.900390625 c 0,7,8
 1195.95019531 270.900390625 1195.95019531 270.900390625 1222.20019531 281.924804688 c 128,-1,9
 1248.45019531 292.950195312 1248.45019531 292.950195312 1263.15039062 322.349609375 c 128,-1,10
 1277.84960938 351.75 1277.84960938 351.75 1277.84960938 405.299804688 c 2,11,-1
 1277.84960938 544.950195312 l 2,12,13
 1277.84960938 620.549804688 1277.84960938 620.549804688 1240.57519531 653.625 c 128,-1,14
 1203.29980469 686.700195312 1203.29980469 686.700195312 1120.34960938 686.700195312 c 2,15,-1
 799.049804688 686.700195312 l 1,16,-1
 799.049804688 0 l 1,17,-1
 428.400390625 0 l 1,18,-1
 428.400390625 1230.59960938 l 1,19,-1
 48.2998046875 1230.59960938 l 1,20,-1
 48.2998046875 1535.09960938 l 1,21,-1
 1235.84960938 1535.09960938 l 1,22,-1
 1235.84960938 1230.59960938 l 1,23,-1
 799.049804688 1230.59960938 l 1,24,-1
 799.049804688 991.200195312 l 1,25,-1
 1132.95019531 991.200195312 l 2,26,27
 1383.90039062 991.200195312 1383.90039062 991.200195312 1515.67480469 879.375 c 128,-1,28
 1647.45019531 767.549804688 1647.45019531 767.549804688 1647.45019531 568.049804688 c 2,29,-1
 1647.45019531 436.799804688 l 2,30,31
 1647.45019531 218.400390625 1647.45019531 218.400390625 1539.82519531 99.224609375 c 128,-1,32
 1432.20019531 -19.9501953125 1432.20019531 -19.9501953125 1207.5 -19.9501953125 c 0,0,1
EndSplineSet
Validated: 1
EndChar
StartChar: uni0409
Encoding: 1033 1033 419
Width: 2182
VWidth: 2150
GlyphClass: 2
Flags: W
AnchorPoint: "Anchor-1" 1093.05 0 basechar 0
AnchorPoint: "Anchor-0" 1093.05 1535.1 basechar 0
LayerCount: 2
Fore
SplineSet
180.599609375 -21 m 0,0,1
 136.5 -21 136.5 -21 96.599609375 -14.7001953125 c 128,-1,2
 56.7001953125 -8.400390625 56.7001953125 -8.400390625 22.0498046875 2.099609375 c 1,3,-1
 22.0498046875 296.099609375 l 1,4,5
 49.349609375 286.650390625 49.349609375 286.650390625 75.0751953125 280.875 c 128,-1,6
 100.799804688 275.099609375 100.799804688 275.099609375 130.200195312 275.099609375 c 0,7,8
 169.049804688 275.099609375 169.049804688 275.099609375 196.349609375 298.724609375 c 128,-1,9
 223.650390625 322.349609375 223.650390625 322.349609375 246.224609375 390.075195312 c 128,-1,10
 268.799804688 457.799804688 268.799804688 457.799804688 291.900390625 586.950195312 c 0,11,12
 300.299804688 636.299804688 300.299804688 636.299804688 315 729.224609375 c 128,-1,13
 329.700195312 822.150390625 329.700195312 822.150390625 348.599609375 948.150390625 c 128,-1,14
 367.5 1074.15039062 367.5 1074.15039062 387.450195312 1223.77539062 c 128,-1,15
 407.400390625 1373.40039062 407.400390625 1373.40039062 426.299804688 1535.09960938 c 1,16,-1
 1383.90039062 1535.09960938 l 1,17,-1
 1383.90039062 970.200195312 l 1,18,-1
 1519.34960938 970.200195312 l 2,19,20
 1720.95019531 970.200195312 1720.95019531 970.200195312 1850.09960938 910.349609375 c 128,-1,21
 1979.25 850.5 1979.25 850.5 2041.72460938 744.450195312 c 128,-1,22
 2104.20019531 638.400390625 2104.20019531 638.400390625 2104.20019531 500.849609375 c 0,23,24
 2104.20019531 265.650390625 2104.20019531 265.650390625 1949.32519531 132.825195312 c 128,-1,25
 1794.45019531 0 1794.45019531 0 1488.90039062 0 c 2,26,-1
 1014.29980469 0 l 1,27,-1
 1014.29980469 1230.59960938 l 1,28,-1
 736.049804688 1230.59960938 l 1,29,30
 727.650390625 1156.04980469 727.650390625 1156.04980469 717.150390625 1068.90039062 c 128,-1,31
 706.650390625 981.75 706.650390625 981.75 695.099609375 889.349609375 c 128,-1,32
 683.549804688 796.950195312 683.549804688 796.950195312 670.424804688 707.174804688 c 128,-1,33
 657.299804688 617.400390625 657.299804688 617.400390625 643.650390625 536.549804688 c 128,-1,34
 630 455.700195312 630 455.700195312 616.349609375 391.650390625 c 0,35,36
 589.049804688 261.450195312 589.049804688 261.450195312 539.174804688 169.049804688 c 128,-1,37
 489.299804688 76.650390625 489.299804688 76.650390625 403.200195312 27.8251953125 c 128,-1,38
 317.099609375 -21 317.099609375 -21 180.599609375 -21 c 0,0,1
1383.90039062 298.200195312 m 1,39,-1
 1489.95019531 298.200195312 l 2,40,41
 1607.54980469 298.200195312 1607.54980469 298.200195312 1670.02539062 344.400390625 c 128,-1,42
 1732.5 390.599609375 1732.5 390.599609375 1732.5 490.349609375 c 0,43,44
 1732.5 558.599609375 1732.5 558.599609375 1701.52539062 597.974609375 c 128,-1,45
 1670.54980469 637.349609375 1670.54980469 637.349609375 1614.375 654.674804688 c 128,-1,46
 1558.20019531 672 1558.20019531 672 1483.65039062 672 c 2,47,-1
 1383.90039062 672 l 1,48,-1
 1383.90039062 298.200195312 l 1,39,-1
EndSplineSet
Validated: 1
EndChar
StartChar: uni040A
Encoding: 1034 1034 420
Width: 2161
VWidth: 2150
GlyphClass: 2
Flags: W
AnchorPoint: "Anchor-1" 1081.5 0 basechar 0
AnchorPoint: "Anchor-0" 1081.5 1535.1 basechar 0
LayerCount: 2
Fore
SplineSet
179.549804688 0 m 1,0,-1
 179.549804688 1535.09960938 l 1,1,-1
 551.25 1535.09960938 l 1,2,-1
 551.25 962.849609375 l 1,3,-1
 992.25 962.849609375 l 1,4,-1
 992.25 1535.09960938 l 1,5,-1
 1361.84960938 1535.09960938 l 1,6,-1
 1361.84960938 970.200195312 l 1,7,-1
 1497.29980469 970.200195312 l 2,8,9
 1697.84960938 970.200195312 1697.84960938 970.200195312 1827.52539062 910.349609375 c 128,-1,10
 1957.20019531 850.5 1957.20019531 850.5 2019.67480469 744.450195312 c 128,-1,11
 2082.15039062 638.400390625 2082.15039062 638.400390625 2082.15039062 500.849609375 c 0,12,13
 2082.15039062 265.650390625 2082.15039062 265.650390625 1926.75 132.825195312 c 128,-1,14
 1771.34960938 0 1771.34960938 0 1466.84960938 0 c 2,15,-1
 992.25 0 l 1,16,-1
 992.25 660.450195312 l 1,17,-1
 551.25 660.450195312 l 1,18,-1
 551.25 0 l 1,19,-1
 179.549804688 0 l 1,0,-1
1361.84960938 298.200195312 m 1,20,-1
 1467.90039062 298.200195312 l 2,21,22
 1584.45019531 298.200195312 1584.45019531 298.200195312 1647.45019531 344.400390625 c 128,-1,23
 1710.45019531 390.599609375 1710.45019531 390.599609375 1710.45019531 490.349609375 c 0,24,25
 1710.45019531 558.599609375 1710.45019531 558.599609375 1678.95019531 597.974609375 c 128,-1,26
 1647.45019531 637.349609375 1647.45019531 637.349609375 1591.27539062 654.674804688 c 128,-1,27
 1535.09960938 672 1535.09960938 672 1460.54980469 672 c 2,28,-1
 1361.84960938 672 l 1,29,-1
 1361.84960938 298.200195312 l 1,20,-1
EndSplineSet
Validated: 1
EndChar
StartChar: uni040B
Encoding: 1035 1035 421
Width: 1760
VWidth: 2150
GlyphClass: 2
Flags: W
AnchorPoint: "Anchor-1" 880.95 0 basechar 0
AnchorPoint: "Anchor-0" 880.95 1535.1 basechar 0
LayerCount: 2
Fore
SplineSet
1235.84960938 1535.09960938 m 1,0,-1
 1235.84960938 1230.59960938 l 1,1,-1
 799.049804688 1230.59960938 l 1,2,-1
 799.049804688 991.200195312 l 1,3,-1
 1151.84960938 991.200195312 l 2,4,5
 1391.25 991.200195312 1391.25 991.200195312 1519.34960938 879.375 c 128,-1,6
 1647.45019531 767.549804688 1647.45019531 767.549804688 1647.45019531 568.049804688 c 2,7,-1
 1647.45019531 0 l 1,8,-1
 1277.84960938 0 l 1,9,-1
 1277.84960938 544.950195312 l 2,10,11
 1277.84960938 620.549804688 1277.84960938 620.549804688 1244.25 653.625 c 128,-1,12
 1210.65039062 686.700195312 1210.65039062 686.700195312 1135.04980469 686.700195312 c 2,13,-1
 799.049804688 686.700195312 l 1,14,-1
 799.049804688 0 l 1,15,-1
 428.400390625 0 l 1,16,-1
 428.400390625 1230.59960938 l 1,17,-1
 48.2998046875 1230.59960938 l 1,18,-1
 48.2998046875 1535.09960938 l 1,19,-1
 1235.84960938 1535.09960938 l 1,0,-1
EndSplineSet
Validated: 1
EndChar
StartChar: uni040F
Encoding: 1039 1039 424
Width: 1597
VWidth: 2150
GlyphClass: 2
Flags: W
AnchorPoint: "Anchor-1" 799.05 -462 basechar 0
AnchorPoint: "Anchor-0" 799.05 1535.1 basechar 0
LayerCount: 2
Fore
SplineSet
1417.5 0 m 1,0,-1
 978.599609375 0 l 1,1,-1
 978.599609375 -462 l 1,2,-1
 619.5 -462 l 1,3,-1
 619.5 0 l 1,4,-1
 179.549804688 0 l 1,5,-1
 179.549804688 1535.09960938 l 1,6,-1
 551.25 1535.09960938 l 1,7,-1
 551.25 305.549804688 l 1,8,-1
 1046.84960938 305.549804688 l 1,9,-1
 1046.84960938 1535.09960938 l 1,10,-1
 1417.5 1535.09960938 l 1,11,-1
 1417.5 0 l 1,0,-1
EndSplineSet
Validated: 1
EndChar
StartChar: uni041B
Encoding: 1051 1051 436
Width: 1621
VWidth: 2150
GlyphClass: 2
Flags: W
AnchorPoint: "Anchor-1" 810.6 0 basechar 0
AnchorPoint: "Anchor-0" 810.6 1535.1 basechar 0
LayerCount: 2
Fore
SplineSet
1440.59960938 0 m 1,0,-1
 1069.95019531 0 l 1,1,-1
 1069.95019531 1230.59960938 l 1,2,-1
 736.049804688 1230.59960938 l 1,3,4
 725.549804688 1138.20019531 725.549804688 1138.20019531 711.900390625 1025.84960938 c 128,-1,5
 698.25 913.5 698.25 913.5 683.025390625 798 c 128,-1,6
 667.799804688 682.5 667.799804688 682.5 650.474609375 576.974609375 c 128,-1,7
 633.150390625 471.450195312 633.150390625 471.450195312 616.349609375 391.650390625 c 0,8,9
 589.049804688 261.450195312 589.049804688 261.450195312 539.174804688 169.049804688 c 128,-1,10
 489.299804688 76.650390625 489.299804688 76.650390625 403.200195312 27.8251953125 c 128,-1,11
 317.099609375 -21 317.099609375 -21 180.599609375 -21 c 0,12,13
 136.5 -21 136.5 -21 96.599609375 -14.7001953125 c 128,-1,14
 56.7001953125 -8.400390625 56.7001953125 -8.400390625 22.0498046875 2.099609375 c 1,15,-1
 22.0498046875 296.099609375 l 1,16,17
 49.349609375 286.650390625 49.349609375 286.650390625 75.0751953125 280.875 c 128,-1,18
 100.799804688 275.099609375 100.799804688 275.099609375 130.200195312 275.099609375 c 0,19,20
 169.049804688 275.099609375 169.049804688 275.099609375 196.349609375 298.724609375 c 128,-1,21
 223.650390625 322.349609375 223.650390625 322.349609375 246.224609375 390.075195312 c 128,-1,22
 268.799804688 457.799804688 268.799804688 457.799804688 291.900390625 586.950195312 c 0,23,24
 300.299804688 636.299804688 300.299804688 636.299804688 315 729.224609375 c 128,-1,25
 329.700195312 822.150390625 329.700195312 822.150390625 348.599609375 948.150390625 c 128,-1,26
 367.5 1074.15039062 367.5 1074.15039062 387.450195312 1223.77539062 c 128,-1,27
 407.400390625 1373.40039062 407.400390625 1373.40039062 426.299804688 1535.09960938 c 1,28,-1
 1440.59960938 1535.09960938 l 1,29,-1
 1440.59960938 0 l 1,0,-1
EndSplineSet
Validated: 1
EndChar
StartChar: uni042B
Encoding: 1067 1067 452
Width: 1966
VWidth: 2150
GlyphClass: 2
Flags: W
AnchorPoint: "Anchor-1" 983.85 0 basechar 0
AnchorPoint: "Anchor-0" 976.5 1535.1 basechar 0
LayerCount: 2
Fore
SplineSet
179.549804688 0 m 1,0,-1
 179.549804688 1535.09960938 l 1,1,-1
 550.200195312 1535.09960938 l 1,2,-1
 550.200195312 970.200195312 l 1,3,-1
 670.950195312 970.200195312 l 2,4,5
 876.75 970.200195312 876.75 970.200195312 1009.04980469 910.349609375 c 128,-1,6
 1141.34960938 850.5 1141.34960938 850.5 1205.40039062 744.450195312 c 128,-1,7
 1269.45019531 638.400390625 1269.45019531 638.400390625 1269.45019531 500.849609375 c 0,8,9
 1269.45019531 265.650390625 1269.45019531 265.650390625 1111.95019531 132.825195312 c 128,-1,10
 954.450195312 0 954.450195312 0 644.700195312 0 c 2,11,-1
 179.549804688 0 l 1,0,-1
550.200195312 298.200195312 m 1,12,-1
 642.599609375 298.200195312 l 2,13,14
 765.450195312 298.200195312 765.450195312 298.200195312 831.075195312 344.400390625 c 128,-1,15
 896.700195312 390.599609375 896.700195312 390.599609375 896.700195312 490.349609375 c 0,16,17
 896.700195312 558.599609375 896.700195312 558.599609375 865.200195312 597.974609375 c 128,-1,18
 833.700195312 637.349609375 833.700195312 637.349609375 776.474609375 654.674804688 c 128,-1,19
 719.25 672 719.25 672 639.450195312 672 c 2,20,-1
 550.200195312 672 l 1,21,-1
 550.200195312 298.200195312 l 1,12,-1
1416.45019531 0 m 1,22,-1
 1416.45019531 1535.09960938 l 1,23,-1
 1787.09960938 1535.09960938 l 1,24,-1
 1787.09960938 0 l 1,25,-1
 1416.45019531 0 l 1,22,-1
EndSplineSet
Validated: 1
EndChar
StartChar: uni042C
Encoding: 1068 1068 453
Width: 1376
VWidth: 2150
GlyphClass: 2
Flags: W
AnchorPoint: "Anchor-1" 687.75 0 basechar 0
AnchorPoint: "Anchor-0" 687.75 1535.1 basechar 0
LayerCount: 2
Fore
SplineSet
179.549804688 0 m 1,0,-1
 179.549804688 1535.09960938 l 1,1,-1
 550.200195312 1535.09960938 l 1,2,-1
 550.200195312 970.200195312 l 1,3,-1
 688.799804688 970.200195312 l 2,4,5
 895.650390625 970.200195312 895.650390625 970.200195312 1029 910.349609375 c 128,-1,6
 1162.34960938 850.5 1162.34960938 850.5 1226.92480469 744.450195312 c 128,-1,7
 1291.5 638.400390625 1291.5 638.400390625 1291.5 500.849609375 c 0,8,9
 1291.5 265.650390625 1291.5 265.650390625 1133.47460938 132.825195312 c 128,-1,10
 975.450195312 0 975.450195312 0 664.650390625 0 c 2,11,-1
 179.549804688 0 l 1,0,-1
550.200195312 298.200195312 m 1,12,-1
 661.5 298.200195312 l 2,13,14
 786.450195312 298.200195312 786.450195312 298.200195312 853.125 344.400390625 c 128,-1,15
 919.799804688 390.599609375 919.799804688 390.599609375 919.799804688 490.349609375 c 0,16,17
 919.799804688 558.599609375 919.799804688 558.599609375 886.724609375 597.974609375 c 128,-1,18
 853.650390625 637.349609375 853.650390625 637.349609375 793.275390625 654.674804688 c 128,-1,19
 732.900390625 672 732.900390625 672 653.099609375 672 c 2,20,-1
 550.200195312 672 l 1,21,-1
 550.200195312 298.200195312 l 1,12,-1
EndSplineSet
Validated: 1
EndChar
StartChar: uni042D
Encoding: 1069 1069 454
Width: 1433
VWidth: 2150
GlyphClass: 2
Flags: W
AnchorPoint: "Anchor-1" 717.15 0 basechar 0
AnchorPoint: "Anchor-0" 586.95 1535.1 basechar 0
LayerCount: 2
Fore
SplineSet
571.200195312 1249.5 m 0,0,1
 463.049804688 1249.5 463.049804688 1249.5 369.599609375 1219.57519531 c 128,-1,2
 276.150390625 1189.65039062 276.150390625 1189.65039062 184.799804688 1145.54980469 c 1,3,-1
 74.5498046875 1440.59960938 l 1,4,5
 178.5 1488.90039062 178.5 1488.90039062 308.700195312 1522.5 c 128,-1,6
 438.900390625 1556.09960938 438.900390625 1556.09960938 586.950195312 1556.09960938 c 0,7,8
 766.5 1556.09960938 766.5 1556.09960938 903 1503.59960938 c 128,-1,9
 1039.5 1451.09960938 1039.5 1451.09960938 1131.375 1351.34960938 c 128,-1,10
 1223.25 1251.59960938 1223.25 1251.59960938 1269.97460938 1108.79980469 c 128,-1,11
 1316.70019531 966 1316.70019531 966 1316.70019531 786.450195312 c 0,12,13
 1316.70019531 550.200195312 1316.70019531 550.200195312 1236.375 368.025390625 c 128,-1,14
 1156.04980469 185.849609375 1156.04980469 185.849609375 990.150390625 82.4248046875 c 128,-1,15
 824.25 -21 824.25 -21 565.950195312 -21 c 0,16,17
 431.549804688 -21 431.549804688 -21 320.775390625 -0.525390625 c 128,-1,18
 210 19.9501953125 210 19.9501953125 109.200195312 57.75 c 1,19,-1
 109.200195312 372.75 l 1,20,21
 226.799804688 333.900390625 226.799804688 333.900390625 329.700195312 310.799804688 c 128,-1,22
 432.599609375 287.700195312 432.599609375 287.700195312 546 287.700195312 c 0,23,24
 636.299804688 287.700195312 636.299804688 287.700195312 705.599609375 309.224609375 c 128,-1,25
 774.900390625 330.75 774.900390625 330.75 822.674804688 373.275390625 c 128,-1,26
 870.450195312 415.799804688 870.450195312 415.799804688 897.224609375 478.799804688 c 128,-1,27
 924 541.799804688 924 541.799804688 928.200195312 623.700195312 c 1,28,-1
 290.849609375 623.700195312 l 1,29,-1
 290.849609375 915.599609375 l 1,30,-1
 927.150390625 915.599609375 l 1,31,32
 919.799804688 998.549804688 919.799804688 998.549804688 892.5 1060.5 c 128,-1,33
 865.200195312 1122.45019531 865.200195312 1122.45019531 819 1164.97460938 c 128,-1,34
 772.799804688 1207.5 772.799804688 1207.5 710.849609375 1228.5 c 128,-1,35
 648.900390625 1249.5 648.900390625 1249.5 571.200195312 1249.5 c 0,0,1
EndSplineSet
Validated: 1
EndChar
StartChar: uni042F
Encoding: 1071 1071 456
Width: 1445
VWidth: 2150
GlyphClass: 2
Flags: W
AnchorPoint: "Anchor-1" 723.45 0 basechar 0
AnchorPoint: "Anchor-0" 723.45 1535.1 basechar 0
LayerCount: 2
Fore
SplineSet
731.849609375 574.349609375 m 1,0,-1
 400.049804688 0 l 1,1,-1
 -15.75 0 l 1,2,-1
 413.700195312 673.049804688 l 1,3,4
 350.700195312 704.549804688 350.700195312 704.549804688 291.900390625 757.575195312 c 128,-1,5
 233.099609375 810.599609375 233.099609375 810.599609375 195.825195312 892.5 c 128,-1,6
 158.549804688 974.400390625 158.549804688 974.400390625 158.549804688 1088.84960938 c 0,7,8
 158.549804688 1308.29980469 158.549804688 1308.29980469 312.900390625 1421.70019531 c 128,-1,9
 467.25 1535.09960938 467.25 1535.09960938 761.25 1535.09960938 c 2,10,-1
 1266.29980469 1535.09960938 l 1,11,-1
 1266.29980469 0 l 1,12,-1
 895.650390625 0 l 1,13,-1
 895.650390625 574.349609375 l 1,14,-1
 731.849609375 574.349609375 l 1,0,-1
895.650390625 1245.29980469 m 1,15,-1
 771.75 1245.29980469 l 2,16,17
 686.700195312 1245.29980469 686.700195312 1245.29980469 633.674804688 1222.72460938 c 128,-1,18
 580.650390625 1200.15039062 580.650390625 1200.15039062 556.5 1160.77539062 c 128,-1,19
 532.349609375 1121.40039062 532.349609375 1121.40039062 532.349609375 1067.84960938 c 0,20,21
 532.349609375 962.849609375 532.349609375 962.849609375 596.924804688 912.450195312 c 128,-1,22
 661.5 862.049804688 661.5 862.049804688 781.200195312 862.049804688 c 2,23,-1
 895.650390625 862.049804688 l 1,24,-1
 895.650390625 1245.29980469 l 1,15,-1
EndSplineSet
Validated: 1
EndChar
StartChar: uni0433
Encoding: 1075 1075 460
Width: 1053
VWidth: 2150
GlyphClass: 2
Flags: W
AnchorPoint: "Anchor-1" 527.1 0 basechar 0
AnchorPoint: "Anchor-0" 582.75 1182.3 basechar 0
LayerCount: 2
Fore
SplineSet
1002.75 1182.29980469 m 1,0,-1
 1002.75 909.299804688 l 1,1,-1
 520.799804688 909.299804688 l 1,2,-1
 520.799804688 0 l 1,3,-1
 155.400390625 0 l 1,4,-1
 155.400390625 1182.29980469 l 1,5,-1
 1002.75 1182.29980469 l 1,0,-1
EndSplineSet
Validated: 1
EndChar
StartChar: uni043C
Encoding: 1084 1084 469
Width: 1831
VWidth: 2150
GlyphClass: 2
Flags: W
AnchorPoint: "Anchor-1" 916.65 0 basechar 0
AnchorPoint: "Anchor-0" 916.65 1182.3 basechar 0
LayerCount: 2
Fore
SplineSet
1676.84960938 1182.29980469 m 1,0,-1
 1676.84960938 0 l 1,1,-1
 1344 0 l 1,2,-1
 1344 576.450195312 l 2,3,4
 1344 661.5 1344 661.5 1347.15039062 743.400390625 c 128,-1,5
 1350.29980469 825.299804688 1350.29980469 825.299804688 1356.59960938 894.599609375 c 1,6,-1
 1350.29980469 894.599609375 l 1,7,-1
 1047.90039062 0 l 1,8,-1
 787.5 0 l 1,9,-1
 481.950195312 896.700195312 l 1,10,-1
 474.599609375 896.700195312 l 1,11,12
 481.950195312 826.349609375 481.950195312 826.349609375 485.099609375 745.5 c 128,-1,13
 488.25 664.650390625 488.25 664.650390625 488.25 568.049804688 c 2,14,-1
 488.25 0 l 1,15,-1
 156.450195312 0 l 1,16,-1
 156.450195312 1182.29980469 l 1,17,-1
 662.549804688 1182.29980469 l 1,18,-1
 920.849609375 423.150390625 l 1,19,-1
 1183.34960938 1182.29980469 l 1,20,-1
 1676.84960938 1182.29980469 l 1,0,-1
EndSplineSet
Validated: 1
EndChar
StartChar: uni043D
Encoding: 1085 1085 470
Width: 1426
VWidth: 2150
GlyphClass: 2
Flags: W
AnchorPoint: "Anchor-1" 714 0 basechar 0
AnchorPoint: "Anchor-0" 714 1182.3 basechar 0
LayerCount: 2
Fore
SplineSet
520.799804688 1182.29980469 m 1,0,-1
 520.799804688 742.349609375 l 1,1,-1
 907.200195312 742.349609375 l 1,2,-1
 907.200195312 1182.29980469 l 1,3,-1
 1272.59960938 1182.29980469 l 1,4,-1
 1272.59960938 0 l 1,5,-1
 907.200195312 0 l 1,6,-1
 907.200195312 470.400390625 l 1,7,-1
 520.799804688 470.400390625 l 1,8,-1
 520.799804688 0 l 1,9,-1
 155.400390625 0 l 1,10,-1
 155.400390625 1182.29980469 l 1,11,-1
 520.799804688 1182.29980469 l 1,0,-1
EndSplineSet
Validated: 1
EndChar
StartChar: uni0449
Encoding: 1097 1097 482
Width: 2214
VWidth: 2150
GlyphClass: 2
Flags: W
AnchorPoint: "Anchor-1" 1061.55 0 basechar 0
AnchorPoint: "Anchor-0" 1061.55 1182.3 basechar 0
LayerCount: 2
Fore
SplineSet
1966.65039062 1182.29980469 m 1,0,-1
 1966.65039062 269.849609375 l 1,1,-1
 2186.09960938 269.849609375 l 1,2,-1
 2186.09960938 -428.400390625 l 1,3,-1
 1862.70019531 -428.400390625 l 1,4,-1
 1862.70019531 0 l 1,5,-1
 155.400390625 0 l 1,6,-1
 155.400390625 1182.29980469 l 1,7,-1
 520.799804688 1182.29980469 l 1,8,-1
 520.799804688 273 l 1,9,-1
 882 273 l 1,10,-1
 882 1182.29980469 l 1,11,-1
 1242.15039062 1182.29980469 l 1,12,-1
 1242.15039062 273 l 1,13,-1
 1601.25 273 l 1,14,-1
 1601.25 1182.29980469 l 1,15,-1
 1966.65039062 1182.29980469 l 1,0,-1
EndSplineSet
Validated: 1
EndChar
StartChar: uni044A
Encoding: 1098 1098 483
Width: 1529
VWidth: 2150
GlyphClass: 2
Flags: W
AnchorPoint: "Anchor-1" 765.45 0 basechar 0
AnchorPoint: "Anchor-0" 765.45 1182.3 basechar 0
LayerCount: 2
Fore
SplineSet
767.549804688 1182.29980469 m 1,0,-1
 767.549804688 741.299804688 l 1,1,-1
 948.150390625 741.299804688 l 2,2,3
 1131.90039062 741.299804688 1131.90039062 741.299804688 1244.25 700.875 c 128,-1,4
 1356.59960938 660.450195312 1356.59960938 660.450195312 1407.52539062 581.174804688 c 128,-1,5
 1458.45019531 501.900390625 1458.45019531 501.900390625 1458.45019531 385.349609375 c 256,6,7
 1458.45019531 268.799804688 1458.45019531 268.799804688 1407 182.174804688 c 128,-1,8
 1355.54980469 95.5498046875 1355.54980469 95.5498046875 1240.04980469 47.775390625 c 128,-1,9
 1124.54980469 0 1124.54980469 0 930.299804688 0 c 2,10,-1
 401.099609375 0 l 1,11,-1
 401.099609375 909.299804688 l 1,12,-1
 26.25 909.299804688 l 1,13,-1
 26.25 1182.29980469 l 1,14,-1
 767.549804688 1182.29980469 l 1,0,-1
908.25 495.599609375 m 2,15,-1
 767.549804688 495.599609375 l 1,16,-1
 767.549804688 245.700195312 l 1,17,-1
 912.450195312 245.700195312 l 2,18,19
 997.5 245.700195312 997.5 245.700195312 1045.27539062 276.674804688 c 128,-1,20
 1093.04980469 307.650390625 1093.04980469 307.650390625 1093.04980469 372.75 c 0,21,22
 1093.04980469 434.700195312 1093.04980469 434.700195312 1050.52539062 465.150390625 c 128,-1,23
 1008 495.599609375 1008 495.599609375 908.25 495.599609375 c 2,15,-1
EndSplineSet
Validated: 1
EndChar
StartChar: uni044D
Encoding: 1101 1101 486
Width: 1132
VWidth: 2150
GlyphClass: 2
Flags: W
AnchorPoint: "Anchor-1" 567 0 basechar 0
AnchorPoint: "Anchor-0" 502.95 1182.3 basechar 0
LayerCount: 2
Fore
SplineSet
456.75 -21 m 0,0,1
 340.200195312 -21 340.200195312 -21 248.325195312 -3.6748046875 c 128,-1,2
 156.450195312 13.650390625 156.450195312 13.650390625 75.599609375 55.650390625 c 1,3,-1
 75.599609375 334.950195312 l 1,4,5
 158.549804688 296.099609375 158.549804688 296.099609375 247.799804688 270.375 c 128,-1,6
 337.049804688 244.650390625 337.049804688 244.650390625 422.099609375 244.650390625 c 0,7,8
 487.200195312 244.650390625 487.200195312 244.650390625 540.75 267.224609375 c 128,-1,9
 594.299804688 289.799804688 594.299804688 289.799804688 627.900390625 340.200195312 c 128,-1,10
 661.5 390.599609375 661.5 390.599609375 664.650390625 474.599609375 c 1,11,-1
 240.450195312 474.599609375 l 1,12,-1
 240.450195312 709.799804688 l 1,13,-1
 664.650390625 709.799804688 l 1,14,15
 659.400390625 824.25 659.400390625 824.25 602.174804688 881.474609375 c 128,-1,16
 544.950195312 938.700195312 544.950195312 938.700195312 450.450195312 938.700195312 c 0,17,18
 378 938.700195312 378 938.700195312 304.5 918.75 c 128,-1,19
 231 898.799804688 231 898.799804688 172.200195312 871.5 c 1,20,-1
 69.2998046875 1113 l 1,21,22
 142.799804688 1146.59960938 142.799804688 1146.59960938 249.375 1174.95019531 c 128,-1,23
 355.950195312 1203.29980469 355.950195312 1203.29980469 483 1203.29980469 c 0,24,25
 645.75 1203.29980469 645.75 1203.29980469 770.700195312 1142.92480469 c 128,-1,26
 895.650390625 1082.54980469 895.650390625 1082.54980469 967.049804688 951.299804688 c 128,-1,27
 1038.45019531 820.049804688 1038.45019531 820.049804688 1038.45019531 607.950195312 c 0,28,29
 1038.45019531 407.400390625 1038.45019531 407.400390625 973.349609375 266.700195312 c 128,-1,30
 908.25 126 908.25 126 778.575195312 52.5 c 128,-1,31
 648.900390625 -21 648.900390625 -21 456.75 -21 c 0,0,1
EndSplineSet
Validated: 1
EndChar
StartChar: uni045A
Encoding: 1114 1114 498
Width: 1915
VWidth: 2150
GlyphClass: 2
Flags: W
AnchorPoint: "Anchor-1" 957.6 0 basechar 0
AnchorPoint: "Anchor-0" 957.6 1182.3 basechar 0
LayerCount: 2
Fore
SplineSet
1200.15039062 1182.29980469 m 1,0,-1
 1200.15039062 741.299804688 l 1,1,-1
 1293.59960938 741.299804688 l 2,2,3
 1491 741.299804688 1491 741.299804688 1611.75 701.400390625 c 128,-1,4
 1732.5 661.5 1732.5 661.5 1787.625 582.224609375 c 128,-1,5
 1842.75 502.950195312 1842.75 502.950195312 1842.75 384.299804688 c 0,6,7
 1842.75 267.75 1842.75 267.75 1792.34960938 181.650390625 c 128,-1,8
 1741.95019531 95.5498046875 1741.95019531 95.5498046875 1628.02539062 47.775390625 c 128,-1,9
 1514.09960938 0 1514.09960938 0 1321.95019531 0 c 2,10,-1
 834.75 0 l 1,11,-1
 834.75 470.400390625 l 1,12,-1
 520.799804688 470.400390625 l 1,13,-1
 520.799804688 0 l 1,14,-1
 155.400390625 0 l 1,15,-1
 155.400390625 1182.29980469 l 1,16,-1
 520.799804688 1182.29980469 l 1,17,-1
 520.799804688 742.349609375 l 1,18,-1
 834.75 742.349609375 l 1,19,-1
 834.75 1182.29980469 l 1,20,-1
 1200.15039062 1182.29980469 l 1,0,-1
1299.90039062 495.599609375 m 2,21,-1
 1200.15039062 495.599609375 l 1,22,-1
 1200.15039062 245.700195312 l 1,23,-1
 1304.09960938 245.700195312 l 2,24,25
 1386 245.700195312 1386 245.700195312 1431.67480469 276.674804688 c 128,-1,26
 1477.34960938 307.650390625 1477.34960938 307.650390625 1477.34960938 372.75 c 0,27,28
 1477.34960938 434.700195312 1477.34960938 434.700195312 1436.92480469 465.150390625 c 128,-1,29
 1396.5 495.599609375 1396.5 495.599609375 1299.90039062 495.599609375 c 2,21,-1
EndSplineSet
Validated: 1
EndChar
StartChar: uni0462
Encoding: 1122 1122 607
Width: 1441
VWidth: 2150
GlyphClass: 2
Flags: W
AnchorPoint: "Anchor-1" 721.35 0 basechar 0
AnchorPoint: "Anchor-0" 721.35 1535.1 basechar 0
LayerCount: 2
Fore
SplineSet
245.700195312 0 m 1,0,-1
 245.700195312 1103.54980469 l 1,1,-1
 -4.2001953125 1103.54980469 l 1,2,-1
 -4.2001953125 1358.70019531 l 1,3,-1
 245.700195312 1358.70019531 l 1,4,-1
 245.700195312 1535.09960938 l 1,5,-1
 615.299804688 1535.09960938 l 1,6,-1
 615.299804688 1358.70019531 l 1,7,-1
 1017.45019531 1358.70019531 l 1,8,-1
 1017.45019531 1103.54980469 l 1,9,-1
 615.299804688 1103.54980469 l 1,10,-1
 615.299804688 950.25 l 1,11,-1
 754.950195312 950.25 l 2,12,13
 961.799804688 950.25 961.799804688 950.25 1095.15039062 890.924804688 c 128,-1,14
 1228.5 831.599609375 1228.5 831.599609375 1292.54980469 727.650390625 c 128,-1,15
 1356.59960938 623.700195312 1356.59960938 623.700195312 1356.59960938 490.349609375 c 0,16,17
 1356.59960938 262.5 1356.59960938 262.5 1199.09960938 131.25 c 128,-1,18
 1041.59960938 0 1041.59960938 0 730.799804688 0 c 2,19,-1
 245.700195312 0 l 1,0,-1
615.299804688 298.200195312 m 1,20,-1
 727.650390625 298.200195312 l 2,21,22
 852.599609375 298.200195312 852.599609375 298.200195312 918.75 342.825195312 c 128,-1,23
 984.900390625 387.450195312 984.900390625 387.450195312 984.900390625 480.900390625 c 0,24,25
 984.900390625 543.900390625 984.900390625 543.900390625 951.825195312 581.700195312 c 128,-1,26
 918.75 619.5 918.75 619.5 858.900390625 636.299804688 c 128,-1,27
 799.049804688 653.099609375 799.049804688 653.099609375 718.200195312 653.099609375 c 2,28,-1
 615.299804688 653.099609375 l 1,29,-1
 615.299804688 298.200195312 l 1,20,-1
EndSplineSet
Validated: 1
EndChar
StartChar: uni0466
Encoding: 1126 1126 611
Width: 1694
VWidth: 2150
GlyphClass: 2
Flags: W
AnchorPoint: "Anchor-1" 847.35 0 basechar 0
AnchorPoint: "Anchor-0" 847.35 1535.1 basechar 0
LayerCount: 2
Fore
SplineSet
1066.79980469 1538.25 m 1,0,-1
 1699.95019531 0 l 1,1,-1
 1329.29980469 0 l 1,2,-1
 1106.70019531 622.650390625 l 1,3,-1
 1011.15039062 622.650390625 l 1,4,-1
 1011.15039062 0 l 1,5,-1
 684.599609375 0 l 1,6,-1
 684.599609375 622.650390625 l 1,7,-1
 588 622.650390625 l 1,8,-1
 367.5 0 l 1,9,-1
 -5.25 0 l 1,10,-1
 623.700195312 1538.25 l 1,11,-1
 1066.79980469 1538.25 l 1,0,-1
846.299804688 1312.5 m 1,12,13
 842.099609375 1289.40039062 842.099609375 1289.40039062 829.5 1253.70019531 c 128,-1,14
 816.900390625 1218 816.900390625 1218 801.150390625 1176 c 128,-1,15
 785.400390625 1134 785.400390625 1134 770.174804688 1095.67480469 c 128,-1,16
 754.950195312 1057.34960938 754.950195312 1057.34960938 743.400390625 1030.04980469 c 2,17,-1
 691.950195312 899.849609375 l 1,18,-1
 998.549804688 899.849609375 l 1,19,-1
 947.099609375 1031.09960938 l 2,20,21
 936.599609375 1059.45019531 936.599609375 1059.45019531 921.900390625 1097.77539062 c 128,-1,22
 907.200195312 1136.09960938 907.200195312 1136.09960938 892.5 1176.52539062 c 128,-1,23
 877.799804688 1216.95019531 877.799804688 1216.95019531 865.200195312 1253.17480469 c 128,-1,24
 852.599609375 1289.40039062 852.599609375 1289.40039062 846.299804688 1312.5 c 1,12,13
EndSplineSet
Validated: 1
EndChar
StartChar: uni0467
Encoding: 1127 1127 612
Width: 1441
VWidth: 2150
GlyphClass: 2
Flags: W
AnchorPoint: "Anchor-1" 720.3 0 basechar 0
AnchorPoint: "Anchor-0" 720.3 1182.3 basechar 0
LayerCount: 2
Fore
SplineSet
928.200195312 1182.29980469 m 1,0,-1
 1450.04980469 0 l 1,1,-1
 1098.29980469 0 l 1,2,-1
 946.049804688 417.900390625 l 1,3,-1
 872.549804688 417.900390625 l 1,4,-1
 872.549804688 0 l 1,5,-1
 570.150390625 0 l 1,6,-1
 570.150390625 417.900390625 l 1,7,-1
 495.599609375 417.900390625 l 1,8,-1
 343.349609375 0 l 1,9,-1
 -8.400390625 0 l 1,10,-1
 509.25 1182.29980469 l 1,11,-1
 928.200195312 1182.29980469 l 1,0,-1
722.400390625 978.599609375 m 1,12,-1
 715.049804688 978.599609375 l 1,13,14
 705.599609375 946.049804688 705.599609375 946.049804688 688.799804688 899.849609375 c 128,-1,15
 672 853.650390625 672 853.650390625 655.724609375 812.174804688 c 128,-1,16
 639.450195312 770.700195312 639.450195312 770.700195312 628.950195312 747.599609375 c 2,17,-1
 592.200195312 661.5 l 1,18,-1
 853.650390625 661.5 l 1,19,-1
 816.900390625 743.400390625 l 2,20,21
 805.349609375 769.650390625 805.349609375 769.650390625 786.974609375 812.700195312 c 128,-1,22
 768.599609375 855.75 768.599609375 855.75 750.75 901.424804688 c 128,-1,23
 732.900390625 947.099609375 732.900390625 947.099609375 722.400390625 978.599609375 c 1,12,-1
EndSplineSet
Validated: 1
EndChar
StartChar: uni046A
Encoding: 1130 1130 615
Width: 1787
VWidth: 2150
GlyphClass: 2
Flags: W
AnchorPoint: "Anchor-1" 893.55 0 basechar 0
AnchorPoint: "Anchor-0" 893.55 1535.1 basechar 0
LayerCount: 2
Fore
SplineSet
1600.20019531 1535.09960938 m 1,0,-1
 1600.20019531 1371.29980469 l 1,1,-1
 1216.95019531 897.75 l 1,2,3
 1309.34960938 872.549804688 1309.34960938 872.549804688 1378.125 825.299804688 c 128,-1,4
 1446.90039062 778.049804688 1446.90039062 778.049804688 1499.92480469 694.575195312 c 128,-1,5
 1552.95019531 611.099609375 1552.95019531 611.099609375 1601.25 475.650390625 c 2,6,-1
 1771.34960938 0 l 1,7,-1
 1396.5 0 l 1,8,-1
 1267.34960938 381.150390625 l 2,9,10
 1239 468.299804688 1239 468.299804688 1210.65039062 525 c 128,-1,11
 1182.29980469 581.700195312 1182.29980469 581.700195312 1149.75 612.674804688 c 128,-1,12
 1117.20019531 643.650390625 1117.20019531 643.650390625 1072.04980469 652.049804688 c 1,13,-1
 1072.04980469 0 l 1,14,-1
 717.150390625 0 l 1,15,-1
 717.150390625 652.049804688 l 1,16,17
 672 644.700195312 672 644.700195312 638.400390625 614.25 c 128,-1,18
 604.799804688 583.799804688 604.799804688 583.799804688 576.974609375 526.049804688 c 128,-1,19
 549.150390625 468.299804688 549.150390625 468.299804688 519.75 381.150390625 c 2,20,-1
 390.599609375 0 l 1,21,-1
 16.7998046875 0 l 1,22,-1
 186.900390625 475.650390625 l 2,23,24
 223.650390625 579.599609375 223.650390625 579.599609375 260.924804688 651.525390625 c 128,-1,25
 298.200195312 723.450195312 298.200195312 723.450195312 341.775390625 771.224609375 c 128,-1,26
 385.349609375 819 385.349609375 819 439.950195312 848.924804688 c 128,-1,27
 494.549804688 878.849609375 494.549804688 878.849609375 565.950195312 897.75 c 1,28,-1
 190.049804688 1371.29980469 l 1,29,-1
 190.049804688 1535.09960938 l 1,30,-1
 1600.20019531 1535.09960938 l 1,0,-1
1127.70019531 1247.40039062 m 1,31,-1
 658.349609375 1247.40039062 l 1,32,-1
 891.450195312 928.200195312 l 1,33,-1
 1127.70019531 1247.40039062 l 1,31,-1
EndSplineSet
Validated: 1
EndChar
StartChar: uni046B
Encoding: 1131 1131 616
Width: 1437
VWidth: 2150
GlyphClass: 2
Flags: W
AnchorPoint: "Anchor-1" 719.25 0 basechar 0
AnchorPoint: "Anchor-0" 719.25 1182.3 basechar 0
LayerCount: 2
Fore
SplineSet
1308.29980469 1182.29980469 m 1,0,-1
 1308.29980469 1047.90039062 l 1,1,-1
 1012.20019531 679.349609375 l 1,2,3
 1083.59960938 659.400390625 1083.59960938 659.400390625 1138.20019531 618.974609375 c 128,-1,4
 1192.79980469 578.549804688 1192.79980469 578.549804688 1233.75 516.599609375 c 128,-1,5
 1274.70019531 454.650390625 1274.70019531 454.650390625 1305.15039062 366.450195312 c 2,6,-1
 1426.95019531 0 l 1,7,-1
 1094.09960938 0 l 1,8,-1
 1001.70019531 316.049804688 l 2,9,10
 984.900390625 369.599609375 984.900390625 369.599609375 966 401.625 c 128,-1,11
 947.099609375 433.650390625 947.099609375 433.650390625 924.525390625 449.924804688 c 128,-1,12
 901.950195312 466.200195312 901.950195312 466.200195312 873.599609375 470.400390625 c 1,13,-1
 873.599609375 0 l 1,14,-1
 569.099609375 0 l 1,15,-1
 569.099609375 471.450195312 l 1,16,17
 539.700195312 468.299804688 539.700195312 468.299804688 516.599609375 453.075195312 c 128,-1,18
 493.5 437.849609375 493.5 437.849609375 474.075195312 405.825195312 c 128,-1,19
 454.650390625 373.799804688 454.650390625 373.799804688 436.799804688 317.099609375 c 2,20,-1
 343.349609375 0 l 1,21,-1
 10.5 0 l 1,22,-1
 129.150390625 366.450195312 l 2,23,24
 158.549804688 456.75 158.549804688 456.75 200.549804688 520.275390625 c 128,-1,25
 242.549804688 583.799804688 242.549804688 583.799804688 299.775390625 623.700195312 c 128,-1,26
 357 663.599609375 357 663.599609375 429.450195312 681.450195312 c 1,27,-1
 130.200195312 1047.90039062 l 1,28,-1
 130.200195312 1182.29980469 l 1,29,-1
 1308.29980469 1182.29980469 l 1,0,-1
894.599609375 941.849609375 m 1,30,-1
 540.75 941.849609375 l 1,31,-1
 717.150390625 715.049804688 l 1,32,-1
 894.599609375 941.849609375 l 1,30,-1
EndSplineSet
Validated: 1
EndChar
StartChar: uni0474
Encoding: 1140 1140 625
Width: 1573
VWidth: 2150
GlyphClass: 2
Flags: W
AnchorPoint: "Anchor-1" 788.55 0 basechar 0
AnchorPoint: "Anchor-0" 735 1535.1 basechar 0
LayerCount: 2
Fore
SplineSet
1444.79980469 1247.40039062 m 0,0,1
 1407 1247.40039062 1407 1247.40039062 1381.27539062 1229.54980469 c 128,-1,2
 1355.54980469 1211.70019531 1355.54980469 1211.70019531 1336.125 1173.90039062 c 128,-1,3
 1316.70019531 1136.09960938 1316.70019531 1136.09960938 1295.70019531 1076.25 c 2,4,-1
 943.950195312 0 l 1,5,-1
 521.849609375 0 l 1,6,-1
 0 1535.09960938 l 1,7,-1
 397.950195312 1535.09960938 l 1,8,-1
 662.549804688 655.200195312 l 2,9,10
 677.25 600.599609375 677.25 600.599609375 689.849609375 542.849609375 c 128,-1,11
 702.450195312 485.099609375 702.450195312 485.099609375 712.950195312 428.924804688 c 128,-1,12
 723.450195312 372.75 723.450195312 372.75 729.75 323.400390625 c 1,13,14
 733.950195312 360.150390625 733.950195312 360.150390625 741.825195312 401.625 c 128,-1,15
 749.700195312 443.099609375 749.700195312 443.099609375 759.674804688 486.674804688 c 128,-1,16
 769.650390625 530.25 769.650390625 530.25 780.674804688 572.775390625 c 128,-1,17
 791.700195312 615.299804688 791.700195312 615.299804688 803.25 653.099609375 c 2,18,-1
 940.799804688 1132.95019531 l 2,19,20
 979.650390625 1270.5 979.650390625 1270.5 1025.84960938 1363.95019531 c 128,-1,21
 1072.04980469 1457.40039062 1072.04980469 1457.40039062 1143.97460938 1505.17480469 c 128,-1,22
 1215.90039062 1552.95019531 1215.90039062 1552.95019531 1332.45019531 1552.95019531 c 0,23,24
 1402.79980469 1552.95019531 1402.79980469 1552.95019531 1461.59960938 1539.29980469 c 128,-1,25
 1520.40039062 1525.65039062 1520.40039062 1525.65039062 1549.79980469 1509.90039062 c 1,26,-1
 1549.79980469 1225.34960938 l 1,27,28
 1530.90039062 1233.75 1530.90039062 1233.75 1502.02539062 1240.57519531 c 128,-1,29
 1473.15039062 1247.40039062 1473.15039062 1247.40039062 1444.79980469 1247.40039062 c 0,0,1
EndSplineSet
Validated: 1
EndChar
StartChar: uni0484
Encoding: 1156 1156 1044
Width: 0
VWidth: 2150
GlyphClass: 4
Flags: W
AnchorPoint: "Anchor-8" -550.2 1654.8 basemark 0
AnchorPoint: "Anchor-8" -554.4 1182.3 mark 0
AnchorPoint: "Anchor-5" -554.4 1182.3 mark 0
AnchorPoint: "Anchor-0" -554.4 1182.3 mark 0
LayerCount: 2
Fore
SplineSet
-425.25 1654.79980469 m 0,0,1
 -365.400390625 1654.79980469 -365.400390625 1654.79980469 -311.849609375 1641.67480469 c 128,-1,2
 -258.299804688 1628.54980469 -258.299804688 1628.54980469 -217.875 1596 c 128,-1,3
 -177.450195312 1563.45019531 -177.450195312 1563.45019531 -153.825195312 1504.65039062 c 128,-1,4
 -130.200195312 1445.84960938 -130.200195312 1445.84960938 -130.200195312 1354.5 c 2,5,-1
 -130.200195312 1296.75 l 1,6,-1
 -342.299804688 1296.75 l 1,7,8
 -347.549804688 1353.45019531 -347.549804688 1353.45019531 -371.700195312 1382.32519531 c 128,-1,9
 -395.849609375 1411.20019531 -395.849609375 1411.20019531 -445.200195312 1411.20019531 c 0,10,11
 -488.25 1411.20019531 -488.25 1411.20019531 -528.150390625 1393.875 c 128,-1,12
 -568.049804688 1376.54980469 -568.049804688 1376.54980469 -621.599609375 1354.5 c 128,-1,13
 -675.150390625 1332.45019531 -675.150390625 1332.45019531 -756.525390625 1315.125 c 128,-1,14
 -837.900390625 1297.79980469 -837.900390625 1297.79980469 -962.849609375 1297.79980469 c 2,15,-1
 -980.700195312 1297.79980469 l 1,16,-1
 -980.700195312 1527.75 l 1,17,-1
 -964.950195312 1527.75 l 2,18,19
 -883.049804688 1527.75 -883.049804688 1527.75 -813.224609375 1546.65039062 c 128,-1,20
 -743.400390625 1565.54980469 -743.400390625 1565.54980469 -679.349609375 1590.75 c 128,-1,21
 -615.299804688 1615.95019531 -615.299804688 1615.95019531 -553.349609375 1635.375 c 128,-1,22
 -491.400390625 1654.79980469 -491.400390625 1654.79980469 -425.25 1654.79980469 c 0,0,1
EndSplineSet
Validated: 1
EndChar
StartChar: uni0486
Encoding: 1158 1158 1042
Width: 0
VWidth: 2150
GlyphClass: 4
Flags: W
AnchorPoint: "Anchor-8" -570.15 1717.8 basemark 0
AnchorPoint: "Anchor-8" -574.35 1182.3 mark 0
AnchorPoint: "Anchor-5" -574.35 1182.3 mark 0
AnchorPoint: "Anchor-0" -574.35 1182.3 mark 0
LayerCount: 2
Fore
SplineSet
-395.849609375 1535.09960938 m 0,0,1
 -395.849609375 1457.40039062 -395.849609375 1457.40039062 -441 1399.125 c 128,-1,2
 -486.150390625 1340.84960938 -486.150390625 1340.84960938 -564.375 1308.29980469 c 128,-1,3
 -642.599609375 1275.75 -642.599609375 1275.75 -743.400390625 1273.65039062 c 1,4,-1
 -743.400390625 1372.34960938 l 1,5,6
 -681.450195312 1381.79980469 -681.450195312 1381.79980469 -652.049804688 1411.72460938 c 128,-1,7
 -622.650390625 1441.65039062 -622.650390625 1441.65039062 -622.650390625 1468.95019531 c 256,8,9
 -622.650390625 1496.25 -622.650390625 1496.25 -642.599609375 1506.75 c 128,-1,10
 -662.549804688 1517.25 -662.549804688 1517.25 -688.799804688 1523.54980469 c 128,-1,11
 -715.049804688 1529.84960938 -715.049804688 1529.84960938 -735 1544.54980469 c 128,-1,12
 -754.950195312 1559.25 -754.950195312 1559.25 -754.950195312 1593.90039062 c 0,13,14
 -754.950195312 1647.45019531 -754.950195312 1647.45019531 -709.799804688 1682.625 c 128,-1,15
 -664.650390625 1717.79980469 -664.650390625 1717.79980469 -577.5 1717.79980469 c 256,16,17
 -490.349609375 1717.79980469 -490.349609375 1717.79980469 -443.099609375 1667.40039062 c 128,-1,18
 -395.849609375 1617 -395.849609375 1617 -395.849609375 1535.09960938 c 0,0,1
EndSplineSet
Validated: 1
EndChar
StartChar: uni048B
Encoding: 1163 1163 643
Width: 1704
VWidth: 2150
GlyphClass: 2
Flags: W
AnchorPoint: "Anchor-1" 785.4 -428.4 basechar 0
AnchorPoint: "Anchor-0" 785.4 1691.55 basechar 0
LayerCount: 2
Fore
SplineSet
1181.25 -428.400390625 m 1,0,-1
 1329.29980469 0 l 1,1,-1
 1047.90039062 0 l 1,2,-1
 1047.90039062 449.400390625 l 2,3,4
 1047.90039062 504 1047.90039062 504 1050 568.049804688 c 128,-1,5
 1052.09960938 632.099609375 1052.09960938 632.099609375 1056.29980469 691.950195312 c 128,-1,6
 1060.5 751.799804688 1060.5 751.799804688 1065.75 793.799804688 c 1,7,-1
 569.099609375 0 l 1,8,-1
 155.400390625 0 l 1,9,-1
 155.400390625 1182.29980469 l 1,10,-1
 497.700195312 1182.29980469 l 1,11,-1
 497.700195312 718.200195312 l 2,12,13
 497.700195312 668.849609375 497.700195312 668.849609375 494.549804688 608.474609375 c 128,-1,14
 491.400390625 548.099609375 491.400390625 548.099609375 486.674804688 490.349609375 c 128,-1,15
 481.950195312 432.599609375 481.950195312 432.599609375 477.75 389.549804688 c 1,16,-1
 973.349609375 1182.29980469 l 1,17,-1
 1389.15039062 1182.29980469 l 1,18,-1
 1389.15039062 260.400390625 l 1,19,-1
 1683.15039062 260.400390625 l 1,20,-1
 1524.59960938 -428.400390625 l 1,21,-1
 1181.25 -428.400390625 l 1,0,-1
782.25 1303.04980469 m 0,22,23
 601.650390625 1303.04980469 601.650390625 1303.04980469 493.5 1348.20019531 c 128,-1,24
 385.349609375 1393.34960938 385.349609375 1393.34960938 334.424804688 1479.97460938 c 128,-1,25
 283.5 1566.59960938 283.5 1566.59960938 274.049804688 1691.54980469 c 1,26,-1
 588 1691.54980469 l 1,27,28
 596.400390625 1579.20019531 596.400390625 1579.20019531 643.650390625 1537.72460938 c 128,-1,29
 690.900390625 1496.25 690.900390625 1496.25 785.400390625 1496.25 c 0,30,31
 866.25 1496.25 866.25 1496.25 919.275390625 1538.25 c 128,-1,32
 972.299804688 1580.25 972.299804688 1580.25 981.75 1691.54980469 c 1,33,-1
 1300.95019531 1691.54980469 l 1,34,35
 1289.40039062 1577.09960938 1289.40039062 1577.09960938 1235.32519531 1489.42480469 c 128,-1,36
 1181.25 1401.75 1181.25 1401.75 1071.52539062 1352.40039062 c 128,-1,37
 961.799804688 1303.04980469 961.799804688 1303.04980469 782.25 1303.04980469 c 0,22,23
EndSplineSet
Validated: 1
EndChar
StartChar: uni048D
Encoding: 1165 1165 645
Width: 1284
VWidth: 2150
GlyphClass: 2
Flags: W
AnchorPoint: "Anchor-1" 642.6 0 basechar 0
AnchorPoint: "Anchor-0" 642.6 1633.8 basechar 0
LayerCount: 2
Fore
SplineSet
520.799804688 1633.79980469 m 1,0,-1
 520.799804688 1419.59960938 l 1,1,-1
 913.5 1419.59960938 l 1,2,-1
 913.5 1181.25 l 1,3,-1
 520.799804688 1181.25 l 1,4,-1
 520.799804688 741.299804688 l 1,5,-1
 701.400390625 741.299804688 l 2,6,7
 885.150390625 741.299804688 885.150390625 741.299804688 997.5 700.875 c 128,-1,8
 1109.84960938 660.450195312 1109.84960938 660.450195312 1160.77539062 581.174804688 c 128,-1,9
 1211.70019531 501.900390625 1211.70019531 501.900390625 1211.70019531 385.349609375 c 256,10,11
 1211.70019531 268.799804688 1211.70019531 268.799804688 1160.77539062 182.174804688 c 128,-1,12
 1109.84960938 95.5498046875 1109.84960938 95.5498046875 993.825195312 47.775390625 c 128,-1,13
 877.799804688 0 877.799804688 0 683.549804688 0 c 2,14,-1
 155.400390625 0 l 1,15,-1
 155.400390625 1181.25 l 1,16,-1
 1.0498046875 1181.25 l 1,17,-1
 1.0498046875 1419.59960938 l 1,18,-1
 155.400390625 1419.59960938 l 1,19,-1
 155.400390625 1633.79980469 l 1,20,-1
 520.799804688 1633.79980469 l 1,0,-1
662.549804688 495.599609375 m 2,21,-1
 520.799804688 495.599609375 l 1,22,-1
 520.799804688 245.700195312 l 1,23,-1
 666.75 245.700195312 l 2,24,25
 751.799804688 245.700195312 751.799804688 245.700195312 799.049804688 276.674804688 c 128,-1,26
 846.299804688 307.650390625 846.299804688 307.650390625 846.299804688 372.75 c 0,27,28
 846.299804688 434.700195312 846.299804688 434.700195312 804.299804688 465.150390625 c 128,-1,29
 762.299804688 495.599609375 762.299804688 495.599609375 662.549804688 495.599609375 c 2,21,-1
EndSplineSet
Validated: 1
EndChar
StartChar: uni048E
Encoding: 1166 1166 646
Width: 1397
VWidth: 2150
GlyphClass: 2
Flags: W
AnchorPoint: "Anchor-1" 699.3 0 basechar 0
AnchorPoint: "Anchor-0" 699.3 1535.1 basechar 0
LayerCount: 2
Fore
SplineSet
1309.34960938 1052.09960938 m 0,0,1
 1309.34960938 925.049804688 1309.34960938 925.049804688 1263.67480469 812.700195312 c 128,-1,2
 1218 700.349609375 1218 700.349609375 1108.79980469 626.849609375 c 1,3,-1
 1203.29980469 491.400390625 l 1,4,-1
 1029 365.400390625 l 1,5,-1
 904.049804688 546 l 1,6,7
 863.099609375 536.549804688 863.099609375 536.549804688 817.424804688 532.349609375 c 128,-1,8
 771.75 528.150390625 771.75 528.150390625 720.299804688 528.150390625 c 2,9,-1
 550.200195312 528.150390625 l 1,10,-1
 550.200195312 0 l 1,11,-1
 179.549804688 0 l 1,12,-1
 179.549804688 1535.09960938 l 1,13,-1
 732.900390625 1535.09960938 l 2,14,15
 1027.95019531 1535.09960938 1027.95019531 1535.09960938 1168.65039062 1408.04980469 c 128,-1,16
 1309.34960938 1281 1309.34960938 1281 1309.34960938 1052.09960938 c 0,0,1
550.200195312 811.650390625 m 1,17,-1
 674.099609375 811.650390625 l 2,18,19
 684.599609375 811.650390625 684.599609375 811.650390625 694.575195312 812.174804688 c 128,-1,20
 704.549804688 812.700195312 704.549804688 812.700195312 715.049804688 812.700195312 c 1,21,-1
 620.549804688 952.349609375 l 1,22,-1
 795.900390625 1077.29980469 l 1,23,-1
 906.150390625 917.700195312 l 1,24,25
 920.849609375 942.900390625 920.849609375 942.900390625 928.200195312 974.924804688 c 128,-1,26
 935.549804688 1006.95019531 935.549804688 1006.95019531 935.549804688 1046.84960938 c 0,27,28
 935.549804688 1147.65039062 935.549804688 1147.65039062 883.575195312 1199.625 c 128,-1,29
 831.599609375 1251.59960938 831.599609375 1251.59960938 720.299804688 1251.59960938 c 2,30,-1
 550.200195312 1251.59960938 l 1,31,-1
 550.200195312 811.650390625 l 1,17,-1
EndSplineSet
Validated: 1
EndChar
StartChar: uni049C
Encoding: 1180 1180 658
Width: 1472
VWidth: 2150
GlyphClass: 2
Flags: W
AnchorPoint: "Anchor-1" 737.1 0 basechar 0
AnchorPoint: "Anchor-0" 737.1 1535.1 basechar 0
LayerCount: 2
Fore
SplineSet
829.5 164.849609375 m 1,0,-1
 675.150390625 164.849609375 l 1,1,-1
 675.150390625 1420.65039062 l 1,2,-1
 829.5 1420.65039062 l 1,3,-1
 829.5 164.849609375 l 1,0,-1
1476.29980469 0 m 1,4,-1
 1057.34960938 0 l 1,5,-1
 551.25 778.049804688 l 1,6,-1
 551.25 0 l 1,7,-1
 179.549804688 0 l 1,8,-1
 179.549804688 1535.09960938 l 1,9,-1
 551.25 1535.09960938 l 1,10,-1
 551.25 791.700195312 l 1,11,-1
 1045.79980469 1535.09960938 l 1,12,-1
 1446.90039062 1535.09960938 l 1,13,-1
 930.299804688 800.099609375 l 1,14,-1
 1476.29980469 0 l 1,4,-1
EndSplineSet
Validated: 5
EndChar
StartChar: uni049D
Encoding: 1181 1181 659
Width: 1392
VWidth: 2150
GlyphClass: 2
Flags: W
AnchorPoint: "Anchor-1" 697.2 0 basechar 0
AnchorPoint: "Anchor-0" 697.2 1182.3 basechar 0
LayerCount: 2
Fore
SplineSet
765.450195312 1075.20019531 m 1,0,-1
 765.450195312 98.7001953125 l 1,1,-1
 611.099609375 98.7001953125 l 1,2,-1
 611.099609375 1075.20019531 l 1,3,-1
 765.450195312 1075.20019531 l 1,0,-1
956.549804688 1182.29980469 m 1,4,-1
 1359.75 1182.29980469 l 1,5,-1
 904.049804688 615.299804688 l 1,6,-1
 1397.54980469 0 l 1,7,-1
 980.700195312 0 l 1,8,-1
 520.799804688 599.549804688 l 1,9,-1
 520.799804688 0 l 1,10,-1
 155.400390625 0 l 1,11,-1
 155.400390625 1182.29980469 l 1,12,-1
 520.799804688 1182.29980469 l 1,13,-1
 520.799804688 609 l 1,14,-1
 956.549804688 1182.29980469 l 1,4,-1
EndSplineSet
Validated: 5
EndChar
StartChar: uni04A2
Encoding: 1186 1186 664
Width: 1825
VWidth: 2150
GlyphClass: 2
Flags: W
AnchorPoint: "Anchor-1" 822.15 -462 basechar 0
AnchorPoint: "Anchor-0" 822.15 1535.1 basechar 0
LayerCount: 2
Fore
SplineSet
1425.90039062 -462 m 1,0,-1
 1425.90039062 0 l 1,1,-1
 1096.20019531 0 l 1,2,-1
 1096.20019531 644.700195312 l 1,3,-1
 551.25 644.700195312 l 1,4,-1
 551.25 0 l 1,5,-1
 179.549804688 0 l 1,6,-1
 179.549804688 1535.09960938 l 1,7,-1
 551.25 1535.09960938 l 1,8,-1
 551.25 950.25 l 1,9,-1
 1096.20019531 950.25 l 1,10,-1
 1096.20019531 1535.09960938 l 1,11,-1
 1466.84960938 1535.09960938 l 1,12,-1
 1466.84960938 309.75 l 1,13,-1
 1785 309.75 l 1,14,-1
 1785 -462 l 1,15,-1
 1425.90039062 -462 l 1,0,-1
EndSplineSet
Validated: 1
EndChar
StartChar: uni04A3
Encoding: 1187 1187 665
Width: 1589
VWidth: 2150
GlyphClass: 2
Flags: W
AnchorPoint: "Anchor-1" 714 -428.4 basechar 0
AnchorPoint: "Anchor-0" 714 1182.3 basechar 0
LayerCount: 2
Fore
SplineSet
1227.45019531 -428.400390625 m 1,0,-1
 1227.45019531 0 l 1,1,-1
 907.200195312 0 l 1,2,-1
 907.200195312 470.400390625 l 1,3,-1
 520.799804688 470.400390625 l 1,4,-1
 520.799804688 0 l 1,5,-1
 155.400390625 0 l 1,6,-1
 155.400390625 1182.29980469 l 1,7,-1
 520.799804688 1182.29980469 l 1,8,-1
 520.799804688 742.349609375 l 1,9,-1
 907.200195312 742.349609375 l 1,10,-1
 907.200195312 1182.29980469 l 1,11,-1
 1272.59960938 1182.29980469 l 1,12,-1
 1272.59960938 269.849609375 l 1,13,-1
 1550.84960938 269.849609375 l 1,14,-1
 1550.84960938 -428.400390625 l 1,15,-1
 1227.45019531 -428.400390625 l 1,0,-1
EndSplineSet
Validated: 1
EndChar
StartChar: uni04A4
Encoding: 1188 1188 666
Width: 1835
VWidth: 2150
GlyphClass: 2
Flags: W
AnchorPoint: "Anchor-1" 823.2 0 basechar 0
AnchorPoint: "Anchor-0" 823.2 1535.1 basechar 0
LayerCount: 2
Fore
SplineSet
179.549804688 0 m 1,0,-1
 179.549804688 1535.09960938 l 1,1,-1
 551.25 1535.09960938 l 1,2,-1
 551.25 950.25 l 1,3,-1
 1096.20019531 950.25 l 1,4,-1
 1096.20019531 1535.09960938 l 1,5,-1
 1809.15039062 1535.09960938 l 1,6,-1
 1809.15039062 1230.59960938 l 1,7,-1
 1466.84960938 1230.59960938 l 1,8,-1
 1466.84960938 0 l 1,9,-1
 1096.20019531 0 l 1,10,-1
 1096.20019531 644.700195312 l 1,11,-1
 551.25 644.700195312 l 1,12,-1
 551.25 0 l 1,13,-1
 179.549804688 0 l 1,0,-1
EndSplineSet
Validated: 1
EndChar
StartChar: uni04A5
Encoding: 1189 1189 667
Width: 1659
VWidth: 2150
GlyphClass: 2
Flags: W
AnchorPoint: "Anchor-1" 714 0 basechar 0
AnchorPoint: "Anchor-0" 714 1182.3 basechar 0
LayerCount: 2
Fore
SplineSet
155.400390625 0 m 1,0,-1
 155.400390625 1182.29980469 l 1,1,-1
 520.799804688 1182.29980469 l 1,2,-1
 520.799804688 742.349609375 l 1,3,-1
 907.200195312 742.349609375 l 1,4,-1
 907.200195312 1182.29980469 l 1,5,-1
 1633.79980469 1182.29980469 l 1,6,-1
 1633.79980469 909.299804688 l 1,7,-1
 1272.59960938 909.299804688 l 1,8,-1
 1272.59960938 0 l 1,9,-1
 907.200195312 0 l 1,10,-1
 907.200195312 470.400390625 l 1,11,-1
 520.799804688 470.400390625 l 1,12,-1
 520.799804688 0 l 1,13,-1
 155.400390625 0 l 1,0,-1
EndSplineSet
Validated: 1
EndChar
StartChar: uni04A7
Encoding: 1191 1191 669
Width: 2000
VWidth: 2150
GlyphClass: 2
Flags: W
AnchorPoint: "Anchor-1" 1000.65 -504 basechar 0
AnchorPoint: "Anchor-0" 1000.65 1182.3 basechar 0
LayerCount: 2
Fore
SplineSet
1226.40039062 1182.29980469 m 1,0,-1
 1226.40039062 652.049804688 l 1,1,2
 1257.90039062 657.299804688 1257.90039062 657.299804688 1289.92480469 660.450195312 c 128,-1,3
 1321.95019531 663.599609375 1321.95019531 663.599609375 1350.29980469 663.599609375 c 0,4,5
 1518.29980469 663.599609375 1518.29980469 663.599609375 1646.40039062 594.299804688 c 128,-1,6
 1774.5 525 1774.5 525 1845.375 396.375 c 128,-1,7
 1916.25 267.75 1916.25 267.75 1916.25 89.25 c 0,8,9
 1916.25 -113.400390625 1916.25 -113.400390625 1846.42480469 -245.174804688 c 128,-1,10
 1776.59960938 -376.950195312 1776.59960938 -376.950195312 1654.79980469 -440.474609375 c 128,-1,11
 1533 -504 1533 -504 1378.65039062 -504 c 0,12,13
 1315.65039062 -504 1315.65039062 -504 1247.40039062 -493.5 c 128,-1,14
 1179.15039062 -483 1179.15039062 -483 1106.70019531 -452.549804688 c 1,15,-1
 1106.70019531 -163.799804688 l 1,16,17
 1149.75 -189 1149.75 -189 1208.02539062 -202.125 c 128,-1,18
 1266.29980469 -215.25 1266.29980469 -215.25 1316.70019531 -215.25 c 0,19,20
 1421.70019531 -215.25 1421.70019531 -215.25 1487.84960938 -146.474609375 c 128,-1,21
 1554 -77.7001953125 1554 -77.7001953125 1554 86.099609375 c 0,22,23
 1554 216.299804688 1554 216.299804688 1491 294.525390625 c 128,-1,24
 1428 372.75 1428 372.75 1299.90039062 372.75 c 0,25,26
 1278.90039062 372.75 1278.90039062 372.75 1259.47460938 370.125 c 128,-1,27
 1240.04980469 367.5 1240.04980469 367.5 1226.40039062 363.299804688 c 1,28,-1
 1226.40039062 0 l 1,29,-1
 861 0 l 1,30,-1
 861 909.299804688 l 1,31,-1
 520.799804688 909.299804688 l 1,32,-1
 520.799804688 0 l 1,33,-1
 155.400390625 0 l 1,34,-1
 155.400390625 1182.29980469 l 1,35,-1
 1226.40039062 1182.29980469 l 1,0,-1
EndSplineSet
Validated: 1
EndChar
StartChar: uni04A8
Encoding: 1192 1192 670
Width: 1727
VWidth: 2150
GlyphClass: 2
Flags: W
AnchorPoint: "Anchor-1" 865.2 0 basechar 0
AnchorPoint: "Anchor-0" 865.2 1535.1 basechar 0
LayerCount: 2
Fore
SplineSet
1603.34960938 711.900390625 m 0,0,1
 1603.34960938 585.900390625 1603.34960938 585.900390625 1565.54980469 489.299804688 c 128,-1,2
 1527.75 392.700195312 1527.75 392.700195312 1474.72460938 324.450195312 c 128,-1,3
 1421.70019531 256.200195312 1421.70019531 256.200195312 1374.45019531 214.200195312 c 1,4,5
 1397.54980469 205.799804688 1397.54980469 205.799804688 1436.40039062 201.599609375 c 128,-1,6
 1475.25 197.400390625 1475.25 197.400390625 1496.25 197.400390625 c 0,7,8
 1543.5 197.400390625 1543.5 197.400390625 1579.72460938 203.700195312 c 128,-1,9
 1615.95019531 210 1615.95019531 210 1651.65039062 220.5 c 1,10,-1
 1651.65039062 -61.9501953125 l 1,11,12
 1630.65039062 -70.349609375 1630.65039062 -70.349609375 1593.90039062 -76.650390625 c 128,-1,13
 1557.15039062 -82.9501953125 1557.15039062 -82.9501953125 1518.29980469 -85.5751953125 c 128,-1,14
 1479.45019531 -88.2001953125 1479.45019531 -88.2001953125 1451.09960938 -88.2001953125 c 0,15,16
 1346.09960938 -88.2001953125 1346.09960938 -88.2001953125 1257.90039062 -60.375 c 128,-1,17
 1169.70019531 -32.5498046875 1169.70019531 -32.5498046875 1093.04980469 22.0498046875 c 1,18,19
 1037.40039062 0 1037.40039062 0 960.75 -10.5 c 128,-1,20
 884.099609375 -21 884.099609375 -21 805.349609375 -21 c 0,21,22
 643.650390625 -21 643.650390625 -21 516.075195312 32.5498046875 c 128,-1,23
 388.5 86.099609375 388.5 86.099609375 299.25 186.375 c 128,-1,24
 210 286.650390625 210 286.650390625 163.799804688 428.400390625 c 128,-1,25
 117.599609375 570.150390625 117.599609375 570.150390625 117.599609375 747.599609375 c 0,26,27
 117.599609375 1002.75 117.599609375 1002.75 188.474609375 1184.40039062 c 128,-1,28
 259.349609375 1366.04980469 259.349609375 1366.04980469 406.349609375 1462.65039062 c 128,-1,29
 553.349609375 1559.25 553.349609375 1559.25 779.099609375 1559.25 c 0,30,31
 858.900390625 1559.25 858.900390625 1559.25 941.325195312 1543.5 c 128,-1,32
 1023.75 1527.75 1023.75 1527.75 1062.59960938 1512 c 1,33,-1
 971.25 1226.40039062 l 1,34,35
 930.299804688 1239 930.299804688 1239 888.825195312 1247.40039062 c 128,-1,36
 847.349609375 1255.79980469 847.349609375 1255.79980469 793.799804688 1255.79980469 c 0,37,38
 717.150390625 1255.79980469 717.150390625 1255.79980469 661.5 1222.72460938 c 128,-1,39
 605.849609375 1189.65039062 605.849609375 1189.65039062 569.099609375 1125.07519531 c 128,-1,40
 532.349609375 1060.5 532.349609375 1060.5 513.974609375 968.625 c 128,-1,41
 495.599609375 876.75 495.599609375 876.75 495.599609375 759.150390625 c 0,42,43
 495.599609375 601.650390625 495.599609375 601.650390625 538.125 496.650390625 c 128,-1,44
 580.650390625 391.650390625 580.650390625 391.650390625 655.200195312 339.150390625 c 128,-1,45
 729.75 286.650390625 729.75 286.650390625 825.299804688 286.650390625 c 0,46,47
 843.150390625 286.650390625 843.150390625 286.650390625 857.325195312 287.700195312 c 128,-1,48
 871.5 288.75 871.5 288.75 880.950195312 291.900390625 c 1,49,50
 852.599609375 325.5 852.599609375 325.5 821.099609375 388.5 c 128,-1,51
 789.599609375 451.5 789.599609375 451.5 768.075195312 534.450195312 c 128,-1,52
 746.549804688 617.400390625 746.549804688 617.400390625 746.549804688 708.75 c 0,53,54
 746.549804688 825.299804688 746.549804688 825.299804688 775.424804688 911.924804688 c 128,-1,55
 804.299804688 998.549804688 804.299804688 998.549804688 859.424804688 1056.29980469 c 128,-1,56
 914.549804688 1114.04980469 914.549804688 1114.04980469 993.299804688 1142.92480469 c 128,-1,57
 1072.04980469 1171.79980469 1072.04980469 1171.79980469 1171.79980469 1171.79980469 c 0,58,59
 1289.40039062 1171.79980469 1289.40039062 1171.79980469 1387.57519531 1125.59960938 c 128,-1,60
 1485.75 1079.40039062 1485.75 1079.40039062 1544.54980469 978.599609375 c 128,-1,61
 1603.34960938 877.799804688 1603.34960938 877.799804688 1603.34960938 711.900390625 c 0,0,1
1281 702.450195312 m 0,62,63
 1281 763.349609375 1281 763.349609375 1269.97460938 807.450195312 c 128,-1,64
 1258.95019531 851.549804688 1258.95019531 851.549804688 1236.375 875.174804688 c 128,-1,65
 1213.79980469 898.799804688 1213.79980469 898.799804688 1177.04980469 898.799804688 c 0,66,67
 1152.90039062 898.799804688 1152.90039062 898.799804688 1132.95019531 885.674804688 c 128,-1,68
 1113 872.549804688 1113 872.549804688 1099.34960938 846.825195312 c 128,-1,69
 1085.70019531 821.099609375 1085.70019531 821.099609375 1077.82519531 784.349609375 c 128,-1,70
 1069.95019531 747.599609375 1069.95019531 747.599609375 1069.95019531 700.349609375 c 0,71,72
 1069.95019531 624.75 1069.95019531 624.75 1083.59960938 565.424804688 c 128,-1,73
 1097.25 506.099609375 1097.25 506.099609375 1117.20019531 463.049804688 c 128,-1,74
 1137.15039062 420 1137.15039062 420 1157.09960938 391.650390625 c 1,75,76
 1185.45019531 418.950195312 1185.45019531 418.950195312 1214.32519531 462.525390625 c 128,-1,77
 1243.20019531 506.099609375 1243.20019531 506.099609375 1262.09960938 566.474609375 c 128,-1,78
 1281 626.849609375 1281 626.849609375 1281 702.450195312 c 0,62,63
EndSplineSet
Validated: 1
EndChar
